G04*
G04 #@! TF.GenerationSoftware,Altium Limited,Altium Designer,24.1.2 (44)*
G04*
G04 Layer_Color=8421504*
%FSLAX44Y44*%
%MOMM*%
G71*
G04*
G04 #@! TF.SameCoordinates,891499BE-5D65-45DE-B8A6-CBF03CD7CB3A*
G04*
G04*
G04 #@! TF.FilePolarity,Positive*
G04*
G01*
G75*
%ADD17R,2.0000X0.9000*%
%ADD18R,0.9000X2.0000*%
%ADD19R,4.0000X4.0000*%
%ADD20R,1.0000X1.2500*%
%ADD21R,1.2000X1.4000*%
%ADD22R,2.3400X3.6000*%
%ADD23R,2.5000X1.1000*%
%ADD24R,1.1000X1.1000*%
G36*
X777200Y-45770D02*
Y-32970D01*
X777700Y-32470D01*
X789201D01*
X789700Y-32970D01*
X789751Y-37071D01*
X785250D01*
Y-41570D01*
X789650D01*
X789700Y-45770D01*
X789201Y-46270D01*
X777700D01*
X777200Y-45770D01*
D01*
D02*
G37*
G36*
X811300Y-32970D02*
Y-45770D01*
X810800Y-46270D01*
X799299D01*
X798800Y-45770D01*
X798749Y-41670D01*
X803249D01*
Y-37170D01*
X798849D01*
X798800Y-32970D01*
X799299Y-32470D01*
X810800D01*
X811300Y-32970D01*
D01*
D02*
G37*
D17*
X631451Y-336051D02*
D03*
Y-323351D02*
D03*
Y-310651D02*
D03*
Y-297951D02*
D03*
Y-285251D02*
D03*
Y-272551D02*
D03*
Y-259851D02*
D03*
Y-247151D02*
D03*
Y-234451D02*
D03*
Y-221751D02*
D03*
Y-209051D02*
D03*
Y-196351D02*
D03*
Y-183651D02*
D03*
Y-170951D02*
D03*
X451450D02*
D03*
Y-183651D02*
D03*
Y-196351D02*
D03*
Y-209051D02*
D03*
Y-221751D02*
D03*
Y-234451D02*
D03*
Y-247151D02*
D03*
Y-259851D02*
D03*
Y-272551D02*
D03*
Y-285251D02*
D03*
Y-297951D02*
D03*
Y-310651D02*
D03*
Y-323351D02*
D03*
Y-336051D02*
D03*
D18*
X598600Y-155950D02*
D03*
X585900D02*
D03*
X573200D02*
D03*
X560500D02*
D03*
X547800D02*
D03*
X535100D02*
D03*
X522400D02*
D03*
X509700D02*
D03*
X497000D02*
D03*
X484300D02*
D03*
D19*
X552450Y-262890D02*
D03*
D20*
X715820Y-201422D02*
D03*
X737820D02*
D03*
X487480Y-101600D02*
D03*
X465480D02*
D03*
D21*
X311150Y-238760D02*
D03*
X330150D02*
D03*
X368350Y-326390D02*
D03*
X387350D02*
D03*
X465480Y-127000D02*
D03*
X484480D02*
D03*
X728370Y-102870D02*
D03*
X747370D02*
D03*
X730910Y-36830D02*
D03*
X749910D02*
D03*
X803250Y-91069D02*
D03*
X784250D02*
D03*
X737820Y-228600D02*
D03*
X718820D02*
D03*
D22*
X853930Y-200660D02*
D03*
D23*
X794530Y-223660D02*
D03*
Y-200660D02*
D03*
Y-177660D02*
D03*
D24*
X629310Y-36830D02*
D03*
X702310D02*
D03*
Y-102870D02*
D03*
X629310D02*
D03*
M02*
