G04*
G04 #@! TF.GenerationSoftware,Altium Limited,Altium Designer,24.1.2 (44)*
G04*
G04 Layer_Physical_Order=2*
G04 Layer_Color=16711680*
%FSLAX44Y44*%
%MOMM*%
G71*
G04*
G04 #@! TF.SameCoordinates,891499BE-5D65-45DE-B8A6-CBF03CD7CB3A*
G04*
G04*
G04 #@! TF.FilePolarity,Positive*
G04*
G01*
G75*
%ADD10C,0.2540*%
%ADD51C,0.5080*%
%ADD52C,3.0000*%
%ADD53C,1.8000*%
%ADD54R,1.8000X1.8000*%
%ADD55R,1.2954X1.2954*%
%ADD56C,1.2954*%
%ADD57R,1.6000X1.6000*%
%ADD58C,1.6000*%
%ADD59C,2.2000*%
%ADD60R,2.6000X2.6000*%
%ADD61C,2.6000*%
%ADD62C,2.7940*%
%ADD63O,0.9000X1.6000*%
%ADD64R,0.9000X1.6000*%
%ADD65C,0.6000*%
%ADD66C,0.7000*%
%ADD67C,1.2700*%
G36*
X1073229Y-2925D02*
X1075670Y-3936D01*
X1077766Y-5544D01*
X1079374Y-7640D01*
X1080385Y-10081D01*
X1080726Y-12672D01*
X1080720Y-12700D01*
Y-345440D01*
X1080726Y-345468D01*
X1080385Y-348059D01*
X1079374Y-350500D01*
X1077766Y-352596D01*
X1075670Y-354204D01*
X1073229Y-355215D01*
X1070638Y-355556D01*
X1070610Y-355550D01*
X12700D01*
X12672Y-355556D01*
X10081Y-355215D01*
X7640Y-354204D01*
X5544Y-352596D01*
X3936Y-350500D01*
X2925Y-348059D01*
X2584Y-345468D01*
X2590Y-345440D01*
Y-12700D01*
X2584Y-12672D01*
X2925Y-10081D01*
X3936Y-7640D01*
X5544Y-5544D01*
X7640Y-3936D01*
X10081Y-2925D01*
X12672Y-2584D01*
X12700Y-2590D01*
X1070610D01*
X1070638Y-2584D01*
X1073229Y-2925D01*
D02*
G37*
%LPC*%
G36*
X839945Y-32522D02*
X839560D01*
Y-39634D01*
X846672D01*
Y-39249D01*
X846144Y-37278D01*
X845124Y-35512D01*
X843681Y-34070D01*
X841915Y-33050D01*
X839945Y-32522D01*
D02*
G37*
G36*
X838290D02*
X837905D01*
X835935Y-33050D01*
X834168Y-34070D01*
X832726Y-35512D01*
X831706Y-37278D01*
X831178Y-39249D01*
Y-39634D01*
X838290D01*
Y-32522D01*
D02*
G37*
G36*
X846672Y-40904D02*
X839560D01*
Y-48016D01*
X839945D01*
X841915Y-47488D01*
X843681Y-46468D01*
X845124Y-45026D01*
X846144Y-43259D01*
X846672Y-41289D01*
Y-40904D01*
D02*
G37*
G36*
X838290D02*
X831178D01*
Y-41289D01*
X831706Y-43259D01*
X832726Y-45026D01*
X834168Y-46468D01*
X835935Y-47488D01*
X837905Y-48016D01*
X838290D01*
Y-40904D01*
D02*
G37*
G36*
X417780Y-51690D02*
X417195D01*
Y-60325D01*
X425830D01*
Y-59740D01*
X425198Y-57382D01*
X423978Y-55268D01*
X422252Y-53542D01*
X420138Y-52322D01*
X417780Y-51690D01*
D02*
G37*
G36*
X415925D02*
X415340D01*
X412982Y-52322D01*
X410868Y-53542D01*
X409142Y-55268D01*
X407922Y-57382D01*
X407290Y-59740D01*
Y-60325D01*
X415925D01*
Y-51690D01*
D02*
G37*
G36*
X704583Y-54610D02*
X702577D01*
X700639Y-55129D01*
X698901Y-56132D01*
X697483Y-57551D01*
X697285Y-57893D01*
X697114Y-58004D01*
X696688Y-58625D01*
X696286Y-59140D01*
X695890Y-59582D01*
X695503Y-59949D01*
X695127Y-60247D01*
X694766Y-60477D01*
X694418Y-60648D01*
X694082Y-60763D01*
X693752Y-60830D01*
X693328Y-60858D01*
X693238Y-60903D01*
X693139Y-60884D01*
X693101Y-60910D01*
X542290D01*
X541299Y-61107D01*
X540459Y-61669D01*
X452928Y-149200D01*
X452806Y-149245D01*
X452597Y-149440D01*
X452424Y-149579D01*
X452249Y-149698D01*
X452075Y-149798D01*
X451897Y-149881D01*
X451715Y-149948D01*
X451527Y-150000D01*
X451329Y-150037D01*
X451120Y-150059D01*
X450847Y-150066D01*
X450615Y-150170D01*
X449901D01*
X448148Y-150896D01*
X446806Y-152238D01*
X446080Y-153991D01*
Y-155889D01*
X446806Y-157642D01*
X448148Y-158984D01*
X449901Y-159710D01*
X451799D01*
X453552Y-158984D01*
X454894Y-157642D01*
X455620Y-155889D01*
Y-155175D01*
X455724Y-154943D01*
X455731Y-154670D01*
X455753Y-154461D01*
X455790Y-154263D01*
X455842Y-154075D01*
X455909Y-153893D01*
X455992Y-153715D01*
X456092Y-153540D01*
X456211Y-153366D01*
X456350Y-153193D01*
X456545Y-152984D01*
X456590Y-152862D01*
X543363Y-66090D01*
X693757D01*
X693863Y-66142D01*
X694217Y-66164D01*
X694551Y-66223D01*
X694931Y-66324D01*
X695949Y-66715D01*
X696478Y-66967D01*
X698517Y-68145D01*
X699270Y-68641D01*
X699529Y-68690D01*
X700639Y-69331D01*
X702577Y-69850D01*
X704583D01*
X706521Y-69331D01*
X708259Y-68327D01*
X709678Y-66909D01*
X710681Y-65171D01*
X711200Y-63233D01*
Y-61227D01*
X710681Y-59289D01*
X709678Y-57551D01*
X708259Y-56132D01*
X706521Y-55129D01*
X704583Y-54610D01*
D02*
G37*
G36*
X502030Y-51690D02*
X483490D01*
Y-70230D01*
X502030D01*
Y-51690D01*
D02*
G37*
G36*
X468580D02*
X466140D01*
X463782Y-52322D01*
X461668Y-53542D01*
X459942Y-55268D01*
X458722Y-57382D01*
X458090Y-59740D01*
Y-62180D01*
X458722Y-64538D01*
X459942Y-66652D01*
X461668Y-68378D01*
X463782Y-69598D01*
X466140Y-70230D01*
X468580D01*
X470938Y-69598D01*
X473052Y-68378D01*
X474778Y-66652D01*
X475998Y-64538D01*
X476630Y-62180D01*
Y-59740D01*
X475998Y-57382D01*
X474778Y-55268D01*
X473052Y-53542D01*
X470938Y-52322D01*
X468580Y-51690D01*
D02*
G37*
G36*
X443180D02*
X440740D01*
X438382Y-52322D01*
X436268Y-53542D01*
X434542Y-55268D01*
X433322Y-57382D01*
X432690Y-59740D01*
Y-62180D01*
X433322Y-64538D01*
X434542Y-66652D01*
X436268Y-68378D01*
X438382Y-69598D01*
X440740Y-70230D01*
X443180D01*
X445538Y-69598D01*
X447652Y-68378D01*
X449378Y-66652D01*
X450598Y-64538D01*
X451230Y-62180D01*
Y-59740D01*
X450598Y-57382D01*
X449378Y-55268D01*
X447652Y-53542D01*
X445538Y-52322D01*
X443180Y-51690D01*
D02*
G37*
G36*
X425830Y-61595D02*
X417195D01*
Y-70230D01*
X417780D01*
X420138Y-69598D01*
X422252Y-68378D01*
X423978Y-66652D01*
X425198Y-64538D01*
X425830Y-62180D01*
Y-61595D01*
D02*
G37*
G36*
X415925D02*
X407290D01*
Y-62180D01*
X407922Y-64538D01*
X409142Y-66652D01*
X410868Y-68378D01*
X412982Y-69598D01*
X415340Y-70230D01*
X415925D01*
Y-61595D01*
D02*
G37*
G36*
X839945Y-57922D02*
X837905D01*
X835935Y-58450D01*
X834168Y-59470D01*
X832726Y-60912D01*
X831706Y-62678D01*
X831178Y-64649D01*
Y-66689D01*
X831706Y-68659D01*
X832726Y-70426D01*
X834168Y-71868D01*
X835935Y-72888D01*
X837905Y-73416D01*
X839945D01*
X841915Y-72888D01*
X843681Y-71868D01*
X845124Y-70426D01*
X846144Y-68659D01*
X846672Y-66689D01*
Y-64649D01*
X846144Y-62678D01*
X845124Y-60912D01*
X843681Y-59470D01*
X841915Y-58450D01*
X839945Y-57922D01*
D02*
G37*
G36*
X310311Y-60650D02*
X307309D01*
X304364Y-61236D01*
X301591Y-62385D01*
X299095Y-64052D01*
X296972Y-66175D01*
X295304Y-68671D01*
X294156Y-71445D01*
X293570Y-74389D01*
Y-77391D01*
X294156Y-80336D01*
X295304Y-83109D01*
X296972Y-85605D01*
X299095Y-87728D01*
X301591Y-89396D01*
X304364Y-90544D01*
X307309Y-91130D01*
X310311D01*
X313255Y-90544D01*
X316029Y-89396D01*
X318525Y-87728D01*
X320648Y-85605D01*
X322315Y-83109D01*
X323464Y-80336D01*
X324050Y-77391D01*
Y-74389D01*
X323464Y-71445D01*
X322315Y-68671D01*
X320648Y-66175D01*
X318525Y-64052D01*
X316029Y-62385D01*
X313255Y-61236D01*
X310311Y-60650D01*
D02*
G37*
G36*
X188312Y-60655D02*
X185310D01*
X182365Y-61241D01*
X179592Y-62390D01*
X177096Y-64057D01*
X174973Y-66180D01*
X173305Y-68676D01*
X172156Y-71450D01*
X171571Y-74394D01*
Y-77396D01*
X172156Y-80341D01*
X173305Y-83114D01*
X174973Y-85610D01*
X177096Y-87733D01*
X179592Y-89401D01*
X182365Y-90549D01*
X185310Y-91135D01*
X188312D01*
X191256Y-90549D01*
X194030Y-89401D01*
X196526Y-87733D01*
X198648Y-85610D01*
X200316Y-83114D01*
X201465Y-80341D01*
X202051Y-77396D01*
Y-74394D01*
X201465Y-71450D01*
X200316Y-68676D01*
X198648Y-66180D01*
X196526Y-64057D01*
X194030Y-62390D01*
X191256Y-61241D01*
X188312Y-60655D01*
D02*
G37*
G36*
X839945Y-83322D02*
X837905D01*
X835935Y-83850D01*
X834168Y-84870D01*
X832726Y-86312D01*
X831706Y-88078D01*
X831178Y-90049D01*
Y-92089D01*
X831706Y-94059D01*
X831913Y-94418D01*
X718609Y-207722D01*
X513989D01*
X512959Y-206692D01*
X511389Y-206042D01*
X509691D01*
X508121Y-206692D01*
X506920Y-207893D01*
X506270Y-209463D01*
Y-211161D01*
X506920Y-212731D01*
X508121Y-213932D01*
X509691Y-214582D01*
X511389D01*
X512959Y-213932D01*
X513989Y-212902D01*
X719682D01*
X720673Y-212705D01*
X721513Y-212143D01*
X835575Y-98081D01*
X835935Y-98288D01*
X837905Y-98816D01*
X839945D01*
X841915Y-98288D01*
X843681Y-97268D01*
X845124Y-95826D01*
X846144Y-94059D01*
X846672Y-92089D01*
Y-90049D01*
X846144Y-88078D01*
X845124Y-86312D01*
X843681Y-84870D01*
X841915Y-83850D01*
X839945Y-83322D01*
D02*
G37*
G36*
X70459Y-88600D02*
X66701D01*
X63072Y-89572D01*
X59818Y-91451D01*
X57161Y-94108D01*
X55283Y-97362D01*
X54310Y-100991D01*
Y-104749D01*
X55283Y-108378D01*
X57161Y-111632D01*
X59818Y-114289D01*
X63072Y-116167D01*
X66701Y-117140D01*
X70459D01*
X74088Y-116167D01*
X77342Y-114289D01*
X79999Y-111632D01*
X81877Y-108378D01*
X82850Y-104749D01*
Y-100991D01*
X81877Y-97362D01*
X79999Y-94108D01*
X77342Y-91451D01*
X74088Y-89572D01*
X70459Y-88600D01*
D02*
G37*
G36*
X846672Y-108722D02*
X831178D01*
Y-124216D01*
X846672D01*
Y-108722D01*
D02*
G37*
G36*
X35854Y-131712D02*
X35601Y-131815D01*
X35327Y-131813D01*
X33921Y-132384D01*
X33727Y-132576D01*
X33473Y-132679D01*
X32393Y-133744D01*
X32287Y-133996D01*
X32092Y-134188D01*
X31501Y-135585D01*
X31499Y-135859D01*
X31393Y-136111D01*
X31382Y-137628D01*
X31485Y-137881D01*
X31483Y-138155D01*
X32054Y-139560D01*
X32246Y-139755D01*
X32349Y-140009D01*
X33414Y-141089D01*
X33666Y-141195D01*
X33858Y-141390D01*
X35255Y-141981D01*
X35529Y-141983D01*
X35781Y-142089D01*
X36539Y-142094D01*
X36539Y-142094D01*
X108421Y-142602D01*
X109183Y-142608D01*
X109438Y-142504D01*
X109712Y-142506D01*
X111124Y-141930D01*
X111319Y-141737D01*
X111573Y-141633D01*
X112655Y-140559D01*
X112761Y-140306D01*
X112955Y-140112D01*
X113541Y-138704D01*
X113541Y-138430D01*
X113646Y-138176D01*
Y-136659D01*
X113542Y-136407D01*
X113543Y-136135D01*
X112967Y-134739D01*
X112775Y-134546D01*
X112672Y-134294D01*
X111608Y-133222D01*
X111356Y-133117D01*
X111165Y-132924D01*
X109773Y-132338D01*
X109501Y-132337D01*
X109250Y-132231D01*
X108495Y-132226D01*
X36613Y-131718D01*
X35854Y-131712D01*
D02*
G37*
G36*
X330311Y-120650D02*
X327309D01*
X324365Y-121236D01*
X321591Y-122385D01*
X319095Y-124052D01*
X316972Y-126175D01*
X315305Y-128671D01*
X314156Y-131445D01*
X313570Y-134389D01*
Y-137391D01*
X314156Y-140335D01*
X315305Y-143109D01*
X316972Y-145605D01*
X319095Y-147728D01*
X321591Y-149396D01*
X324365Y-150544D01*
X327309Y-151130D01*
X330311D01*
X333256Y-150544D01*
X336029Y-149396D01*
X338525Y-147728D01*
X340648Y-145605D01*
X342316Y-143109D01*
X343464Y-140335D01*
X344050Y-137391D01*
Y-134389D01*
X343464Y-131445D01*
X342316Y-128671D01*
X340648Y-126175D01*
X338525Y-124052D01*
X336029Y-122385D01*
X333256Y-121236D01*
X330311Y-120650D01*
D02*
G37*
G36*
X221739Y-34436D02*
X220221D01*
X219969Y-34540D01*
X219695D01*
X218294Y-35121D01*
X218100Y-35314D01*
X217848Y-35419D01*
X216775Y-36492D01*
X216670Y-36744D01*
X216477Y-36938D01*
X215896Y-38339D01*
Y-38613D01*
X215791Y-38865D01*
Y-72766D01*
X215846Y-72896D01*
X215818Y-73035D01*
X215965Y-73773D01*
X216043Y-73890D01*
X216043Y-74031D01*
X216332Y-74726D01*
X216432Y-74826D01*
X216459Y-74964D01*
X216878Y-75589D01*
X216995Y-75668D01*
X217050Y-75798D01*
X217314Y-76062D01*
X217315Y-76062D01*
X217315Y-76062D01*
X217316Y-76063D01*
X217316Y-76063D01*
X247787Y-106534D01*
X248052Y-106800D01*
X248183Y-106855D01*
X248261Y-106972D01*
X248886Y-107391D01*
X249024Y-107418D01*
X249124Y-107518D01*
X249819Y-107807D01*
X249960Y-107807D01*
X250077Y-107885D01*
X250815Y-108032D01*
X250954Y-108005D01*
X251084Y-108059D01*
X342783D01*
X357523Y-122799D01*
Y-146949D01*
X341513Y-162959D01*
X251592D01*
X251462Y-163013D01*
X251323Y-162986D01*
X250585Y-163133D01*
X250468Y-163211D01*
X250327Y-163212D01*
X249632Y-163500D01*
X249532Y-163600D01*
X249394Y-163627D01*
X248769Y-164046D01*
X248690Y-164163D01*
X248560Y-164217D01*
X248295Y-164484D01*
X179977Y-232802D01*
X179977Y-232802D01*
X179711Y-233066D01*
X179657Y-233197D01*
X179540Y-233275D01*
X179121Y-233900D01*
X179094Y-234038D01*
X178994Y-234138D01*
X178706Y-234833D01*
X178705Y-234974D01*
X178627Y-235091D01*
X178480Y-235829D01*
X178507Y-235968D01*
X178454Y-236098D01*
Y-284223D01*
X178558Y-284475D01*
Y-284749D01*
X179139Y-286150D01*
X179332Y-286344D01*
X179437Y-286596D01*
X180510Y-287669D01*
X180762Y-287774D01*
X180956Y-287967D01*
X182357Y-288548D01*
X182631D01*
X182883Y-288652D01*
X184401D01*
X184653Y-288548D01*
X184927D01*
X186328Y-287967D01*
X186522Y-287774D01*
X186774Y-287669D01*
X187847Y-286596D01*
X187952Y-286344D01*
X188145Y-286150D01*
X188726Y-284749D01*
Y-284475D01*
X188831Y-284223D01*
Y-238623D01*
X254117Y-173337D01*
X344038D01*
X344169Y-173283D01*
X344307Y-173310D01*
X345045Y-173163D01*
X345162Y-173085D01*
X345303Y-173085D01*
X345998Y-172796D01*
X346098Y-172696D01*
X346236Y-172669D01*
X346861Y-172250D01*
X346939Y-172133D01*
X347070Y-172078D01*
X347334Y-171813D01*
X347334Y-171813D01*
X366377Y-152770D01*
X366377Y-152770D01*
X366642Y-152506D01*
X366697Y-152375D01*
X366814Y-152297D01*
X367233Y-151672D01*
X367260Y-151534D01*
X367360Y-151434D01*
X367648Y-150739D01*
X367649Y-150598D01*
X367727Y-150481D01*
X367874Y-149743D01*
X367846Y-149605D01*
X367901Y-149474D01*
Y-120274D01*
X367846Y-120143D01*
X367874Y-120005D01*
X367727Y-119267D01*
X367649Y-119150D01*
X367648Y-119009D01*
X367360Y-118314D01*
X367260Y-118214D01*
X367233Y-118076D01*
X366814Y-117451D01*
X366697Y-117373D01*
X366642Y-117242D01*
X366377Y-116978D01*
X366377Y-116978D01*
X366377Y-116978D01*
X348601Y-99201D01*
X348601Y-99201D01*
X348340Y-98940D01*
X348209Y-98885D01*
X348131Y-98768D01*
X347506Y-98349D01*
X347368Y-98322D01*
X347268Y-98222D01*
X346573Y-97934D01*
X346432Y-97934D01*
X346315Y-97855D01*
X345577Y-97708D01*
X345438Y-97736D01*
X345308Y-97682D01*
X253609D01*
X226168Y-70241D01*
Y-38865D01*
X226064Y-38613D01*
Y-38339D01*
X225483Y-36938D01*
X225290Y-36744D01*
X225185Y-36492D01*
X224112Y-35419D01*
X223860Y-35314D01*
X223666Y-35121D01*
X222265Y-34540D01*
X221991D01*
X221739Y-34436D01*
D02*
G37*
G36*
X376002Y-170391D02*
X373298D01*
X370686Y-171090D01*
X368344Y-172442D01*
X366432Y-174355D01*
X365080Y-176696D01*
X364380Y-179308D01*
Y-182013D01*
X365080Y-184625D01*
X366432Y-186966D01*
X368344Y-188879D01*
X370686Y-190231D01*
X373298Y-190931D01*
X376002D01*
X378614Y-190231D01*
X380956Y-188879D01*
X382868Y-186966D01*
X384220Y-184625D01*
X384920Y-182013D01*
Y-179308D01*
X384220Y-176696D01*
X382868Y-174355D01*
X380956Y-172442D01*
X378614Y-171090D01*
X376002Y-170391D01*
D02*
G37*
G36*
X70459Y-164800D02*
X66701D01*
X63072Y-165772D01*
X59818Y-167651D01*
X57161Y-170308D01*
X55283Y-173562D01*
X54310Y-177191D01*
Y-180949D01*
X55283Y-184578D01*
X57161Y-187832D01*
X59818Y-190489D01*
X63072Y-192367D01*
X66701Y-193340D01*
X70459D01*
X74088Y-192367D01*
X77342Y-190489D01*
X79999Y-187832D01*
X81877Y-184578D01*
X82850Y-180949D01*
Y-177191D01*
X81877Y-173562D01*
X79999Y-170308D01*
X77342Y-167651D01*
X74088Y-165772D01*
X70459Y-164800D01*
D02*
G37*
G36*
X188311Y-180645D02*
X185309D01*
X182365Y-181231D01*
X179591Y-182379D01*
X177095Y-184047D01*
X174972Y-186170D01*
X173304Y-188666D01*
X172156Y-191439D01*
X171570Y-194384D01*
Y-197386D01*
X172156Y-200330D01*
X173304Y-203104D01*
X174972Y-205600D01*
X177095Y-207722D01*
X179591Y-209390D01*
X182365Y-210539D01*
X185309Y-211125D01*
X188311D01*
X191255Y-210539D01*
X194029Y-209390D01*
X196525Y-207722D01*
X198648Y-205600D01*
X200315Y-203104D01*
X201464Y-200330D01*
X202050Y-197386D01*
Y-194384D01*
X201464Y-191439D01*
X200315Y-188666D01*
X198648Y-186170D01*
X196525Y-184047D01*
X194029Y-182379D01*
X191255Y-181231D01*
X188311Y-180645D01*
D02*
G37*
G36*
X310311Y-180650D02*
X307309D01*
X304364Y-181236D01*
X301591Y-182384D01*
X299095Y-184052D01*
X296972Y-186175D01*
X295304Y-188671D01*
X294156Y-191444D01*
X293570Y-194389D01*
Y-197391D01*
X294156Y-200335D01*
X295304Y-203109D01*
X296972Y-205605D01*
X299095Y-207728D01*
X301591Y-209395D01*
X304364Y-210544D01*
X307309Y-211130D01*
X310311D01*
X313255Y-210544D01*
X316029Y-209395D01*
X318525Y-207728D01*
X320648Y-205605D01*
X322315Y-203109D01*
X323464Y-200335D01*
X324050Y-197391D01*
Y-194389D01*
X323464Y-191444D01*
X322315Y-188671D01*
X320648Y-186175D01*
X318525Y-184052D01*
X316029Y-182384D01*
X313255Y-181236D01*
X310311Y-180650D01*
D02*
G37*
G36*
X109708Y-208169D02*
X108948Y-208172D01*
X35034Y-208426D01*
X34276Y-208428D01*
X34023Y-208534D01*
X33750Y-208535D01*
X32350Y-209120D01*
X32157Y-209314D01*
X31905Y-209420D01*
X30836Y-210496D01*
X30732Y-210749D01*
X30540Y-210943D01*
X29964Y-212347D01*
X29965Y-212620D01*
X29861Y-212873D01*
X29866Y-214391D01*
X29972Y-214643D01*
X29973Y-214916D01*
X30558Y-216316D01*
X30752Y-216509D01*
X30858Y-216761D01*
X31934Y-217830D01*
X32187Y-217934D01*
X32381Y-218126D01*
X33785Y-218702D01*
X34058Y-218701D01*
X34311Y-218805D01*
X35070Y-218803D01*
X108984Y-218548D01*
X108984Y-218549D01*
X109741Y-218546D01*
X109993Y-218441D01*
X110265Y-218440D01*
X111662Y-217857D01*
X111855Y-217663D01*
X112107Y-217559D01*
X113175Y-216486D01*
X113279Y-216234D01*
X113472Y-216041D01*
X114050Y-214642D01*
X114050Y-214369D01*
X114155Y-214117D01*
Y-212600D01*
X114050Y-212347D01*
X114049Y-212073D01*
X113466Y-210668D01*
X113272Y-210475D01*
X113167Y-210222D01*
X112090Y-209148D01*
X111837Y-209044D01*
X111642Y-208850D01*
X110236Y-208272D01*
X109962Y-208273D01*
X109708Y-208169D01*
D02*
G37*
G36*
X432749Y-216972D02*
X430851D01*
X429098Y-217698D01*
X428594Y-218203D01*
X428355Y-218294D01*
X428157Y-218481D01*
X427994Y-218613D01*
X427828Y-218727D01*
X427658Y-218824D01*
X427482Y-218905D01*
X427298Y-218972D01*
X427104Y-219025D01*
X426897Y-219064D01*
X426676Y-219088D01*
X426390Y-219098D01*
X426272Y-219152D01*
X363728D01*
X362737Y-219349D01*
X361897Y-219911D01*
X348670Y-233138D01*
X348547Y-233184D01*
X348338Y-233380D01*
X348158Y-233528D01*
X347975Y-233658D01*
X347787Y-233773D01*
X347595Y-233872D01*
X347397Y-233957D01*
X347190Y-234028D01*
X346975Y-234086D01*
X346749Y-234130D01*
X346468Y-234165D01*
X346329Y-234244D01*
X346015D01*
X344262Y-234970D01*
X342920Y-236312D01*
X342194Y-238065D01*
Y-239963D01*
X342920Y-241716D01*
X344262Y-243058D01*
X346015Y-243784D01*
X347913D01*
X349666Y-243058D01*
X351008Y-241716D01*
X351734Y-239963D01*
Y-238760D01*
X351813Y-238523D01*
X351795Y-238265D01*
X351798Y-238079D01*
X351818Y-237905D01*
X351852Y-237739D01*
X351903Y-237578D01*
X351970Y-237419D01*
X352056Y-237258D01*
X352164Y-237095D01*
X352297Y-236927D01*
X352490Y-236718D01*
X352509Y-236668D01*
X352556Y-236642D01*
X352583Y-236550D01*
X364801Y-224332D01*
X426272D01*
X426390Y-224386D01*
X426676Y-224396D01*
X426897Y-224420D01*
X427104Y-224459D01*
X427298Y-224512D01*
X427482Y-224579D01*
X427658Y-224660D01*
X427828Y-224757D01*
X427994Y-224870D01*
X428157Y-225003D01*
X428355Y-225190D01*
X428594Y-225281D01*
X429098Y-225786D01*
X430851Y-226512D01*
X432749D01*
X434502Y-225786D01*
X435844Y-224444D01*
X436570Y-222691D01*
Y-220793D01*
X435844Y-219040D01*
X434502Y-217698D01*
X432749Y-216972D01*
D02*
G37*
G36*
X955372Y-199630D02*
X952168D01*
X949024Y-200255D01*
X946063Y-201482D01*
X943399Y-203262D01*
X941132Y-205529D01*
X939352Y-208193D01*
X938125Y-211154D01*
X937500Y-214298D01*
Y-217502D01*
X938125Y-220646D01*
X939352Y-223607D01*
X941132Y-226271D01*
X943399Y-228538D01*
X946063Y-230318D01*
X949024Y-231545D01*
X952168Y-232170D01*
X955372D01*
X958516Y-231545D01*
X961477Y-230318D01*
X964141Y-228538D01*
X966408Y-226271D01*
X968188Y-223607D01*
X969415Y-220646D01*
X970040Y-217502D01*
Y-214298D01*
X969415Y-211154D01*
X968188Y-208193D01*
X966408Y-205529D01*
X964141Y-203262D01*
X961477Y-201482D01*
X958516Y-200255D01*
X955372Y-199630D01*
D02*
G37*
G36*
X376002Y-83390D02*
X373298D01*
X370686Y-84089D01*
X368344Y-85441D01*
X366432Y-87353D01*
X365080Y-89695D01*
X364380Y-92307D01*
Y-95012D01*
X365080Y-97624D01*
X366432Y-99965D01*
X367266Y-100799D01*
X367361Y-101042D01*
X368048Y-101752D01*
X368632Y-102433D01*
X369141Y-103108D01*
X369575Y-103777D01*
X369936Y-104440D01*
X370228Y-105097D01*
X370451Y-105748D01*
X370609Y-106396D01*
X370703Y-107044D01*
X370737Y-107760D01*
X370765Y-107820D01*
Y-115824D01*
X371061Y-117311D01*
X371903Y-118571D01*
X476683Y-223351D01*
Y-233041D01*
X476655Y-233100D01*
X476609Y-233981D01*
X476489Y-234662D01*
X476304Y-235215D01*
X476068Y-235655D01*
X475781Y-236005D01*
X475431Y-236292D01*
X474992Y-236528D01*
X474438Y-236713D01*
X473757Y-236833D01*
X472876Y-236879D01*
X472817Y-236907D01*
X472695D01*
X472678Y-236904D01*
X472673Y-236907D01*
X415798D01*
X414311Y-237203D01*
X413051Y-238045D01*
X394616Y-256480D01*
X394553Y-256503D01*
X394023Y-256985D01*
X393499Y-257376D01*
X392929Y-257723D01*
X392310Y-258025D01*
X391640Y-258284D01*
X390915Y-258497D01*
X390135Y-258663D01*
X389298Y-258781D01*
X388404Y-258849D01*
X387416Y-258866D01*
X387177Y-258970D01*
X385998D01*
X383386Y-259670D01*
X381044Y-261022D01*
X379132Y-262934D01*
X377780Y-265276D01*
X377080Y-267888D01*
Y-270592D01*
X377780Y-273204D01*
X379132Y-275546D01*
X381044Y-277458D01*
X383386Y-278810D01*
X385998Y-279510D01*
X388702D01*
X391314Y-278810D01*
X393656Y-277458D01*
X395568Y-275546D01*
X396920Y-273204D01*
X397620Y-270592D01*
Y-269413D01*
X397724Y-269174D01*
X397741Y-268186D01*
X397809Y-267292D01*
X397927Y-266455D01*
X398093Y-265675D01*
X398306Y-264950D01*
X398565Y-264280D01*
X398867Y-263661D01*
X399214Y-263091D01*
X399605Y-262567D01*
X400087Y-262037D01*
X400110Y-261974D01*
X417407Y-244677D01*
X480294D01*
X480298Y-244680D01*
X480315Y-244677D01*
X480821D01*
X480838Y-244680D01*
X480843Y-244677D01*
X771534D01*
X796952Y-270094D01*
X796973Y-270154D01*
X797510Y-270758D01*
X797949Y-271381D01*
X798344Y-272086D01*
X798691Y-272880D01*
X798990Y-273764D01*
X799236Y-274739D01*
X799425Y-275787D01*
X799640Y-278234D01*
X799657Y-279586D01*
X799761Y-279829D01*
Y-281295D01*
X800597Y-284415D01*
X802212Y-287213D01*
X804497Y-289498D01*
X807295Y-291113D01*
X810415Y-291949D01*
X813646D01*
X816767Y-291113D01*
X819565Y-289498D01*
X821849Y-287213D01*
X823464Y-284415D01*
X824301Y-281295D01*
Y-278064D01*
X823464Y-274943D01*
X821849Y-272146D01*
X819565Y-269861D01*
X816767Y-268246D01*
X813646Y-267409D01*
X812180D01*
X811938Y-267305D01*
X810567Y-267288D01*
X809317Y-267212D01*
X808158Y-267077D01*
X807090Y-266885D01*
X806115Y-266639D01*
X805231Y-266340D01*
X804437Y-265992D01*
X803732Y-265598D01*
X803110Y-265159D01*
X802506Y-264622D01*
X802446Y-264601D01*
X775890Y-238045D01*
X774630Y-237203D01*
X773143Y-236907D01*
X488463D01*
X488458Y-236904D01*
X488441Y-236907D01*
X488319D01*
X488260Y-236879D01*
X487379Y-236833D01*
X486698Y-236713D01*
X486144Y-236528D01*
X485705Y-236292D01*
X485355Y-236005D01*
X485068Y-235655D01*
X484832Y-235216D01*
X484647Y-234662D01*
X484527Y-233981D01*
X484481Y-233100D01*
X484453Y-233041D01*
Y-221742D01*
X484157Y-220255D01*
X483315Y-218995D01*
X378535Y-114215D01*
Y-107820D01*
X378563Y-107760D01*
X378597Y-107044D01*
X378691Y-106396D01*
X378849Y-105748D01*
X379072Y-105097D01*
X379364Y-104440D01*
X379725Y-103777D01*
X380160Y-103108D01*
X380668Y-102433D01*
X381252Y-101752D01*
X381939Y-101042D01*
X382034Y-100799D01*
X382868Y-99965D01*
X384220Y-97624D01*
X384920Y-95012D01*
Y-92307D01*
X384220Y-89695D01*
X382868Y-87353D01*
X380956Y-85441D01*
X378614Y-84089D01*
X376002Y-83390D01*
D02*
G37*
G36*
X82850Y-241000D02*
X54310D01*
Y-269540D01*
X82850D01*
Y-241000D01*
D02*
G37*
G36*
X246380Y-268747D02*
X244129Y-269195D01*
X242220Y-270470D01*
X240945Y-272379D01*
X240720Y-273509D01*
X239450Y-273384D01*
Y-268860D01*
X227910D01*
Y-276381D01*
X227680Y-276936D01*
Y-279324D01*
X227910Y-279879D01*
Y-287400D01*
X239450D01*
Y-282876D01*
X240720Y-282751D01*
X240945Y-283881D01*
X242220Y-285790D01*
X244129Y-287065D01*
X246380Y-287513D01*
X248631Y-287065D01*
X250540Y-285790D01*
X251815Y-283881D01*
X252083Y-282537D01*
X253377D01*
X253645Y-283881D01*
X254920Y-285790D01*
X256829Y-287065D01*
X258445Y-287387D01*
Y-278130D01*
Y-268873D01*
X256829Y-269195D01*
X254920Y-270470D01*
X253645Y-272379D01*
X253377Y-273723D01*
X252083D01*
X251815Y-272379D01*
X250540Y-270470D01*
X248631Y-269195D01*
X246380Y-268747D01*
D02*
G37*
G36*
X259715Y-268873D02*
Y-277495D01*
X264963D01*
Y-274630D01*
X264515Y-272379D01*
X263240Y-270470D01*
X261331Y-269195D01*
X259715Y-268873D01*
D02*
G37*
G36*
X321420Y-258970D02*
X300880D01*
Y-279510D01*
X321420D01*
Y-258970D01*
D02*
G37*
G36*
X264963Y-278765D02*
X259715D01*
Y-287387D01*
X261331Y-287065D01*
X263240Y-285790D01*
X264515Y-283881D01*
X264963Y-281630D01*
Y-278765D01*
D02*
G37*
G36*
X955372Y-275830D02*
X954405D01*
Y-291465D01*
X970040D01*
Y-290498D01*
X969415Y-287354D01*
X968188Y-284393D01*
X966408Y-281728D01*
X964141Y-279462D01*
X961477Y-277682D01*
X958516Y-276455D01*
X955372Y-275830D01*
D02*
G37*
G36*
X953135D02*
X952168D01*
X949024Y-276455D01*
X946063Y-277682D01*
X943399Y-279462D01*
X941132Y-281728D01*
X939352Y-284393D01*
X938125Y-287354D01*
X937500Y-290498D01*
Y-291465D01*
X953135D01*
Y-275830D01*
D02*
G37*
G36*
X720435Y-267023D02*
X717205D01*
X714084Y-267859D01*
X711286Y-269474D01*
X709002Y-271759D01*
X707386Y-274557D01*
X706550Y-277677D01*
Y-280908D01*
X707386Y-284029D01*
X709002Y-286827D01*
X711286Y-289111D01*
X714084Y-290726D01*
X717205Y-291563D01*
X720435D01*
X723556Y-290726D01*
X726354Y-289111D01*
X728638Y-286827D01*
X730254Y-284029D01*
X731090Y-280908D01*
Y-277677D01*
X730254Y-274557D01*
X728638Y-271759D01*
X726354Y-269474D01*
X723556Y-267859D01*
X720435Y-267023D01*
D02*
G37*
G36*
X312502Y-284370D02*
X311785D01*
Y-294005D01*
X321420D01*
Y-293288D01*
X320720Y-290676D01*
X319368Y-288334D01*
X317456Y-286422D01*
X315114Y-285070D01*
X312502Y-284370D01*
D02*
G37*
G36*
X310515D02*
X309798D01*
X307186Y-285070D01*
X304844Y-286422D01*
X302932Y-288334D01*
X301580Y-290676D01*
X300880Y-293288D01*
Y-294005D01*
X310515D01*
Y-284370D01*
D02*
G37*
G36*
X388702D02*
X385998D01*
X383386Y-285070D01*
X381044Y-286422D01*
X379132Y-288334D01*
X377780Y-290676D01*
X377080Y-293288D01*
Y-295992D01*
X377780Y-298604D01*
X379132Y-300946D01*
X381044Y-302858D01*
X383386Y-304210D01*
X385998Y-304910D01*
X388702D01*
X391314Y-304210D01*
X393656Y-302858D01*
X395568Y-300946D01*
X396920Y-298604D01*
X397620Y-295992D01*
Y-293288D01*
X396920Y-290676D01*
X395568Y-288334D01*
X393656Y-286422D01*
X391314Y-285070D01*
X388702Y-284370D01*
D02*
G37*
G36*
X321420Y-295275D02*
X311785D01*
Y-304910D01*
X312502D01*
X315114Y-304210D01*
X317456Y-302858D01*
X319368Y-300946D01*
X320720Y-298604D01*
X321420Y-295992D01*
Y-295275D01*
D02*
G37*
G36*
X310515D02*
X300880D01*
Y-295992D01*
X301580Y-298604D01*
X302932Y-300946D01*
X304844Y-302858D01*
X307186Y-304210D01*
X309798Y-304910D01*
X310515D01*
Y-295275D01*
D02*
G37*
G36*
X970040Y-292735D02*
X954405D01*
Y-308370D01*
X955372D01*
X958516Y-307745D01*
X961477Y-306518D01*
X964141Y-304738D01*
X966408Y-302472D01*
X968188Y-299807D01*
X969415Y-296846D01*
X970040Y-293703D01*
Y-292735D01*
D02*
G37*
G36*
X953135D02*
X937500D01*
Y-293703D01*
X938125Y-296846D01*
X939352Y-299807D01*
X941132Y-302472D01*
X943399Y-304738D01*
X946063Y-306518D01*
X949024Y-307745D01*
X952168Y-308370D01*
X953135D01*
Y-292735D01*
D02*
G37*
G36*
X720435Y-302024D02*
X719455D01*
Y-313659D01*
X731090D01*
Y-312678D01*
X730254Y-309558D01*
X728638Y-306760D01*
X726354Y-304475D01*
X723556Y-302860D01*
X720435Y-302024D01*
D02*
G37*
G36*
X718185D02*
X717205D01*
X714084Y-302860D01*
X711286Y-304475D01*
X709002Y-306760D01*
X707386Y-309558D01*
X706550Y-312678D01*
Y-313659D01*
X718185D01*
Y-302024D01*
D02*
G37*
G36*
X813646Y-302411D02*
X812666D01*
Y-314046D01*
X824301D01*
Y-313065D01*
X823464Y-309945D01*
X821849Y-307147D01*
X819565Y-304862D01*
X816767Y-303247D01*
X813646Y-302411D01*
D02*
G37*
G36*
X811396D02*
X810415D01*
X807295Y-303247D01*
X804497Y-304862D01*
X802212Y-307147D01*
X800597Y-309945D01*
X799761Y-313065D01*
Y-314046D01*
X811396D01*
Y-302411D01*
D02*
G37*
G36*
X731090Y-314929D02*
X719455D01*
Y-326564D01*
X720435D01*
X723556Y-325728D01*
X726354Y-324112D01*
X728638Y-321828D01*
X730254Y-319030D01*
X731090Y-315909D01*
Y-314929D01*
D02*
G37*
G36*
X718185D02*
X706550D01*
Y-315909D01*
X707386Y-319030D01*
X709002Y-321828D01*
X711286Y-324112D01*
X714084Y-325728D01*
X717205Y-326564D01*
X718185D01*
Y-314929D01*
D02*
G37*
G36*
X824301Y-315316D02*
X812666D01*
Y-326951D01*
X813646D01*
X816767Y-326114D01*
X819565Y-324499D01*
X821849Y-322215D01*
X823464Y-319417D01*
X824301Y-316296D01*
Y-315316D01*
D02*
G37*
G36*
X811396D02*
X799761D01*
Y-316296D01*
X800597Y-319417D01*
X802212Y-322215D01*
X804497Y-324499D01*
X807295Y-326114D01*
X810415Y-326951D01*
X811396D01*
Y-315316D01*
D02*
G37*
%LPD*%
G36*
X700026Y-67492D02*
X699240Y-66975D01*
X697119Y-65750D01*
X696492Y-65451D01*
X695356Y-65015D01*
X694848Y-64879D01*
X694379Y-64797D01*
X693950Y-64770D01*
X693420Y-62230D01*
X693936Y-62196D01*
X694444Y-62092D01*
X694946Y-61920D01*
X695440Y-61678D01*
X695926Y-61368D01*
X696405Y-60989D01*
X696877Y-60540D01*
X697341Y-60023D01*
X697798Y-59437D01*
X698248Y-58782D01*
X700026Y-67492D01*
D02*
G37*
G36*
X455539Y-152047D02*
X455310Y-152292D01*
X455106Y-152547D01*
X454926Y-152811D01*
X454770Y-153083D01*
X454639Y-153364D01*
X454532Y-153655D01*
X454450Y-153954D01*
X454392Y-154262D01*
X454359Y-154579D01*
X454350Y-154905D01*
X450885Y-151440D01*
X451211Y-151431D01*
X451528Y-151398D01*
X451836Y-151340D01*
X452135Y-151258D01*
X452426Y-151151D01*
X452707Y-151020D01*
X452979Y-150864D01*
X453243Y-150684D01*
X453498Y-150480D01*
X453743Y-150251D01*
X455539Y-152047D01*
D02*
G37*
G36*
X429300Y-224192D02*
X429064Y-223968D01*
X428816Y-223767D01*
X428557Y-223590D01*
X428287Y-223437D01*
X428007Y-223307D01*
X427715Y-223201D01*
X427412Y-223118D01*
X427099Y-223059D01*
X426774Y-223024D01*
X426438Y-223012D01*
Y-220472D01*
X426774Y-220460D01*
X427099Y-220425D01*
X427412Y-220366D01*
X427715Y-220283D01*
X428007Y-220177D01*
X428287Y-220047D01*
X428557Y-219894D01*
X428816Y-219717D01*
X429064Y-219516D01*
X429300Y-219292D01*
Y-224192D01*
D02*
G37*
G36*
X351483Y-235784D02*
X351252Y-236032D01*
X351049Y-236289D01*
X350875Y-236553D01*
X350729Y-236825D01*
X350611Y-237104D01*
X350521Y-237392D01*
X350459Y-237687D01*
X350425Y-237990D01*
X350419Y-238301D01*
X350442Y-238620D01*
X346640Y-235529D01*
X346967Y-235488D01*
X347285Y-235426D01*
X347593Y-235343D01*
X347892Y-235240D01*
X348181Y-235116D01*
X348461Y-234972D01*
X348732Y-234806D01*
X348993Y-234620D01*
X349245Y-234414D01*
X349487Y-234187D01*
X351483Y-235784D01*
D02*
G37*
G36*
X380236Y-100826D02*
X379596Y-101570D01*
X379032Y-102319D01*
X378544Y-103073D01*
X378130Y-103831D01*
X377792Y-104594D01*
X377528Y-105362D01*
X377340Y-106135D01*
X377228Y-106912D01*
X377190Y-107694D01*
X372110D01*
X372072Y-106912D01*
X371960Y-106135D01*
X371772Y-105362D01*
X371508Y-104594D01*
X371170Y-103831D01*
X370756Y-103073D01*
X370268Y-102319D01*
X369704Y-101570D01*
X369064Y-100826D01*
X368350Y-100087D01*
X380950D01*
X380236Y-100826D01*
D02*
G37*
G36*
X483159Y-234137D02*
X483311Y-235001D01*
X483565Y-235763D01*
X483921Y-236423D01*
X484378Y-236982D01*
X484937Y-237439D01*
X485597Y-237795D01*
X486359Y-238049D01*
X487223Y-238201D01*
X488188Y-238252D01*
X480568Y-243332D01*
X472948Y-238252D01*
X473913Y-238201D01*
X474777Y-238049D01*
X475539Y-237795D01*
X476199Y-237439D01*
X476758Y-236982D01*
X477215Y-236423D01*
X477571Y-235763D01*
X477825Y-235001D01*
X477977Y-234137D01*
X478028Y-233172D01*
X483108D01*
X483159Y-234137D01*
D02*
G37*
G36*
X399070Y-261112D02*
X398543Y-261692D01*
X398074Y-262321D01*
X397660Y-263000D01*
X397304Y-263729D01*
X397003Y-264508D01*
X396759Y-265337D01*
X396572Y-266215D01*
X396441Y-267144D01*
X396367Y-268122D01*
X396349Y-269150D01*
X387440Y-260240D01*
X388468Y-260223D01*
X389446Y-260149D01*
X390375Y-260018D01*
X391253Y-259830D01*
X392082Y-259587D01*
X392861Y-259286D01*
X393590Y-258930D01*
X394269Y-258516D01*
X394898Y-258047D01*
X395478Y-257520D01*
X399070Y-261112D01*
D02*
G37*
G36*
X802254Y-266238D02*
X802998Y-266763D01*
X803825Y-267225D01*
X804734Y-267623D01*
X805726Y-267958D01*
X806800Y-268230D01*
X807956Y-268438D01*
X809195Y-268582D01*
X810517Y-268663D01*
X811921Y-268680D01*
X801031Y-279569D01*
X801014Y-278166D01*
X800789Y-275605D01*
X800581Y-274449D01*
X800309Y-273375D01*
X799975Y-272383D01*
X799576Y-271474D01*
X799114Y-270647D01*
X798589Y-269902D01*
X798000Y-269241D01*
X801592Y-265648D01*
X802254Y-266238D01*
D02*
G37*
D10*
X719682Y-210312D02*
X838925Y-91069D01*
X510540Y-210312D02*
X719682D01*
X346964Y-239014D02*
Y-238506D01*
X363728Y-221742D01*
X431800D01*
X542290Y-63500D02*
X702310D01*
X450850Y-154940D02*
X542290Y-63500D01*
X702310D02*
X703580Y-62230D01*
D51*
X374650Y-115824D02*
X480568Y-221742D01*
X374650Y-115824D02*
Y-93659D01*
X480568Y-240792D02*
Y-221742D01*
Y-240792D02*
X773143D01*
X415798D02*
X480568D01*
X773143D02*
X812031Y-279679D01*
X387350Y-269240D02*
X415798Y-240792D01*
D52*
X953770Y-292100D02*
D03*
Y-215900D02*
D03*
D53*
X311150Y-294640D02*
D03*
X387350D02*
D03*
Y-269240D02*
D03*
X374650Y-93659D02*
D03*
Y-180660D02*
D03*
D54*
X311150Y-269240D02*
D03*
D55*
X838925Y-116469D02*
D03*
D56*
Y-91069D02*
D03*
Y-65669D02*
D03*
Y-40269D02*
D03*
D57*
X492760Y-60960D02*
D03*
D58*
X467360D02*
D03*
X441960D02*
D03*
X416560D02*
D03*
D59*
X718820Y-279293D02*
D03*
Y-314294D02*
D03*
X812031Y-279679D02*
D03*
Y-314681D02*
D03*
D60*
X68580Y-255270D02*
D03*
D61*
Y-179070D02*
D03*
Y-102870D02*
D03*
D62*
X186811Y-75895D02*
D03*
X328810Y-135890D02*
D03*
X308810Y-195890D02*
D03*
Y-75890D02*
D03*
X186810Y-195885D02*
D03*
D63*
X259080Y-278130D02*
D03*
X246380D02*
D03*
D64*
X233680D02*
D03*
D65*
X1075055Y-27940D02*
D03*
X1065530Y-46990D02*
D03*
X1075055Y-66040D02*
D03*
X1065530Y-85090D02*
D03*
X1075055Y-104140D02*
D03*
X1065530Y-123190D02*
D03*
X1075055Y-142240D02*
D03*
X1065530Y-161290D02*
D03*
X1075055Y-180340D02*
D03*
X1065530Y-199390D02*
D03*
X1075055Y-218440D02*
D03*
X1065530Y-237490D02*
D03*
X1075055Y-256540D02*
D03*
X1065530Y-275590D02*
D03*
X1075055Y-294640D02*
D03*
X1065530Y-313690D02*
D03*
X1075055Y-332740D02*
D03*
X1065530Y-351790D02*
D03*
X1056005Y-27940D02*
D03*
X1046480Y-46990D02*
D03*
X1056005Y-66040D02*
D03*
X1046480Y-85090D02*
D03*
X1056005Y-104140D02*
D03*
X1046480Y-123190D02*
D03*
X1056005Y-142240D02*
D03*
X1046480Y-161290D02*
D03*
X1056005Y-180340D02*
D03*
X1046480Y-199390D02*
D03*
X1056005Y-218440D02*
D03*
X1046480Y-237490D02*
D03*
X1056005Y-256540D02*
D03*
X1046480Y-275590D02*
D03*
X1056005Y-294640D02*
D03*
X1046480Y-313690D02*
D03*
X1056005Y-332740D02*
D03*
X1046480Y-351790D02*
D03*
X1036955Y-27940D02*
D03*
X1027430Y-46990D02*
D03*
X1036955Y-66040D02*
D03*
X1027430Y-85090D02*
D03*
X1036955Y-104140D02*
D03*
X1027430Y-123190D02*
D03*
X1036955Y-142240D02*
D03*
X1027430Y-161290D02*
D03*
X1036955Y-180340D02*
D03*
X1027430Y-199390D02*
D03*
X1036955Y-218440D02*
D03*
X1027430Y-237490D02*
D03*
X1036955Y-256540D02*
D03*
X1027430Y-275590D02*
D03*
X1036955Y-294640D02*
D03*
X1027430Y-313690D02*
D03*
X1036955Y-332740D02*
D03*
X1027430Y-351790D02*
D03*
X1017905Y-27940D02*
D03*
X1008380Y-46990D02*
D03*
X1017905Y-66040D02*
D03*
X1008380Y-85090D02*
D03*
X1017905Y-104140D02*
D03*
X1008380Y-123190D02*
D03*
X1017905Y-142240D02*
D03*
X1008380Y-161290D02*
D03*
X1017905Y-180340D02*
D03*
X1008380Y-199390D02*
D03*
X1017905Y-218440D02*
D03*
X1008380Y-237490D02*
D03*
X1017905Y-256540D02*
D03*
X1008380Y-275590D02*
D03*
X1017905Y-294640D02*
D03*
X1008380Y-313690D02*
D03*
X1017905Y-332740D02*
D03*
X1008380Y-351790D02*
D03*
X998855Y-27940D02*
D03*
X989330Y-46990D02*
D03*
X998855Y-66040D02*
D03*
X989330Y-85090D02*
D03*
X998855Y-104140D02*
D03*
X989330Y-123190D02*
D03*
X998855Y-142240D02*
D03*
X989330Y-161290D02*
D03*
X998855Y-180340D02*
D03*
X989330Y-199390D02*
D03*
X998855Y-218440D02*
D03*
X989330Y-237490D02*
D03*
X998855Y-256540D02*
D03*
X989330Y-275590D02*
D03*
X998855Y-294640D02*
D03*
X989330Y-313690D02*
D03*
X998855Y-332740D02*
D03*
X989330Y-351790D02*
D03*
X979805Y-27940D02*
D03*
X970280Y-46990D02*
D03*
X979805Y-66040D02*
D03*
X970280Y-85090D02*
D03*
X979805Y-104140D02*
D03*
X970280Y-123190D02*
D03*
X979805Y-142240D02*
D03*
X970280Y-161290D02*
D03*
X979805Y-180340D02*
D03*
X970280Y-199390D02*
D03*
X979805Y-218440D02*
D03*
X970280Y-237490D02*
D03*
X979805Y-256540D02*
D03*
Y-294640D02*
D03*
X970280Y-313690D02*
D03*
X979805Y-332740D02*
D03*
X970280Y-351790D02*
D03*
X960755Y-27940D02*
D03*
X951230Y-46990D02*
D03*
X960755Y-66040D02*
D03*
X951230Y-85090D02*
D03*
X960755Y-104140D02*
D03*
X951230Y-123190D02*
D03*
X960755Y-142240D02*
D03*
X951230Y-161290D02*
D03*
X960755Y-180340D02*
D03*
X951230Y-237490D02*
D03*
X960755Y-256540D02*
D03*
Y-332740D02*
D03*
X951230Y-351790D02*
D03*
X941705Y-27940D02*
D03*
X932180Y-46990D02*
D03*
X941705Y-66040D02*
D03*
X932180Y-85090D02*
D03*
X941705Y-104140D02*
D03*
X932180Y-123190D02*
D03*
X941705Y-142240D02*
D03*
X932180Y-161290D02*
D03*
X941705Y-180340D02*
D03*
X932180Y-199390D02*
D03*
X941705Y-256540D02*
D03*
X932180Y-275590D02*
D03*
Y-313690D02*
D03*
X941705Y-332740D02*
D03*
X932180Y-351790D02*
D03*
X922655Y-27940D02*
D03*
X913130Y-46990D02*
D03*
X922655Y-66040D02*
D03*
X913130Y-85090D02*
D03*
X922655Y-104140D02*
D03*
X913130Y-123190D02*
D03*
X922655Y-142240D02*
D03*
X913130Y-161290D02*
D03*
X922655Y-180340D02*
D03*
X913130Y-199390D02*
D03*
X922655Y-218440D02*
D03*
Y-256540D02*
D03*
X913130Y-275590D02*
D03*
X922655Y-294640D02*
D03*
X913130Y-313690D02*
D03*
X922655Y-332740D02*
D03*
X913130Y-351790D02*
D03*
X903605Y-27940D02*
D03*
X894080Y-46990D02*
D03*
X903605Y-66040D02*
D03*
X894080Y-85090D02*
D03*
X903605Y-104140D02*
D03*
X894080Y-123190D02*
D03*
X903605Y-142240D02*
D03*
X894080Y-161290D02*
D03*
X903605Y-180340D02*
D03*
X894080Y-199390D02*
D03*
X903605Y-218440D02*
D03*
X894080Y-237490D02*
D03*
X903605Y-294640D02*
D03*
X894080Y-313690D02*
D03*
X903605Y-332740D02*
D03*
X894080Y-351790D02*
D03*
X884555Y-27940D02*
D03*
X875030Y-46990D02*
D03*
X884555Y-66040D02*
D03*
X875030Y-85090D02*
D03*
X884555Y-104140D02*
D03*
X875030Y-123190D02*
D03*
X884555Y-142240D02*
D03*
X875030Y-161290D02*
D03*
X884555Y-180340D02*
D03*
X875030Y-199390D02*
D03*
X884555Y-218440D02*
D03*
X875030Y-237490D02*
D03*
X884555Y-256540D02*
D03*
Y-294640D02*
D03*
X875030Y-313690D02*
D03*
X884555Y-332740D02*
D03*
X875030Y-351790D02*
D03*
X865505Y-27940D02*
D03*
X855980Y-46990D02*
D03*
X865505Y-66040D02*
D03*
X855980Y-85090D02*
D03*
X865505Y-104140D02*
D03*
X855980Y-123190D02*
D03*
X865505Y-142240D02*
D03*
X855980Y-161290D02*
D03*
Y-237490D02*
D03*
X865505Y-256540D02*
D03*
Y-294640D02*
D03*
X855980Y-313690D02*
D03*
X865505Y-332740D02*
D03*
X855980Y-351790D02*
D03*
X846455Y-104140D02*
D03*
X836930Y-199390D02*
D03*
Y-237490D02*
D03*
X846455Y-256540D02*
D03*
Y-294640D02*
D03*
X836930Y-313690D02*
D03*
X846455Y-332740D02*
D03*
X836930Y-351790D02*
D03*
X827405Y-66040D02*
D03*
X817880Y-85090D02*
D03*
Y-123190D02*
D03*
Y-161290D02*
D03*
X827405Y-218440D02*
D03*
X817880Y-237490D02*
D03*
X827405Y-256540D02*
D03*
Y-294640D02*
D03*
Y-332740D02*
D03*
X817880Y-351790D02*
D03*
X808355Y-66040D02*
D03*
Y-104140D02*
D03*
X798830Y-123190D02*
D03*
X808355Y-142240D02*
D03*
X798830Y-161290D02*
D03*
X808355Y-256540D02*
D03*
X798830Y-351790D02*
D03*
X789305Y-66040D02*
D03*
X779780Y-123190D02*
D03*
Y-161290D02*
D03*
Y-237490D02*
D03*
Y-275590D02*
D03*
X789305Y-294640D02*
D03*
X779780Y-313690D02*
D03*
X789305Y-332740D02*
D03*
X779780Y-351790D02*
D03*
X770255Y-27940D02*
D03*
X760730Y-46990D02*
D03*
X770255Y-66040D02*
D03*
X760730Y-85090D02*
D03*
X770255Y-104140D02*
D03*
X760730Y-123190D02*
D03*
X770255Y-142240D02*
D03*
X760730Y-161290D02*
D03*
X770255Y-180340D02*
D03*
Y-218440D02*
D03*
Y-256540D02*
D03*
X760730Y-275590D02*
D03*
X770255Y-294640D02*
D03*
X760730Y-313690D02*
D03*
X770255Y-332740D02*
D03*
X760730Y-351790D02*
D03*
X741680Y-85090D02*
D03*
Y-123190D02*
D03*
X751205Y-142240D02*
D03*
X741680Y-161290D02*
D03*
X751205Y-218440D02*
D03*
Y-294640D02*
D03*
X741680Y-313690D02*
D03*
X751205Y-332740D02*
D03*
X741680Y-351790D02*
D03*
X732155Y-66040D02*
D03*
X722630Y-85090D02*
D03*
Y-123190D02*
D03*
X732155Y-142240D02*
D03*
X722630Y-161290D02*
D03*
X732155Y-180340D02*
D03*
Y-256540D02*
D03*
Y-294640D02*
D03*
Y-332740D02*
D03*
X722630Y-351790D02*
D03*
X713105Y-27940D02*
D03*
X703580Y-85090D02*
D03*
Y-123190D02*
D03*
X713105Y-142240D02*
D03*
X703580Y-161290D02*
D03*
X713105Y-180340D02*
D03*
X703580Y-275590D02*
D03*
Y-351790D02*
D03*
X684530Y-46990D02*
D03*
Y-85090D02*
D03*
X694055Y-142240D02*
D03*
Y-180340D02*
D03*
Y-218440D02*
D03*
Y-256540D02*
D03*
Y-332740D02*
D03*
X684530Y-351790D02*
D03*
X675005Y-27940D02*
D03*
X665480Y-46990D02*
D03*
Y-85090D02*
D03*
X675005Y-104140D02*
D03*
X665480Y-123190D02*
D03*
X675005Y-142240D02*
D03*
X665480Y-161290D02*
D03*
X675005Y-180340D02*
D03*
X665480Y-199390D02*
D03*
X675005Y-218440D02*
D03*
Y-256540D02*
D03*
X665480Y-275590D02*
D03*
Y-313690D02*
D03*
X675005Y-332740D02*
D03*
X665480Y-351790D02*
D03*
X655955Y-27940D02*
D03*
X646430Y-46990D02*
D03*
Y-85090D02*
D03*
X655955Y-104140D02*
D03*
X646430Y-123190D02*
D03*
X655955Y-142240D02*
D03*
X646430Y-161290D02*
D03*
X655955Y-180340D02*
D03*
X646430Y-199390D02*
D03*
X655955Y-218440D02*
D03*
Y-256540D02*
D03*
X646430Y-275590D02*
D03*
X655955Y-294640D02*
D03*
Y-332740D02*
D03*
X646430Y-351790D02*
D03*
X627380Y-85090D02*
D03*
Y-123190D02*
D03*
X636905Y-142240D02*
D03*
X627380Y-161290D02*
D03*
Y-351790D02*
D03*
X608330Y-46990D02*
D03*
Y-85090D02*
D03*
Y-123190D02*
D03*
X617855Y-142240D02*
D03*
X608330Y-161290D02*
D03*
Y-199390D02*
D03*
Y-275590D02*
D03*
Y-313690D02*
D03*
Y-351790D02*
D03*
X598805Y-27940D02*
D03*
X589280Y-46990D02*
D03*
Y-85090D02*
D03*
X598805Y-104140D02*
D03*
X589280Y-123190D02*
D03*
X598805Y-180340D02*
D03*
X589280Y-199390D02*
D03*
X598805Y-218440D02*
D03*
Y-256540D02*
D03*
X589280Y-275590D02*
D03*
X598805Y-294640D02*
D03*
X589280Y-313690D02*
D03*
X598805Y-332740D02*
D03*
X589280Y-351790D02*
D03*
X579755Y-27940D02*
D03*
X570230Y-46990D02*
D03*
Y-85090D02*
D03*
X579755Y-104140D02*
D03*
X570230Y-123190D02*
D03*
X579755Y-180340D02*
D03*
X570230Y-199390D02*
D03*
X579755Y-218440D02*
D03*
Y-256540D02*
D03*
Y-294640D02*
D03*
X570230Y-313690D02*
D03*
X579755Y-332740D02*
D03*
X570230Y-351790D02*
D03*
X560705Y-27940D02*
D03*
X551180Y-46990D02*
D03*
Y-85090D02*
D03*
X560705Y-104140D02*
D03*
X551180Y-123190D02*
D03*
X560705Y-180340D02*
D03*
X551180Y-199390D02*
D03*
X560705Y-218440D02*
D03*
Y-294640D02*
D03*
X551180Y-313690D02*
D03*
X560705Y-332740D02*
D03*
X551180Y-351790D02*
D03*
X541655Y-27940D02*
D03*
X532130Y-46990D02*
D03*
Y-85090D02*
D03*
X541655Y-104140D02*
D03*
X532130Y-123190D02*
D03*
X541655Y-180340D02*
D03*
X532130Y-199390D02*
D03*
X541655Y-218440D02*
D03*
Y-294640D02*
D03*
X532130Y-313690D02*
D03*
X541655Y-332740D02*
D03*
X532130Y-351790D02*
D03*
X522605Y-27940D02*
D03*
X513080Y-46990D02*
D03*
X522605Y-66040D02*
D03*
Y-104140D02*
D03*
X513080Y-123190D02*
D03*
X522605Y-180340D02*
D03*
X513080Y-199390D02*
D03*
X522605Y-218440D02*
D03*
Y-256540D02*
D03*
X513080Y-275590D02*
D03*
X522605Y-294640D02*
D03*
X513080Y-313690D02*
D03*
X522605Y-332740D02*
D03*
X513080Y-351790D02*
D03*
X503555Y-27940D02*
D03*
Y-180340D02*
D03*
X494030Y-199390D02*
D03*
X503555Y-256540D02*
D03*
X494030Y-275590D02*
D03*
X503555Y-294640D02*
D03*
X494030Y-313690D02*
D03*
X503555Y-332740D02*
D03*
X494030Y-351790D02*
D03*
X484505Y-27940D02*
D03*
X474980Y-46990D02*
D03*
Y-85090D02*
D03*
Y-161290D02*
D03*
X484505Y-180340D02*
D03*
X474980Y-199390D02*
D03*
X484505Y-256540D02*
D03*
X474980Y-275590D02*
D03*
X484505Y-294640D02*
D03*
X474980Y-313690D02*
D03*
X484505Y-332740D02*
D03*
X474980Y-351790D02*
D03*
X455930Y-46990D02*
D03*
Y-85090D02*
D03*
Y-351790D02*
D03*
X436880Y-46990D02*
D03*
X446405Y-104140D02*
D03*
X436880Y-123190D02*
D03*
X446405Y-142240D02*
D03*
X436880Y-161290D02*
D03*
Y-199390D02*
D03*
Y-275590D02*
D03*
Y-313690D02*
D03*
Y-351790D02*
D03*
X427355Y-142240D02*
D03*
Y-180340D02*
D03*
Y-256540D02*
D03*
X417830Y-313690D02*
D03*
X427355Y-332740D02*
D03*
X417830Y-351790D02*
D03*
X398780Y-46990D02*
D03*
Y-85090D02*
D03*
Y-123190D02*
D03*
Y-161290D02*
D03*
Y-199390D02*
D03*
Y-237490D02*
D03*
X408305Y-294640D02*
D03*
X398780Y-313690D02*
D03*
X408305Y-332740D02*
D03*
X398780Y-351790D02*
D03*
X389255Y-66040D02*
D03*
Y-104140D02*
D03*
Y-142240D02*
D03*
X379730Y-161290D02*
D03*
X389255Y-180340D02*
D03*
X379730Y-199390D02*
D03*
Y-237490D02*
D03*
Y-313690D02*
D03*
Y-351790D02*
D03*
X370205Y-27940D02*
D03*
X360680Y-46990D02*
D03*
Y-199390D02*
D03*
Y-237490D02*
D03*
X370205Y-256540D02*
D03*
X360680Y-275590D02*
D03*
X370205Y-294640D02*
D03*
X360680Y-313690D02*
D03*
Y-351790D02*
D03*
X351155Y-27940D02*
D03*
X341630Y-46990D02*
D03*
X351155Y-66040D02*
D03*
X341630Y-85090D02*
D03*
X351155Y-142240D02*
D03*
X341630Y-199390D02*
D03*
X351155Y-218440D02*
D03*
Y-256540D02*
D03*
X341630Y-275590D02*
D03*
X351155Y-294640D02*
D03*
X341630Y-313690D02*
D03*
X351155Y-332740D02*
D03*
X341630Y-351790D02*
D03*
X332105Y-27940D02*
D03*
X322580Y-46990D02*
D03*
X332105Y-66040D02*
D03*
Y-218440D02*
D03*
Y-256540D02*
D03*
Y-294640D02*
D03*
X322580Y-313690D02*
D03*
X332105Y-332740D02*
D03*
X322580Y-351790D02*
D03*
X313055Y-27940D02*
D03*
X303530Y-46990D02*
D03*
Y-123190D02*
D03*
X313055Y-218440D02*
D03*
X303530Y-313690D02*
D03*
X313055Y-332740D02*
D03*
X303530Y-351790D02*
D03*
X294005Y-27940D02*
D03*
X284480Y-46990D02*
D03*
Y-85090D02*
D03*
Y-123190D02*
D03*
X294005Y-180340D02*
D03*
X284480Y-199390D02*
D03*
Y-237490D02*
D03*
X294005Y-256540D02*
D03*
X284480Y-275590D02*
D03*
Y-313690D02*
D03*
X294005Y-332740D02*
D03*
X284480Y-351790D02*
D03*
X274955Y-27940D02*
D03*
X265430Y-46990D02*
D03*
X274955Y-66040D02*
D03*
X265430Y-85090D02*
D03*
Y-123190D02*
D03*
X274955Y-180340D02*
D03*
X265430Y-199390D02*
D03*
X274955Y-218440D02*
D03*
Y-256540D02*
D03*
Y-294640D02*
D03*
X265430Y-313690D02*
D03*
X274955Y-332740D02*
D03*
X265430Y-351790D02*
D03*
X255905Y-27940D02*
D03*
X246380Y-46990D02*
D03*
X255905Y-66040D02*
D03*
X246380Y-85090D02*
D03*
Y-123190D02*
D03*
Y-161290D02*
D03*
X255905Y-180340D02*
D03*
X246380Y-199390D02*
D03*
X255905Y-218440D02*
D03*
X246380Y-237490D02*
D03*
Y-313690D02*
D03*
X255905Y-332740D02*
D03*
X246380Y-351790D02*
D03*
X236855Y-27940D02*
D03*
Y-66040D02*
D03*
Y-104140D02*
D03*
X227330Y-123190D02*
D03*
Y-161290D02*
D03*
X236855Y-218440D02*
D03*
X227330Y-237490D02*
D03*
X236855Y-256540D02*
D03*
X227330Y-313690D02*
D03*
X236855Y-332740D02*
D03*
X227330Y-351790D02*
D03*
X217805Y-27940D02*
D03*
X208280Y-46990D02*
D03*
Y-85090D02*
D03*
X217805Y-104140D02*
D03*
X208280Y-123190D02*
D03*
Y-161290D02*
D03*
X217805Y-180340D02*
D03*
X208280Y-199390D02*
D03*
X217805Y-218440D02*
D03*
X208280Y-237490D02*
D03*
X217805Y-256540D02*
D03*
X208280Y-275590D02*
D03*
X217805Y-294640D02*
D03*
X208280Y-313690D02*
D03*
X217805Y-332740D02*
D03*
X208280Y-351790D02*
D03*
X198755Y-27940D02*
D03*
X189230Y-46990D02*
D03*
X198755Y-104140D02*
D03*
X189230Y-123190D02*
D03*
Y-161290D02*
D03*
X198755Y-180340D02*
D03*
Y-256540D02*
D03*
Y-294640D02*
D03*
X189230Y-313690D02*
D03*
X198755Y-332740D02*
D03*
X189230Y-351790D02*
D03*
X179705Y-27940D02*
D03*
X170180Y-46990D02*
D03*
X179705Y-104140D02*
D03*
X170180Y-123190D02*
D03*
Y-161290D02*
D03*
Y-237490D02*
D03*
Y-275590D02*
D03*
X179705Y-294640D02*
D03*
X170180Y-313690D02*
D03*
X179705Y-332740D02*
D03*
X170180Y-351790D02*
D03*
X160655Y-27940D02*
D03*
X151130Y-46990D02*
D03*
X160655Y-104140D02*
D03*
X151130Y-123190D02*
D03*
Y-161290D02*
D03*
X160655Y-180340D02*
D03*
X151130Y-199390D02*
D03*
X160655Y-256540D02*
D03*
X151130Y-275590D02*
D03*
X160655Y-294640D02*
D03*
X151130Y-313690D02*
D03*
X160655Y-332740D02*
D03*
X151130Y-351790D02*
D03*
X141605Y-27940D02*
D03*
X132080Y-46990D02*
D03*
X141605Y-104140D02*
D03*
X132080Y-123190D02*
D03*
X141605Y-180340D02*
D03*
X132080Y-199390D02*
D03*
X141605Y-218440D02*
D03*
X132080Y-275590D02*
D03*
X141605Y-294640D02*
D03*
X132080Y-313690D02*
D03*
X141605Y-332740D02*
D03*
X132080Y-351790D02*
D03*
X122555Y-27940D02*
D03*
X113030Y-46990D02*
D03*
X122555Y-104140D02*
D03*
X113030Y-123190D02*
D03*
X122555Y-142240D02*
D03*
X113030Y-161290D02*
D03*
Y-199390D02*
D03*
X122555Y-218440D02*
D03*
X113030Y-237490D02*
D03*
Y-275590D02*
D03*
X122555Y-294640D02*
D03*
X113030Y-313690D02*
D03*
X122555Y-332740D02*
D03*
X113030Y-351790D02*
D03*
X103505Y-27940D02*
D03*
X93980Y-46990D02*
D03*
X103505Y-104140D02*
D03*
X93980Y-123190D02*
D03*
Y-161290D02*
D03*
Y-199390D02*
D03*
Y-237490D02*
D03*
Y-275590D02*
D03*
X103505Y-294640D02*
D03*
X93980Y-313690D02*
D03*
X103505Y-332740D02*
D03*
X93980Y-351790D02*
D03*
X84455Y-27940D02*
D03*
X74930Y-46990D02*
D03*
X84455Y-66040D02*
D03*
X74930Y-123190D02*
D03*
Y-161290D02*
D03*
Y-199390D02*
D03*
Y-237490D02*
D03*
Y-275590D02*
D03*
X84455Y-294640D02*
D03*
X74930Y-313690D02*
D03*
X84455Y-332740D02*
D03*
X74930Y-351790D02*
D03*
X65405Y-27940D02*
D03*
X55880Y-46990D02*
D03*
X65405Y-66040D02*
D03*
X55880Y-85090D02*
D03*
Y-123190D02*
D03*
Y-161290D02*
D03*
Y-199390D02*
D03*
Y-237490D02*
D03*
Y-275590D02*
D03*
X65405Y-294640D02*
D03*
X55880Y-313690D02*
D03*
X65405Y-332740D02*
D03*
X55880Y-351790D02*
D03*
X46355Y-27940D02*
D03*
X36830Y-46990D02*
D03*
X46355Y-66040D02*
D03*
X36830Y-85090D02*
D03*
X46355Y-104140D02*
D03*
X36830Y-123190D02*
D03*
Y-161290D02*
D03*
X46355Y-180340D02*
D03*
X36830Y-199390D02*
D03*
Y-237490D02*
D03*
X46355Y-256540D02*
D03*
X36830Y-275590D02*
D03*
X46355Y-294640D02*
D03*
X36830Y-313690D02*
D03*
X46355Y-332740D02*
D03*
X36830Y-351790D02*
D03*
X27305Y-27940D02*
D03*
X17780Y-46990D02*
D03*
X27305Y-66040D02*
D03*
X17780Y-85090D02*
D03*
X27305Y-104140D02*
D03*
X17780Y-123190D02*
D03*
X27305Y-142240D02*
D03*
X17780Y-161290D02*
D03*
X27305Y-180340D02*
D03*
X17780Y-199390D02*
D03*
X27305Y-218440D02*
D03*
X17780Y-237490D02*
D03*
X27305Y-256540D02*
D03*
X17780Y-275590D02*
D03*
X27305Y-294640D02*
D03*
X17780Y-313690D02*
D03*
X27305Y-332740D02*
D03*
X17780Y-351790D02*
D03*
X510540Y-210312D02*
D03*
D66*
X346964Y-239014D02*
D03*
X431800Y-221742D02*
D03*
X450850Y-154940D02*
D03*
D67*
X703580Y-62230D02*
D03*
M02*
