G04*
G04 #@! TF.GenerationSoftware,Altium Limited,Altium Designer,24.1.2 (44)*
G04*
G04 Layer_Color=2752767*
%FSLAX44Y44*%
%MOMM*%
G71*
G04*
G04 #@! TF.SameCoordinates,891499BE-5D65-45DE-B8A6-CBF03CD7CB3A*
G04*
G04*
G04 #@! TF.FilePolarity,Positive*
G04*
G01*
G75*
%ADD71C,0.1270*%
%ADD72C,0.1693*%
D71*
X948690Y-292100D02*
X953770Y-287020D01*
X958850Y-292100D01*
X953770Y-297180D01*
X948690Y-292100D01*
Y-215900D02*
X953770Y-210820D01*
X958850Y-215900D01*
X953770Y-220980D01*
X948690Y-215900D01*
X311150Y-299720D02*
X313690Y-297180D01*
X316230D01*
X313690Y-294640D01*
X316230Y-292100D01*
X313690D01*
X311150Y-289560D01*
X308610Y-292100D01*
X306070D01*
X308610Y-294640D01*
X306070Y-297180D01*
X308610D01*
X311150Y-299720D01*
X387350D02*
X389890Y-297180D01*
X392430D01*
X389890Y-294640D01*
X392430Y-292100D01*
X389890D01*
X387350Y-289560D01*
X384810Y-292100D01*
X382270D01*
X384810Y-294640D01*
X382270Y-297180D01*
X384810D01*
X387350Y-299720D01*
Y-274320D02*
X389890Y-271780D01*
X392430D01*
X389890Y-269240D01*
X392430Y-266700D01*
X389890D01*
X387350Y-264160D01*
X384810Y-266700D01*
X382270D01*
X384810Y-269240D01*
X382270Y-271780D01*
X384810D01*
X387350Y-274320D01*
X311150D02*
X313690Y-271780D01*
X316230D01*
X313690Y-269240D01*
X316230Y-266700D01*
X313690D01*
X311150Y-264160D01*
X308610Y-266700D01*
X306070D01*
X308610Y-269240D01*
X306070Y-271780D01*
X308610D01*
X311150Y-274320D01*
X833845Y-121549D02*
X836385D01*
X838925Y-119009D01*
X841465Y-121549D01*
X844005D01*
Y-119009D01*
X841465Y-116469D01*
X844005Y-113929D01*
Y-111389D01*
X841465D01*
X838925Y-113929D01*
X836385Y-111389D01*
X833845D01*
Y-113929D01*
X836385Y-116469D01*
X833845Y-119009D01*
Y-121549D01*
Y-96149D02*
X836385D01*
X838925Y-93609D01*
X841465Y-96149D01*
X844005D01*
Y-93609D01*
X841465Y-91069D01*
X844005Y-88529D01*
Y-85989D01*
X841465D01*
X838925Y-88529D01*
X836385Y-85989D01*
X833845D01*
Y-88529D01*
X836385Y-91069D01*
X833845Y-93609D01*
Y-96149D01*
Y-70749D02*
X836385D01*
X838925Y-68209D01*
X841465Y-70749D01*
X844005D01*
Y-68209D01*
X841465Y-65669D01*
X844005Y-63129D01*
Y-60589D01*
X841465D01*
X838925Y-63129D01*
X836385Y-60589D01*
X833845D01*
Y-63129D01*
X836385Y-65669D01*
X833845Y-68209D01*
Y-70749D01*
Y-45349D02*
X836385D01*
X838925Y-42809D01*
X841465Y-45349D01*
X844005D01*
Y-42809D01*
X841465Y-40269D01*
X844005Y-37729D01*
Y-35189D01*
X841465D01*
X838925Y-37729D01*
X836385Y-35189D01*
X833845D01*
Y-37729D01*
X836385Y-40269D01*
X833845Y-42809D01*
Y-45349D01*
X487680Y-66040D02*
Y-55880D01*
X497840D01*
Y-66040D01*
X487680D01*
X489712Y-64008D02*
Y-57912D01*
X495808D01*
Y-64008D01*
X489712D01*
X462280Y-66040D02*
Y-55880D01*
X472440D01*
Y-66040D01*
X462280D01*
X464312Y-64008D02*
Y-57912D01*
X470408D01*
Y-64008D01*
X464312D01*
X436880Y-66040D02*
Y-55880D01*
X447040D01*
Y-66040D01*
X436880D01*
X438912Y-64008D02*
Y-57912D01*
X445008D01*
Y-64008D01*
X438912D01*
X411480Y-66040D02*
Y-55880D01*
X421640D01*
Y-66040D01*
X411480D01*
X413512Y-64008D02*
Y-57912D01*
X419608D01*
Y-64008D01*
X413512D01*
X374650Y-98740D02*
X377190Y-96200D01*
X379730D01*
X377190Y-93659D01*
X379730Y-91119D01*
X377190D01*
X374650Y-88580D01*
X372110Y-91119D01*
X369570D01*
X372110Y-93659D01*
X369570Y-96200D01*
X372110D01*
X374650Y-98740D01*
Y-185741D02*
X377190Y-183200D01*
X379730D01*
X377190Y-180660D01*
X379730Y-178120D01*
X377190D01*
X374650Y-175581D01*
X372110Y-178120D01*
X369570D01*
X372110Y-180660D01*
X369570Y-183200D01*
X372110D01*
X374650Y-185741D01*
X713740Y-284373D02*
Y-274213D01*
X723900D01*
Y-284373D01*
X713740D01*
Y-319374D02*
Y-309214D01*
X723900D01*
Y-319374D01*
X713740D01*
X806951Y-284759D02*
Y-274599D01*
X817111D01*
Y-284759D01*
X806951D01*
Y-319761D02*
Y-309601D01*
X817111D01*
Y-319761D01*
X806951D01*
X186811Y-80975D02*
X181731Y-70815D01*
X191891D01*
X186811Y-80975D01*
X328810Y-140970D02*
X323730Y-130810D01*
X333890D01*
X328810Y-140970D01*
X308810Y-200970D02*
X303730Y-190810D01*
X313890D01*
X308810Y-200970D01*
Y-80970D02*
X303730Y-70810D01*
X313890D01*
X308810Y-80970D01*
X186810Y-200965D02*
X181730Y-190805D01*
X191890D01*
X186810Y-200965D01*
X254000Y-283210D02*
X256540Y-278130D01*
X254000Y-273050D01*
X259080Y-275590D01*
X264160Y-273050D01*
X261620Y-278130D01*
X264160Y-283210D01*
X259080Y-280670D01*
X254000Y-283210D01*
X241300D02*
X243840Y-278130D01*
X241300Y-273050D01*
X246380Y-275590D01*
X251460Y-273050D01*
X248920Y-278130D01*
X251460Y-283210D01*
X246380Y-280670D01*
X241300Y-283210D01*
X228600D02*
X231140Y-278130D01*
X228600Y-273050D01*
X233680Y-275590D01*
X238760Y-273050D01*
X236220Y-278130D01*
X238760Y-283210D01*
X233680Y-280670D01*
X228600Y-283210D01*
X1072515Y-30480D02*
Y-33020D01*
X1077595D01*
Y-30480D01*
X1080135D01*
Y-25400D01*
X1077595D01*
Y-22860D01*
X1072515D01*
Y-25400D01*
X1069975D01*
Y-30480D01*
X1072515D01*
X1062990Y-49530D02*
Y-52070D01*
X1068070D01*
Y-49530D01*
X1070610D01*
Y-44450D01*
X1068070D01*
Y-41910D01*
X1062990D01*
Y-44450D01*
X1060450D01*
Y-49530D01*
X1062990D01*
X1072515Y-68580D02*
Y-71120D01*
X1077595D01*
Y-68580D01*
X1080135D01*
Y-63500D01*
X1077595D01*
Y-60960D01*
X1072515D01*
Y-63500D01*
X1069975D01*
Y-68580D01*
X1072515D01*
X1062990Y-87630D02*
Y-90170D01*
X1068070D01*
Y-87630D01*
X1070610D01*
Y-82550D01*
X1068070D01*
Y-80010D01*
X1062990D01*
Y-82550D01*
X1060450D01*
Y-87630D01*
X1062990D01*
X1072515Y-106680D02*
Y-109220D01*
X1077595D01*
Y-106680D01*
X1080135D01*
Y-101600D01*
X1077595D01*
Y-99060D01*
X1072515D01*
Y-101600D01*
X1069975D01*
Y-106680D01*
X1072515D01*
X1062990Y-125730D02*
Y-128270D01*
X1068070D01*
Y-125730D01*
X1070610D01*
Y-120650D01*
X1068070D01*
Y-118110D01*
X1062990D01*
Y-120650D01*
X1060450D01*
Y-125730D01*
X1062990D01*
X1072515Y-144780D02*
Y-147320D01*
X1077595D01*
Y-144780D01*
X1080135D01*
Y-139700D01*
X1077595D01*
Y-137160D01*
X1072515D01*
Y-139700D01*
X1069975D01*
Y-144780D01*
X1072515D01*
X1062990Y-163830D02*
Y-166370D01*
X1068070D01*
Y-163830D01*
X1070610D01*
Y-158750D01*
X1068070D01*
Y-156210D01*
X1062990D01*
Y-158750D01*
X1060450D01*
Y-163830D01*
X1062990D01*
X1072515Y-182880D02*
Y-185420D01*
X1077595D01*
Y-182880D01*
X1080135D01*
Y-177800D01*
X1077595D01*
Y-175260D01*
X1072515D01*
Y-177800D01*
X1069975D01*
Y-182880D01*
X1072515D01*
X1062990Y-201930D02*
Y-204470D01*
X1068070D01*
Y-201930D01*
X1070610D01*
Y-196850D01*
X1068070D01*
Y-194310D01*
X1062990D01*
Y-196850D01*
X1060450D01*
Y-201930D01*
X1062990D01*
X1072515Y-220980D02*
Y-223520D01*
X1077595D01*
Y-220980D01*
X1080135D01*
Y-215900D01*
X1077595D01*
Y-213360D01*
X1072515D01*
Y-215900D01*
X1069975D01*
Y-220980D01*
X1072515D01*
X1062990Y-240030D02*
Y-242570D01*
X1068070D01*
Y-240030D01*
X1070610D01*
Y-234950D01*
X1068070D01*
Y-232410D01*
X1062990D01*
Y-234950D01*
X1060450D01*
Y-240030D01*
X1062990D01*
X1072515Y-259080D02*
Y-261620D01*
X1077595D01*
Y-259080D01*
X1080135D01*
Y-254000D01*
X1077595D01*
Y-251460D01*
X1072515D01*
Y-254000D01*
X1069975D01*
Y-259080D01*
X1072515D01*
X1062990Y-278130D02*
Y-280670D01*
X1068070D01*
Y-278130D01*
X1070610D01*
Y-273050D01*
X1068070D01*
Y-270510D01*
X1062990D01*
Y-273050D01*
X1060450D01*
Y-278130D01*
X1062990D01*
X1072515Y-297180D02*
Y-299720D01*
X1077595D01*
Y-297180D01*
X1080135D01*
Y-292100D01*
X1077595D01*
Y-289560D01*
X1072515D01*
Y-292100D01*
X1069975D01*
Y-297180D01*
X1072515D01*
X1062990Y-316230D02*
Y-318770D01*
X1068070D01*
Y-316230D01*
X1070610D01*
Y-311150D01*
X1068070D01*
Y-308610D01*
X1062990D01*
Y-311150D01*
X1060450D01*
Y-316230D01*
X1062990D01*
X1072515Y-335280D02*
Y-337820D01*
X1077595D01*
Y-335280D01*
X1080135D01*
Y-330200D01*
X1077595D01*
Y-327660D01*
X1072515D01*
Y-330200D01*
X1069975D01*
Y-335280D01*
X1072515D01*
X1062990Y-354330D02*
Y-356870D01*
X1068070D01*
Y-354330D01*
X1070610D01*
Y-349250D01*
X1068070D01*
Y-346710D01*
X1062990D01*
Y-349250D01*
X1060450D01*
Y-354330D01*
X1062990D01*
X1053465Y-30480D02*
Y-33020D01*
X1058545D01*
Y-30480D01*
X1061085D01*
Y-25400D01*
X1058545D01*
Y-22860D01*
X1053465D01*
Y-25400D01*
X1050925D01*
Y-30480D01*
X1053465D01*
X1043940Y-49530D02*
Y-52070D01*
X1049020D01*
Y-49530D01*
X1051560D01*
Y-44450D01*
X1049020D01*
Y-41910D01*
X1043940D01*
Y-44450D01*
X1041400D01*
Y-49530D01*
X1043940D01*
X1053465Y-68580D02*
Y-71120D01*
X1058545D01*
Y-68580D01*
X1061085D01*
Y-63500D01*
X1058545D01*
Y-60960D01*
X1053465D01*
Y-63500D01*
X1050925D01*
Y-68580D01*
X1053465D01*
X1043940Y-87630D02*
Y-90170D01*
X1049020D01*
Y-87630D01*
X1051560D01*
Y-82550D01*
X1049020D01*
Y-80010D01*
X1043940D01*
Y-82550D01*
X1041400D01*
Y-87630D01*
X1043940D01*
X1053465Y-106680D02*
Y-109220D01*
X1058545D01*
Y-106680D01*
X1061085D01*
Y-101600D01*
X1058545D01*
Y-99060D01*
X1053465D01*
Y-101600D01*
X1050925D01*
Y-106680D01*
X1053465D01*
X1043940Y-125730D02*
Y-128270D01*
X1049020D01*
Y-125730D01*
X1051560D01*
Y-120650D01*
X1049020D01*
Y-118110D01*
X1043940D01*
Y-120650D01*
X1041400D01*
Y-125730D01*
X1043940D01*
X1053465Y-144780D02*
Y-147320D01*
X1058545D01*
Y-144780D01*
X1061085D01*
Y-139700D01*
X1058545D01*
Y-137160D01*
X1053465D01*
Y-139700D01*
X1050925D01*
Y-144780D01*
X1053465D01*
X1043940Y-163830D02*
Y-166370D01*
X1049020D01*
Y-163830D01*
X1051560D01*
Y-158750D01*
X1049020D01*
Y-156210D01*
X1043940D01*
Y-158750D01*
X1041400D01*
Y-163830D01*
X1043940D01*
X1053465Y-182880D02*
Y-185420D01*
X1058545D01*
Y-182880D01*
X1061085D01*
Y-177800D01*
X1058545D01*
Y-175260D01*
X1053465D01*
Y-177800D01*
X1050925D01*
Y-182880D01*
X1053465D01*
X1043940Y-201930D02*
Y-204470D01*
X1049020D01*
Y-201930D01*
X1051560D01*
Y-196850D01*
X1049020D01*
Y-194310D01*
X1043940D01*
Y-196850D01*
X1041400D01*
Y-201930D01*
X1043940D01*
X1053465Y-220980D02*
Y-223520D01*
X1058545D01*
Y-220980D01*
X1061085D01*
Y-215900D01*
X1058545D01*
Y-213360D01*
X1053465D01*
Y-215900D01*
X1050925D01*
Y-220980D01*
X1053465D01*
X1043940Y-240030D02*
Y-242570D01*
X1049020D01*
Y-240030D01*
X1051560D01*
Y-234950D01*
X1049020D01*
Y-232410D01*
X1043940D01*
Y-234950D01*
X1041400D01*
Y-240030D01*
X1043940D01*
X1053465Y-259080D02*
Y-261620D01*
X1058545D01*
Y-259080D01*
X1061085D01*
Y-254000D01*
X1058545D01*
Y-251460D01*
X1053465D01*
Y-254000D01*
X1050925D01*
Y-259080D01*
X1053465D01*
X1043940Y-278130D02*
Y-280670D01*
X1049020D01*
Y-278130D01*
X1051560D01*
Y-273050D01*
X1049020D01*
Y-270510D01*
X1043940D01*
Y-273050D01*
X1041400D01*
Y-278130D01*
X1043940D01*
X1053465Y-297180D02*
Y-299720D01*
X1058545D01*
Y-297180D01*
X1061085D01*
Y-292100D01*
X1058545D01*
Y-289560D01*
X1053465D01*
Y-292100D01*
X1050925D01*
Y-297180D01*
X1053465D01*
X1043940Y-316230D02*
Y-318770D01*
X1049020D01*
Y-316230D01*
X1051560D01*
Y-311150D01*
X1049020D01*
Y-308610D01*
X1043940D01*
Y-311150D01*
X1041400D01*
Y-316230D01*
X1043940D01*
X1053465Y-335280D02*
Y-337820D01*
X1058545D01*
Y-335280D01*
X1061085D01*
Y-330200D01*
X1058545D01*
Y-327660D01*
X1053465D01*
Y-330200D01*
X1050925D01*
Y-335280D01*
X1053465D01*
X1043940Y-354330D02*
Y-356870D01*
X1049020D01*
Y-354330D01*
X1051560D01*
Y-349250D01*
X1049020D01*
Y-346710D01*
X1043940D01*
Y-349250D01*
X1041400D01*
Y-354330D01*
X1043940D01*
X1034415Y-30480D02*
Y-33020D01*
X1039495D01*
Y-30480D01*
X1042035D01*
Y-25400D01*
X1039495D01*
Y-22860D01*
X1034415D01*
Y-25400D01*
X1031875D01*
Y-30480D01*
X1034415D01*
X1024890Y-49530D02*
Y-52070D01*
X1029970D01*
Y-49530D01*
X1032510D01*
Y-44450D01*
X1029970D01*
Y-41910D01*
X1024890D01*
Y-44450D01*
X1022350D01*
Y-49530D01*
X1024890D01*
X1034415Y-68580D02*
Y-71120D01*
X1039495D01*
Y-68580D01*
X1042035D01*
Y-63500D01*
X1039495D01*
Y-60960D01*
X1034415D01*
Y-63500D01*
X1031875D01*
Y-68580D01*
X1034415D01*
X1024890Y-87630D02*
Y-90170D01*
X1029970D01*
Y-87630D01*
X1032510D01*
Y-82550D01*
X1029970D01*
Y-80010D01*
X1024890D01*
Y-82550D01*
X1022350D01*
Y-87630D01*
X1024890D01*
X1034415Y-106680D02*
Y-109220D01*
X1039495D01*
Y-106680D01*
X1042035D01*
Y-101600D01*
X1039495D01*
Y-99060D01*
X1034415D01*
Y-101600D01*
X1031875D01*
Y-106680D01*
X1034415D01*
X1024890Y-125730D02*
Y-128270D01*
X1029970D01*
Y-125730D01*
X1032510D01*
Y-120650D01*
X1029970D01*
Y-118110D01*
X1024890D01*
Y-120650D01*
X1022350D01*
Y-125730D01*
X1024890D01*
X1034415Y-144780D02*
Y-147320D01*
X1039495D01*
Y-144780D01*
X1042035D01*
Y-139700D01*
X1039495D01*
Y-137160D01*
X1034415D01*
Y-139700D01*
X1031875D01*
Y-144780D01*
X1034415D01*
X1024890Y-163830D02*
Y-166370D01*
X1029970D01*
Y-163830D01*
X1032510D01*
Y-158750D01*
X1029970D01*
Y-156210D01*
X1024890D01*
Y-158750D01*
X1022350D01*
Y-163830D01*
X1024890D01*
X1034415Y-182880D02*
Y-185420D01*
X1039495D01*
Y-182880D01*
X1042035D01*
Y-177800D01*
X1039495D01*
Y-175260D01*
X1034415D01*
Y-177800D01*
X1031875D01*
Y-182880D01*
X1034415D01*
X1024890Y-201930D02*
Y-204470D01*
X1029970D01*
Y-201930D01*
X1032510D01*
Y-196850D01*
X1029970D01*
Y-194310D01*
X1024890D01*
Y-196850D01*
X1022350D01*
Y-201930D01*
X1024890D01*
X1034415Y-220980D02*
Y-223520D01*
X1039495D01*
Y-220980D01*
X1042035D01*
Y-215900D01*
X1039495D01*
Y-213360D01*
X1034415D01*
Y-215900D01*
X1031875D01*
Y-220980D01*
X1034415D01*
X1024890Y-240030D02*
Y-242570D01*
X1029970D01*
Y-240030D01*
X1032510D01*
Y-234950D01*
X1029970D01*
Y-232410D01*
X1024890D01*
Y-234950D01*
X1022350D01*
Y-240030D01*
X1024890D01*
X1034415Y-259080D02*
Y-261620D01*
X1039495D01*
Y-259080D01*
X1042035D01*
Y-254000D01*
X1039495D01*
Y-251460D01*
X1034415D01*
Y-254000D01*
X1031875D01*
Y-259080D01*
X1034415D01*
X1024890Y-278130D02*
Y-280670D01*
X1029970D01*
Y-278130D01*
X1032510D01*
Y-273050D01*
X1029970D01*
Y-270510D01*
X1024890D01*
Y-273050D01*
X1022350D01*
Y-278130D01*
X1024890D01*
X1034415Y-297180D02*
Y-299720D01*
X1039495D01*
Y-297180D01*
X1042035D01*
Y-292100D01*
X1039495D01*
Y-289560D01*
X1034415D01*
Y-292100D01*
X1031875D01*
Y-297180D01*
X1034415D01*
X1024890Y-316230D02*
Y-318770D01*
X1029970D01*
Y-316230D01*
X1032510D01*
Y-311150D01*
X1029970D01*
Y-308610D01*
X1024890D01*
Y-311150D01*
X1022350D01*
Y-316230D01*
X1024890D01*
X1034415Y-335280D02*
Y-337820D01*
X1039495D01*
Y-335280D01*
X1042035D01*
Y-330200D01*
X1039495D01*
Y-327660D01*
X1034415D01*
Y-330200D01*
X1031875D01*
Y-335280D01*
X1034415D01*
X1024890Y-354330D02*
Y-356870D01*
X1029970D01*
Y-354330D01*
X1032510D01*
Y-349250D01*
X1029970D01*
Y-346710D01*
X1024890D01*
Y-349250D01*
X1022350D01*
Y-354330D01*
X1024890D01*
X1015365Y-30480D02*
Y-33020D01*
X1020445D01*
Y-30480D01*
X1022985D01*
Y-25400D01*
X1020445D01*
Y-22860D01*
X1015365D01*
Y-25400D01*
X1012825D01*
Y-30480D01*
X1015365D01*
X1005840Y-49530D02*
Y-52070D01*
X1010920D01*
Y-49530D01*
X1013460D01*
Y-44450D01*
X1010920D01*
Y-41910D01*
X1005840D01*
Y-44450D01*
X1003300D01*
Y-49530D01*
X1005840D01*
X1015365Y-68580D02*
Y-71120D01*
X1020445D01*
Y-68580D01*
X1022985D01*
Y-63500D01*
X1020445D01*
Y-60960D01*
X1015365D01*
Y-63500D01*
X1012825D01*
Y-68580D01*
X1015365D01*
X1005840Y-87630D02*
Y-90170D01*
X1010920D01*
Y-87630D01*
X1013460D01*
Y-82550D01*
X1010920D01*
Y-80010D01*
X1005840D01*
Y-82550D01*
X1003300D01*
Y-87630D01*
X1005840D01*
X1015365Y-106680D02*
Y-109220D01*
X1020445D01*
Y-106680D01*
X1022985D01*
Y-101600D01*
X1020445D01*
Y-99060D01*
X1015365D01*
Y-101600D01*
X1012825D01*
Y-106680D01*
X1015365D01*
X1005840Y-125730D02*
Y-128270D01*
X1010920D01*
Y-125730D01*
X1013460D01*
Y-120650D01*
X1010920D01*
Y-118110D01*
X1005840D01*
Y-120650D01*
X1003300D01*
Y-125730D01*
X1005840D01*
X1015365Y-144780D02*
Y-147320D01*
X1020445D01*
Y-144780D01*
X1022985D01*
Y-139700D01*
X1020445D01*
Y-137160D01*
X1015365D01*
Y-139700D01*
X1012825D01*
Y-144780D01*
X1015365D01*
X1005840Y-163830D02*
Y-166370D01*
X1010920D01*
Y-163830D01*
X1013460D01*
Y-158750D01*
X1010920D01*
Y-156210D01*
X1005840D01*
Y-158750D01*
X1003300D01*
Y-163830D01*
X1005840D01*
X1015365Y-182880D02*
Y-185420D01*
X1020445D01*
Y-182880D01*
X1022985D01*
Y-177800D01*
X1020445D01*
Y-175260D01*
X1015365D01*
Y-177800D01*
X1012825D01*
Y-182880D01*
X1015365D01*
X1005840Y-201930D02*
Y-204470D01*
X1010920D01*
Y-201930D01*
X1013460D01*
Y-196850D01*
X1010920D01*
Y-194310D01*
X1005840D01*
Y-196850D01*
X1003300D01*
Y-201930D01*
X1005840D01*
X1015365Y-220980D02*
Y-223520D01*
X1020445D01*
Y-220980D01*
X1022985D01*
Y-215900D01*
X1020445D01*
Y-213360D01*
X1015365D01*
Y-215900D01*
X1012825D01*
Y-220980D01*
X1015365D01*
X1005840Y-240030D02*
Y-242570D01*
X1010920D01*
Y-240030D01*
X1013460D01*
Y-234950D01*
X1010920D01*
Y-232410D01*
X1005840D01*
Y-234950D01*
X1003300D01*
Y-240030D01*
X1005840D01*
X1015365Y-259080D02*
Y-261620D01*
X1020445D01*
Y-259080D01*
X1022985D01*
Y-254000D01*
X1020445D01*
Y-251460D01*
X1015365D01*
Y-254000D01*
X1012825D01*
Y-259080D01*
X1015365D01*
X1005840Y-278130D02*
Y-280670D01*
X1010920D01*
Y-278130D01*
X1013460D01*
Y-273050D01*
X1010920D01*
Y-270510D01*
X1005840D01*
Y-273050D01*
X1003300D01*
Y-278130D01*
X1005840D01*
X1015365Y-297180D02*
Y-299720D01*
X1020445D01*
Y-297180D01*
X1022985D01*
Y-292100D01*
X1020445D01*
Y-289560D01*
X1015365D01*
Y-292100D01*
X1012825D01*
Y-297180D01*
X1015365D01*
X1005840Y-316230D02*
Y-318770D01*
X1010920D01*
Y-316230D01*
X1013460D01*
Y-311150D01*
X1010920D01*
Y-308610D01*
X1005840D01*
Y-311150D01*
X1003300D01*
Y-316230D01*
X1005840D01*
X1015365Y-335280D02*
Y-337820D01*
X1020445D01*
Y-335280D01*
X1022985D01*
Y-330200D01*
X1020445D01*
Y-327660D01*
X1015365D01*
Y-330200D01*
X1012825D01*
Y-335280D01*
X1015365D01*
X1005840Y-354330D02*
Y-356870D01*
X1010920D01*
Y-354330D01*
X1013460D01*
Y-349250D01*
X1010920D01*
Y-346710D01*
X1005840D01*
Y-349250D01*
X1003300D01*
Y-354330D01*
X1005840D01*
X996315Y-30480D02*
Y-33020D01*
X1001395D01*
Y-30480D01*
X1003935D01*
Y-25400D01*
X1001395D01*
Y-22860D01*
X996315D01*
Y-25400D01*
X993775D01*
Y-30480D01*
X996315D01*
X986790Y-49530D02*
Y-52070D01*
X991870D01*
Y-49530D01*
X994410D01*
Y-44450D01*
X991870D01*
Y-41910D01*
X986790D01*
Y-44450D01*
X984250D01*
Y-49530D01*
X986790D01*
X996315Y-68580D02*
Y-71120D01*
X1001395D01*
Y-68580D01*
X1003935D01*
Y-63500D01*
X1001395D01*
Y-60960D01*
X996315D01*
Y-63500D01*
X993775D01*
Y-68580D01*
X996315D01*
X986790Y-87630D02*
Y-90170D01*
X991870D01*
Y-87630D01*
X994410D01*
Y-82550D01*
X991870D01*
Y-80010D01*
X986790D01*
Y-82550D01*
X984250D01*
Y-87630D01*
X986790D01*
X996315Y-106680D02*
Y-109220D01*
X1001395D01*
Y-106680D01*
X1003935D01*
Y-101600D01*
X1001395D01*
Y-99060D01*
X996315D01*
Y-101600D01*
X993775D01*
Y-106680D01*
X996315D01*
X986790Y-125730D02*
Y-128270D01*
X991870D01*
Y-125730D01*
X994410D01*
Y-120650D01*
X991870D01*
Y-118110D01*
X986790D01*
Y-120650D01*
X984250D01*
Y-125730D01*
X986790D01*
X996315Y-144780D02*
Y-147320D01*
X1001395D01*
Y-144780D01*
X1003935D01*
Y-139700D01*
X1001395D01*
Y-137160D01*
X996315D01*
Y-139700D01*
X993775D01*
Y-144780D01*
X996315D01*
X986790Y-163830D02*
Y-166370D01*
X991870D01*
Y-163830D01*
X994410D01*
Y-158750D01*
X991870D01*
Y-156210D01*
X986790D01*
Y-158750D01*
X984250D01*
Y-163830D01*
X986790D01*
X996315Y-182880D02*
Y-185420D01*
X1001395D01*
Y-182880D01*
X1003935D01*
Y-177800D01*
X1001395D01*
Y-175260D01*
X996315D01*
Y-177800D01*
X993775D01*
Y-182880D01*
X996315D01*
X986790Y-201930D02*
Y-204470D01*
X991870D01*
Y-201930D01*
X994410D01*
Y-196850D01*
X991870D01*
Y-194310D01*
X986790D01*
Y-196850D01*
X984250D01*
Y-201930D01*
X986790D01*
X996315Y-220980D02*
Y-223520D01*
X1001395D01*
Y-220980D01*
X1003935D01*
Y-215900D01*
X1001395D01*
Y-213360D01*
X996315D01*
Y-215900D01*
X993775D01*
Y-220980D01*
X996315D01*
X986790Y-240030D02*
Y-242570D01*
X991870D01*
Y-240030D01*
X994410D01*
Y-234950D01*
X991870D01*
Y-232410D01*
X986790D01*
Y-234950D01*
X984250D01*
Y-240030D01*
X986790D01*
X996315Y-259080D02*
Y-261620D01*
X1001395D01*
Y-259080D01*
X1003935D01*
Y-254000D01*
X1001395D01*
Y-251460D01*
X996315D01*
Y-254000D01*
X993775D01*
Y-259080D01*
X996315D01*
X986790Y-278130D02*
Y-280670D01*
X991870D01*
Y-278130D01*
X994410D01*
Y-273050D01*
X991870D01*
Y-270510D01*
X986790D01*
Y-273050D01*
X984250D01*
Y-278130D01*
X986790D01*
X996315Y-297180D02*
Y-299720D01*
X1001395D01*
Y-297180D01*
X1003935D01*
Y-292100D01*
X1001395D01*
Y-289560D01*
X996315D01*
Y-292100D01*
X993775D01*
Y-297180D01*
X996315D01*
X986790Y-316230D02*
Y-318770D01*
X991870D01*
Y-316230D01*
X994410D01*
Y-311150D01*
X991870D01*
Y-308610D01*
X986790D01*
Y-311150D01*
X984250D01*
Y-316230D01*
X986790D01*
X996315Y-335280D02*
Y-337820D01*
X1001395D01*
Y-335280D01*
X1003935D01*
Y-330200D01*
X1001395D01*
Y-327660D01*
X996315D01*
Y-330200D01*
X993775D01*
Y-335280D01*
X996315D01*
X986790Y-354330D02*
Y-356870D01*
X991870D01*
Y-354330D01*
X994410D01*
Y-349250D01*
X991870D01*
Y-346710D01*
X986790D01*
Y-349250D01*
X984250D01*
Y-354330D01*
X986790D01*
X977265Y-30480D02*
Y-33020D01*
X982345D01*
Y-30480D01*
X984885D01*
Y-25400D01*
X982345D01*
Y-22860D01*
X977265D01*
Y-25400D01*
X974725D01*
Y-30480D01*
X977265D01*
X967740Y-49530D02*
Y-52070D01*
X972820D01*
Y-49530D01*
X975360D01*
Y-44450D01*
X972820D01*
Y-41910D01*
X967740D01*
Y-44450D01*
X965200D01*
Y-49530D01*
X967740D01*
X977265Y-68580D02*
Y-71120D01*
X982345D01*
Y-68580D01*
X984885D01*
Y-63500D01*
X982345D01*
Y-60960D01*
X977265D01*
Y-63500D01*
X974725D01*
Y-68580D01*
X977265D01*
X967740Y-87630D02*
Y-90170D01*
X972820D01*
Y-87630D01*
X975360D01*
Y-82550D01*
X972820D01*
Y-80010D01*
X967740D01*
Y-82550D01*
X965200D01*
Y-87630D01*
X967740D01*
X977265Y-106680D02*
Y-109220D01*
X982345D01*
Y-106680D01*
X984885D01*
Y-101600D01*
X982345D01*
Y-99060D01*
X977265D01*
Y-101600D01*
X974725D01*
Y-106680D01*
X977265D01*
X967740Y-125730D02*
Y-128270D01*
X972820D01*
Y-125730D01*
X975360D01*
Y-120650D01*
X972820D01*
Y-118110D01*
X967740D01*
Y-120650D01*
X965200D01*
Y-125730D01*
X967740D01*
X977265Y-144780D02*
Y-147320D01*
X982345D01*
Y-144780D01*
X984885D01*
Y-139700D01*
X982345D01*
Y-137160D01*
X977265D01*
Y-139700D01*
X974725D01*
Y-144780D01*
X977265D01*
X967740Y-163830D02*
Y-166370D01*
X972820D01*
Y-163830D01*
X975360D01*
Y-158750D01*
X972820D01*
Y-156210D01*
X967740D01*
Y-158750D01*
X965200D01*
Y-163830D01*
X967740D01*
X977265Y-182880D02*
Y-185420D01*
X982345D01*
Y-182880D01*
X984885D01*
Y-177800D01*
X982345D01*
Y-175260D01*
X977265D01*
Y-177800D01*
X974725D01*
Y-182880D01*
X977265D01*
X967740Y-201930D02*
Y-204470D01*
X972820D01*
Y-201930D01*
X975360D01*
Y-196850D01*
X972820D01*
Y-194310D01*
X967740D01*
Y-196850D01*
X965200D01*
Y-201930D01*
X967740D01*
X977265Y-220980D02*
Y-223520D01*
X982345D01*
Y-220980D01*
X984885D01*
Y-215900D01*
X982345D01*
Y-213360D01*
X977265D01*
Y-215900D01*
X974725D01*
Y-220980D01*
X977265D01*
X967740Y-240030D02*
Y-242570D01*
X972820D01*
Y-240030D01*
X975360D01*
Y-234950D01*
X972820D01*
Y-232410D01*
X967740D01*
Y-234950D01*
X965200D01*
Y-240030D01*
X967740D01*
X977265Y-259080D02*
Y-261620D01*
X982345D01*
Y-259080D01*
X984885D01*
Y-254000D01*
X982345D01*
Y-251460D01*
X977265D01*
Y-254000D01*
X974725D01*
Y-259080D01*
X977265D01*
Y-297180D02*
Y-299720D01*
X982345D01*
Y-297180D01*
X984885D01*
Y-292100D01*
X982345D01*
Y-289560D01*
X977265D01*
Y-292100D01*
X974725D01*
Y-297180D01*
X977265D01*
X967740Y-316230D02*
Y-318770D01*
X972820D01*
Y-316230D01*
X975360D01*
Y-311150D01*
X972820D01*
Y-308610D01*
X967740D01*
Y-311150D01*
X965200D01*
Y-316230D01*
X967740D01*
X977265Y-335280D02*
Y-337820D01*
X982345D01*
Y-335280D01*
X984885D01*
Y-330200D01*
X982345D01*
Y-327660D01*
X977265D01*
Y-330200D01*
X974725D01*
Y-335280D01*
X977265D01*
X967740Y-354330D02*
Y-356870D01*
X972820D01*
Y-354330D01*
X975360D01*
Y-349250D01*
X972820D01*
Y-346710D01*
X967740D01*
Y-349250D01*
X965200D01*
Y-354330D01*
X967740D01*
X958215Y-30480D02*
Y-33020D01*
X963295D01*
Y-30480D01*
X965835D01*
Y-25400D01*
X963295D01*
Y-22860D01*
X958215D01*
Y-25400D01*
X955675D01*
Y-30480D01*
X958215D01*
X948690Y-49530D02*
Y-52070D01*
X953770D01*
Y-49530D01*
X956310D01*
Y-44450D01*
X953770D01*
Y-41910D01*
X948690D01*
Y-44450D01*
X946150D01*
Y-49530D01*
X948690D01*
X958215Y-68580D02*
Y-71120D01*
X963295D01*
Y-68580D01*
X965835D01*
Y-63500D01*
X963295D01*
Y-60960D01*
X958215D01*
Y-63500D01*
X955675D01*
Y-68580D01*
X958215D01*
X948690Y-87630D02*
Y-90170D01*
X953770D01*
Y-87630D01*
X956310D01*
Y-82550D01*
X953770D01*
Y-80010D01*
X948690D01*
Y-82550D01*
X946150D01*
Y-87630D01*
X948690D01*
X958215Y-106680D02*
Y-109220D01*
X963295D01*
Y-106680D01*
X965835D01*
Y-101600D01*
X963295D01*
Y-99060D01*
X958215D01*
Y-101600D01*
X955675D01*
Y-106680D01*
X958215D01*
X948690Y-125730D02*
Y-128270D01*
X953770D01*
Y-125730D01*
X956310D01*
Y-120650D01*
X953770D01*
Y-118110D01*
X948690D01*
Y-120650D01*
X946150D01*
Y-125730D01*
X948690D01*
X958215Y-144780D02*
Y-147320D01*
X963295D01*
Y-144780D01*
X965835D01*
Y-139700D01*
X963295D01*
Y-137160D01*
X958215D01*
Y-139700D01*
X955675D01*
Y-144780D01*
X958215D01*
X948690Y-163830D02*
Y-166370D01*
X953770D01*
Y-163830D01*
X956310D01*
Y-158750D01*
X953770D01*
Y-156210D01*
X948690D01*
Y-158750D01*
X946150D01*
Y-163830D01*
X948690D01*
X958215Y-182880D02*
Y-185420D01*
X963295D01*
Y-182880D01*
X965835D01*
Y-177800D01*
X963295D01*
Y-175260D01*
X958215D01*
Y-177800D01*
X955675D01*
Y-182880D01*
X958215D01*
X948690Y-240030D02*
Y-242570D01*
X953770D01*
Y-240030D01*
X956310D01*
Y-234950D01*
X953770D01*
Y-232410D01*
X948690D01*
Y-234950D01*
X946150D01*
Y-240030D01*
X948690D01*
X958215Y-259080D02*
Y-261620D01*
X963295D01*
Y-259080D01*
X965835D01*
Y-254000D01*
X963295D01*
Y-251460D01*
X958215D01*
Y-254000D01*
X955675D01*
Y-259080D01*
X958215D01*
Y-335280D02*
Y-337820D01*
X963295D01*
Y-335280D01*
X965835D01*
Y-330200D01*
X963295D01*
Y-327660D01*
X958215D01*
Y-330200D01*
X955675D01*
Y-335280D01*
X958215D01*
X948690Y-354330D02*
Y-356870D01*
X953770D01*
Y-354330D01*
X956310D01*
Y-349250D01*
X953770D01*
Y-346710D01*
X948690D01*
Y-349250D01*
X946150D01*
Y-354330D01*
X948690D01*
X939165Y-30480D02*
Y-33020D01*
X944245D01*
Y-30480D01*
X946785D01*
Y-25400D01*
X944245D01*
Y-22860D01*
X939165D01*
Y-25400D01*
X936625D01*
Y-30480D01*
X939165D01*
X929640Y-49530D02*
Y-52070D01*
X934720D01*
Y-49530D01*
X937260D01*
Y-44450D01*
X934720D01*
Y-41910D01*
X929640D01*
Y-44450D01*
X927100D01*
Y-49530D01*
X929640D01*
X939165Y-68580D02*
Y-71120D01*
X944245D01*
Y-68580D01*
X946785D01*
Y-63500D01*
X944245D01*
Y-60960D01*
X939165D01*
Y-63500D01*
X936625D01*
Y-68580D01*
X939165D01*
X929640Y-87630D02*
Y-90170D01*
X934720D01*
Y-87630D01*
X937260D01*
Y-82550D01*
X934720D01*
Y-80010D01*
X929640D01*
Y-82550D01*
X927100D01*
Y-87630D01*
X929640D01*
X939165Y-106680D02*
Y-109220D01*
X944245D01*
Y-106680D01*
X946785D01*
Y-101600D01*
X944245D01*
Y-99060D01*
X939165D01*
Y-101600D01*
X936625D01*
Y-106680D01*
X939165D01*
X929640Y-125730D02*
Y-128270D01*
X934720D01*
Y-125730D01*
X937260D01*
Y-120650D01*
X934720D01*
Y-118110D01*
X929640D01*
Y-120650D01*
X927100D01*
Y-125730D01*
X929640D01*
X939165Y-144780D02*
Y-147320D01*
X944245D01*
Y-144780D01*
X946785D01*
Y-139700D01*
X944245D01*
Y-137160D01*
X939165D01*
Y-139700D01*
X936625D01*
Y-144780D01*
X939165D01*
X929640Y-163830D02*
Y-166370D01*
X934720D01*
Y-163830D01*
X937260D01*
Y-158750D01*
X934720D01*
Y-156210D01*
X929640D01*
Y-158750D01*
X927100D01*
Y-163830D01*
X929640D01*
X939165Y-182880D02*
Y-185420D01*
X944245D01*
Y-182880D01*
X946785D01*
Y-177800D01*
X944245D01*
Y-175260D01*
X939165D01*
Y-177800D01*
X936625D01*
Y-182880D01*
X939165D01*
X929640Y-201930D02*
Y-204470D01*
X934720D01*
Y-201930D01*
X937260D01*
Y-196850D01*
X934720D01*
Y-194310D01*
X929640D01*
Y-196850D01*
X927100D01*
Y-201930D01*
X929640D01*
X939165Y-259080D02*
Y-261620D01*
X944245D01*
Y-259080D01*
X946785D01*
Y-254000D01*
X944245D01*
Y-251460D01*
X939165D01*
Y-254000D01*
X936625D01*
Y-259080D01*
X939165D01*
X929640Y-278130D02*
Y-280670D01*
X934720D01*
Y-278130D01*
X937260D01*
Y-273050D01*
X934720D01*
Y-270510D01*
X929640D01*
Y-273050D01*
X927100D01*
Y-278130D01*
X929640D01*
Y-316230D02*
Y-318770D01*
X934720D01*
Y-316230D01*
X937260D01*
Y-311150D01*
X934720D01*
Y-308610D01*
X929640D01*
Y-311150D01*
X927100D01*
Y-316230D01*
X929640D01*
X939165Y-335280D02*
Y-337820D01*
X944245D01*
Y-335280D01*
X946785D01*
Y-330200D01*
X944245D01*
Y-327660D01*
X939165D01*
Y-330200D01*
X936625D01*
Y-335280D01*
X939165D01*
X929640Y-354330D02*
Y-356870D01*
X934720D01*
Y-354330D01*
X937260D01*
Y-349250D01*
X934720D01*
Y-346710D01*
X929640D01*
Y-349250D01*
X927100D01*
Y-354330D01*
X929640D01*
X920115Y-30480D02*
Y-33020D01*
X925195D01*
Y-30480D01*
X927735D01*
Y-25400D01*
X925195D01*
Y-22860D01*
X920115D01*
Y-25400D01*
X917575D01*
Y-30480D01*
X920115D01*
X910590Y-49530D02*
Y-52070D01*
X915670D01*
Y-49530D01*
X918210D01*
Y-44450D01*
X915670D01*
Y-41910D01*
X910590D01*
Y-44450D01*
X908050D01*
Y-49530D01*
X910590D01*
X920115Y-68580D02*
Y-71120D01*
X925195D01*
Y-68580D01*
X927735D01*
Y-63500D01*
X925195D01*
Y-60960D01*
X920115D01*
Y-63500D01*
X917575D01*
Y-68580D01*
X920115D01*
X910590Y-87630D02*
Y-90170D01*
X915670D01*
Y-87630D01*
X918210D01*
Y-82550D01*
X915670D01*
Y-80010D01*
X910590D01*
Y-82550D01*
X908050D01*
Y-87630D01*
X910590D01*
X920115Y-106680D02*
Y-109220D01*
X925195D01*
Y-106680D01*
X927735D01*
Y-101600D01*
X925195D01*
Y-99060D01*
X920115D01*
Y-101600D01*
X917575D01*
Y-106680D01*
X920115D01*
X910590Y-125730D02*
Y-128270D01*
X915670D01*
Y-125730D01*
X918210D01*
Y-120650D01*
X915670D01*
Y-118110D01*
X910590D01*
Y-120650D01*
X908050D01*
Y-125730D01*
X910590D01*
X920115Y-144780D02*
Y-147320D01*
X925195D01*
Y-144780D01*
X927735D01*
Y-139700D01*
X925195D01*
Y-137160D01*
X920115D01*
Y-139700D01*
X917575D01*
Y-144780D01*
X920115D01*
X910590Y-163830D02*
Y-166370D01*
X915670D01*
Y-163830D01*
X918210D01*
Y-158750D01*
X915670D01*
Y-156210D01*
X910590D01*
Y-158750D01*
X908050D01*
Y-163830D01*
X910590D01*
X920115Y-182880D02*
Y-185420D01*
X925195D01*
Y-182880D01*
X927735D01*
Y-177800D01*
X925195D01*
Y-175260D01*
X920115D01*
Y-177800D01*
X917575D01*
Y-182880D01*
X920115D01*
X910590Y-201930D02*
Y-204470D01*
X915670D01*
Y-201930D01*
X918210D01*
Y-196850D01*
X915670D01*
Y-194310D01*
X910590D01*
Y-196850D01*
X908050D01*
Y-201930D01*
X910590D01*
X920115Y-220980D02*
Y-223520D01*
X925195D01*
Y-220980D01*
X927735D01*
Y-215900D01*
X925195D01*
Y-213360D01*
X920115D01*
Y-215900D01*
X917575D01*
Y-220980D01*
X920115D01*
Y-259080D02*
Y-261620D01*
X925195D01*
Y-259080D01*
X927735D01*
Y-254000D01*
X925195D01*
Y-251460D01*
X920115D01*
Y-254000D01*
X917575D01*
Y-259080D01*
X920115D01*
X910590Y-278130D02*
Y-280670D01*
X915670D01*
Y-278130D01*
X918210D01*
Y-273050D01*
X915670D01*
Y-270510D01*
X910590D01*
Y-273050D01*
X908050D01*
Y-278130D01*
X910590D01*
X920115Y-297180D02*
Y-299720D01*
X925195D01*
Y-297180D01*
X927735D01*
Y-292100D01*
X925195D01*
Y-289560D01*
X920115D01*
Y-292100D01*
X917575D01*
Y-297180D01*
X920115D01*
X910590Y-316230D02*
Y-318770D01*
X915670D01*
Y-316230D01*
X918210D01*
Y-311150D01*
X915670D01*
Y-308610D01*
X910590D01*
Y-311150D01*
X908050D01*
Y-316230D01*
X910590D01*
X920115Y-335280D02*
Y-337820D01*
X925195D01*
Y-335280D01*
X927735D01*
Y-330200D01*
X925195D01*
Y-327660D01*
X920115D01*
Y-330200D01*
X917575D01*
Y-335280D01*
X920115D01*
X910590Y-354330D02*
Y-356870D01*
X915670D01*
Y-354330D01*
X918210D01*
Y-349250D01*
X915670D01*
Y-346710D01*
X910590D01*
Y-349250D01*
X908050D01*
Y-354330D01*
X910590D01*
X901065Y-30480D02*
Y-33020D01*
X906145D01*
Y-30480D01*
X908685D01*
Y-25400D01*
X906145D01*
Y-22860D01*
X901065D01*
Y-25400D01*
X898525D01*
Y-30480D01*
X901065D01*
X891540Y-49530D02*
Y-52070D01*
X896620D01*
Y-49530D01*
X899160D01*
Y-44450D01*
X896620D01*
Y-41910D01*
X891540D01*
Y-44450D01*
X889000D01*
Y-49530D01*
X891540D01*
X901065Y-68580D02*
Y-71120D01*
X906145D01*
Y-68580D01*
X908685D01*
Y-63500D01*
X906145D01*
Y-60960D01*
X901065D01*
Y-63500D01*
X898525D01*
Y-68580D01*
X901065D01*
X891540Y-87630D02*
Y-90170D01*
X896620D01*
Y-87630D01*
X899160D01*
Y-82550D01*
X896620D01*
Y-80010D01*
X891540D01*
Y-82550D01*
X889000D01*
Y-87630D01*
X891540D01*
X901065Y-106680D02*
Y-109220D01*
X906145D01*
Y-106680D01*
X908685D01*
Y-101600D01*
X906145D01*
Y-99060D01*
X901065D01*
Y-101600D01*
X898525D01*
Y-106680D01*
X901065D01*
X891540Y-125730D02*
Y-128270D01*
X896620D01*
Y-125730D01*
X899160D01*
Y-120650D01*
X896620D01*
Y-118110D01*
X891540D01*
Y-120650D01*
X889000D01*
Y-125730D01*
X891540D01*
X901065Y-144780D02*
Y-147320D01*
X906145D01*
Y-144780D01*
X908685D01*
Y-139700D01*
X906145D01*
Y-137160D01*
X901065D01*
Y-139700D01*
X898525D01*
Y-144780D01*
X901065D01*
X891540Y-163830D02*
Y-166370D01*
X896620D01*
Y-163830D01*
X899160D01*
Y-158750D01*
X896620D01*
Y-156210D01*
X891540D01*
Y-158750D01*
X889000D01*
Y-163830D01*
X891540D01*
X901065Y-182880D02*
Y-185420D01*
X906145D01*
Y-182880D01*
X908685D01*
Y-177800D01*
X906145D01*
Y-175260D01*
X901065D01*
Y-177800D01*
X898525D01*
Y-182880D01*
X901065D01*
X891540Y-201930D02*
Y-204470D01*
X896620D01*
Y-201930D01*
X899160D01*
Y-196850D01*
X896620D01*
Y-194310D01*
X891540D01*
Y-196850D01*
X889000D01*
Y-201930D01*
X891540D01*
X901065Y-220980D02*
Y-223520D01*
X906145D01*
Y-220980D01*
X908685D01*
Y-215900D01*
X906145D01*
Y-213360D01*
X901065D01*
Y-215900D01*
X898525D01*
Y-220980D01*
X901065D01*
X891540Y-240030D02*
Y-242570D01*
X896620D01*
Y-240030D01*
X899160D01*
Y-234950D01*
X896620D01*
Y-232410D01*
X891540D01*
Y-234950D01*
X889000D01*
Y-240030D01*
X891540D01*
X901065Y-297180D02*
Y-299720D01*
X906145D01*
Y-297180D01*
X908685D01*
Y-292100D01*
X906145D01*
Y-289560D01*
X901065D01*
Y-292100D01*
X898525D01*
Y-297180D01*
X901065D01*
X891540Y-316230D02*
Y-318770D01*
X896620D01*
Y-316230D01*
X899160D01*
Y-311150D01*
X896620D01*
Y-308610D01*
X891540D01*
Y-311150D01*
X889000D01*
Y-316230D01*
X891540D01*
X901065Y-335280D02*
Y-337820D01*
X906145D01*
Y-335280D01*
X908685D01*
Y-330200D01*
X906145D01*
Y-327660D01*
X901065D01*
Y-330200D01*
X898525D01*
Y-335280D01*
X901065D01*
X891540Y-354330D02*
Y-356870D01*
X896620D01*
Y-354330D01*
X899160D01*
Y-349250D01*
X896620D01*
Y-346710D01*
X891540D01*
Y-349250D01*
X889000D01*
Y-354330D01*
X891540D01*
X882015Y-30480D02*
Y-33020D01*
X887095D01*
Y-30480D01*
X889635D01*
Y-25400D01*
X887095D01*
Y-22860D01*
X882015D01*
Y-25400D01*
X879475D01*
Y-30480D01*
X882015D01*
X872490Y-49530D02*
Y-52070D01*
X877570D01*
Y-49530D01*
X880110D01*
Y-44450D01*
X877570D01*
Y-41910D01*
X872490D01*
Y-44450D01*
X869950D01*
Y-49530D01*
X872490D01*
X882015Y-68580D02*
Y-71120D01*
X887095D01*
Y-68580D01*
X889635D01*
Y-63500D01*
X887095D01*
Y-60960D01*
X882015D01*
Y-63500D01*
X879475D01*
Y-68580D01*
X882015D01*
X872490Y-87630D02*
Y-90170D01*
X877570D01*
Y-87630D01*
X880110D01*
Y-82550D01*
X877570D01*
Y-80010D01*
X872490D01*
Y-82550D01*
X869950D01*
Y-87630D01*
X872490D01*
X882015Y-106680D02*
Y-109220D01*
X887095D01*
Y-106680D01*
X889635D01*
Y-101600D01*
X887095D01*
Y-99060D01*
X882015D01*
Y-101600D01*
X879475D01*
Y-106680D01*
X882015D01*
X872490Y-125730D02*
Y-128270D01*
X877570D01*
Y-125730D01*
X880110D01*
Y-120650D01*
X877570D01*
Y-118110D01*
X872490D01*
Y-120650D01*
X869950D01*
Y-125730D01*
X872490D01*
X882015Y-144780D02*
Y-147320D01*
X887095D01*
Y-144780D01*
X889635D01*
Y-139700D01*
X887095D01*
Y-137160D01*
X882015D01*
Y-139700D01*
X879475D01*
Y-144780D01*
X882015D01*
X872490Y-163830D02*
Y-166370D01*
X877570D01*
Y-163830D01*
X880110D01*
Y-158750D01*
X877570D01*
Y-156210D01*
X872490D01*
Y-158750D01*
X869950D01*
Y-163830D01*
X872490D01*
X882015Y-182880D02*
Y-185420D01*
X887095D01*
Y-182880D01*
X889635D01*
Y-177800D01*
X887095D01*
Y-175260D01*
X882015D01*
Y-177800D01*
X879475D01*
Y-182880D01*
X882015D01*
X872490Y-201930D02*
Y-204470D01*
X877570D01*
Y-201930D01*
X880110D01*
Y-196850D01*
X877570D01*
Y-194310D01*
X872490D01*
Y-196850D01*
X869950D01*
Y-201930D01*
X872490D01*
X882015Y-220980D02*
Y-223520D01*
X887095D01*
Y-220980D01*
X889635D01*
Y-215900D01*
X887095D01*
Y-213360D01*
X882015D01*
Y-215900D01*
X879475D01*
Y-220980D01*
X882015D01*
X872490Y-240030D02*
Y-242570D01*
X877570D01*
Y-240030D01*
X880110D01*
Y-234950D01*
X877570D01*
Y-232410D01*
X872490D01*
Y-234950D01*
X869950D01*
Y-240030D01*
X872490D01*
X882015Y-259080D02*
Y-261620D01*
X887095D01*
Y-259080D01*
X889635D01*
Y-254000D01*
X887095D01*
Y-251460D01*
X882015D01*
Y-254000D01*
X879475D01*
Y-259080D01*
X882015D01*
Y-297180D02*
Y-299720D01*
X887095D01*
Y-297180D01*
X889635D01*
Y-292100D01*
X887095D01*
Y-289560D01*
X882015D01*
Y-292100D01*
X879475D01*
Y-297180D01*
X882015D01*
X872490Y-316230D02*
Y-318770D01*
X877570D01*
Y-316230D01*
X880110D01*
Y-311150D01*
X877570D01*
Y-308610D01*
X872490D01*
Y-311150D01*
X869950D01*
Y-316230D01*
X872490D01*
X882015Y-335280D02*
Y-337820D01*
X887095D01*
Y-335280D01*
X889635D01*
Y-330200D01*
X887095D01*
Y-327660D01*
X882015D01*
Y-330200D01*
X879475D01*
Y-335280D01*
X882015D01*
X872490Y-354330D02*
Y-356870D01*
X877570D01*
Y-354330D01*
X880110D01*
Y-349250D01*
X877570D01*
Y-346710D01*
X872490D01*
Y-349250D01*
X869950D01*
Y-354330D01*
X872490D01*
X862965Y-30480D02*
Y-33020D01*
X868045D01*
Y-30480D01*
X870585D01*
Y-25400D01*
X868045D01*
Y-22860D01*
X862965D01*
Y-25400D01*
X860425D01*
Y-30480D01*
X862965D01*
X853440Y-49530D02*
Y-52070D01*
X858520D01*
Y-49530D01*
X861060D01*
Y-44450D01*
X858520D01*
Y-41910D01*
X853440D01*
Y-44450D01*
X850900D01*
Y-49530D01*
X853440D01*
X862965Y-68580D02*
Y-71120D01*
X868045D01*
Y-68580D01*
X870585D01*
Y-63500D01*
X868045D01*
Y-60960D01*
X862965D01*
Y-63500D01*
X860425D01*
Y-68580D01*
X862965D01*
X853440Y-87630D02*
Y-90170D01*
X858520D01*
Y-87630D01*
X861060D01*
Y-82550D01*
X858520D01*
Y-80010D01*
X853440D01*
Y-82550D01*
X850900D01*
Y-87630D01*
X853440D01*
X862965Y-106680D02*
Y-109220D01*
X868045D01*
Y-106680D01*
X870585D01*
Y-101600D01*
X868045D01*
Y-99060D01*
X862965D01*
Y-101600D01*
X860425D01*
Y-106680D01*
X862965D01*
X853440Y-125730D02*
Y-128270D01*
X858520D01*
Y-125730D01*
X861060D01*
Y-120650D01*
X858520D01*
Y-118110D01*
X853440D01*
Y-120650D01*
X850900D01*
Y-125730D01*
X853440D01*
X862965Y-144780D02*
Y-147320D01*
X868045D01*
Y-144780D01*
X870585D01*
Y-139700D01*
X868045D01*
Y-137160D01*
X862965D01*
Y-139700D01*
X860425D01*
Y-144780D01*
X862965D01*
X853440Y-163830D02*
Y-166370D01*
X858520D01*
Y-163830D01*
X861060D01*
Y-158750D01*
X858520D01*
Y-156210D01*
X853440D01*
Y-158750D01*
X850900D01*
Y-163830D01*
X853440D01*
Y-240030D02*
Y-242570D01*
X858520D01*
Y-240030D01*
X861060D01*
Y-234950D01*
X858520D01*
Y-232410D01*
X853440D01*
Y-234950D01*
X850900D01*
Y-240030D01*
X853440D01*
X862965Y-259080D02*
Y-261620D01*
X868045D01*
Y-259080D01*
X870585D01*
Y-254000D01*
X868045D01*
Y-251460D01*
X862965D01*
Y-254000D01*
X860425D01*
Y-259080D01*
X862965D01*
Y-297180D02*
Y-299720D01*
X868045D01*
Y-297180D01*
X870585D01*
Y-292100D01*
X868045D01*
Y-289560D01*
X862965D01*
Y-292100D01*
X860425D01*
Y-297180D01*
X862965D01*
X853440Y-316230D02*
Y-318770D01*
X858520D01*
Y-316230D01*
X861060D01*
Y-311150D01*
X858520D01*
Y-308610D01*
X853440D01*
Y-311150D01*
X850900D01*
Y-316230D01*
X853440D01*
X862965Y-335280D02*
Y-337820D01*
X868045D01*
Y-335280D01*
X870585D01*
Y-330200D01*
X868045D01*
Y-327660D01*
X862965D01*
Y-330200D01*
X860425D01*
Y-335280D01*
X862965D01*
X853440Y-354330D02*
Y-356870D01*
X858520D01*
Y-354330D01*
X861060D01*
Y-349250D01*
X858520D01*
Y-346710D01*
X853440D01*
Y-349250D01*
X850900D01*
Y-354330D01*
X853440D01*
X843915Y-106680D02*
Y-109220D01*
X848995D01*
Y-106680D01*
X851535D01*
Y-101600D01*
X848995D01*
Y-99060D01*
X843915D01*
Y-101600D01*
X841375D01*
Y-106680D01*
X843915D01*
X834390Y-201930D02*
Y-204470D01*
X839470D01*
Y-201930D01*
X842010D01*
Y-196850D01*
X839470D01*
Y-194310D01*
X834390D01*
Y-196850D01*
X831850D01*
Y-201930D01*
X834390D01*
Y-240030D02*
Y-242570D01*
X839470D01*
Y-240030D01*
X842010D01*
Y-234950D01*
X839470D01*
Y-232410D01*
X834390D01*
Y-234950D01*
X831850D01*
Y-240030D01*
X834390D01*
X843915Y-259080D02*
Y-261620D01*
X848995D01*
Y-259080D01*
X851535D01*
Y-254000D01*
X848995D01*
Y-251460D01*
X843915D01*
Y-254000D01*
X841375D01*
Y-259080D01*
X843915D01*
Y-297180D02*
Y-299720D01*
X848995D01*
Y-297180D01*
X851535D01*
Y-292100D01*
X848995D01*
Y-289560D01*
X843915D01*
Y-292100D01*
X841375D01*
Y-297180D01*
X843915D01*
X834390Y-316230D02*
Y-318770D01*
X839470D01*
Y-316230D01*
X842010D01*
Y-311150D01*
X839470D01*
Y-308610D01*
X834390D01*
Y-311150D01*
X831850D01*
Y-316230D01*
X834390D01*
X843915Y-335280D02*
Y-337820D01*
X848995D01*
Y-335280D01*
X851535D01*
Y-330200D01*
X848995D01*
Y-327660D01*
X843915D01*
Y-330200D01*
X841375D01*
Y-335280D01*
X843915D01*
X834390Y-354330D02*
Y-356870D01*
X839470D01*
Y-354330D01*
X842010D01*
Y-349250D01*
X839470D01*
Y-346710D01*
X834390D01*
Y-349250D01*
X831850D01*
Y-354330D01*
X834390D01*
X824865Y-68580D02*
Y-71120D01*
X829945D01*
Y-68580D01*
X832485D01*
Y-63500D01*
X829945D01*
Y-60960D01*
X824865D01*
Y-63500D01*
X822325D01*
Y-68580D01*
X824865D01*
X815340Y-87630D02*
Y-90170D01*
X820420D01*
Y-87630D01*
X822960D01*
Y-82550D01*
X820420D01*
Y-80010D01*
X815340D01*
Y-82550D01*
X812800D01*
Y-87630D01*
X815340D01*
Y-125730D02*
Y-128270D01*
X820420D01*
Y-125730D01*
X822960D01*
Y-120650D01*
X820420D01*
Y-118110D01*
X815340D01*
Y-120650D01*
X812800D01*
Y-125730D01*
X815340D01*
Y-163830D02*
Y-166370D01*
X820420D01*
Y-163830D01*
X822960D01*
Y-158750D01*
X820420D01*
Y-156210D01*
X815340D01*
Y-158750D01*
X812800D01*
Y-163830D01*
X815340D01*
X824865Y-220980D02*
Y-223520D01*
X829945D01*
Y-220980D01*
X832485D01*
Y-215900D01*
X829945D01*
Y-213360D01*
X824865D01*
Y-215900D01*
X822325D01*
Y-220980D01*
X824865D01*
X815340Y-240030D02*
Y-242570D01*
X820420D01*
Y-240030D01*
X822960D01*
Y-234950D01*
X820420D01*
Y-232410D01*
X815340D01*
Y-234950D01*
X812800D01*
Y-240030D01*
X815340D01*
X824865Y-259080D02*
Y-261620D01*
X829945D01*
Y-259080D01*
X832485D01*
Y-254000D01*
X829945D01*
Y-251460D01*
X824865D01*
Y-254000D01*
X822325D01*
Y-259080D01*
X824865D01*
Y-297180D02*
Y-299720D01*
X829945D01*
Y-297180D01*
X832485D01*
Y-292100D01*
X829945D01*
Y-289560D01*
X824865D01*
Y-292100D01*
X822325D01*
Y-297180D01*
X824865D01*
Y-335280D02*
Y-337820D01*
X829945D01*
Y-335280D01*
X832485D01*
Y-330200D01*
X829945D01*
Y-327660D01*
X824865D01*
Y-330200D01*
X822325D01*
Y-335280D01*
X824865D01*
X815340Y-354330D02*
Y-356870D01*
X820420D01*
Y-354330D01*
X822960D01*
Y-349250D01*
X820420D01*
Y-346710D01*
X815340D01*
Y-349250D01*
X812800D01*
Y-354330D01*
X815340D01*
X805815Y-68580D02*
Y-71120D01*
X810895D01*
Y-68580D01*
X813435D01*
Y-63500D01*
X810895D01*
Y-60960D01*
X805815D01*
Y-63500D01*
X803275D01*
Y-68580D01*
X805815D01*
Y-106680D02*
Y-109220D01*
X810895D01*
Y-106680D01*
X813435D01*
Y-101600D01*
X810895D01*
Y-99060D01*
X805815D01*
Y-101600D01*
X803275D01*
Y-106680D01*
X805815D01*
X796290Y-125730D02*
Y-128270D01*
X801370D01*
Y-125730D01*
X803910D01*
Y-120650D01*
X801370D01*
Y-118110D01*
X796290D01*
Y-120650D01*
X793750D01*
Y-125730D01*
X796290D01*
X805815Y-144780D02*
Y-147320D01*
X810895D01*
Y-144780D01*
X813435D01*
Y-139700D01*
X810895D01*
Y-137160D01*
X805815D01*
Y-139700D01*
X803275D01*
Y-144780D01*
X805815D01*
X796290Y-163830D02*
Y-166370D01*
X801370D01*
Y-163830D01*
X803910D01*
Y-158750D01*
X801370D01*
Y-156210D01*
X796290D01*
Y-158750D01*
X793750D01*
Y-163830D01*
X796290D01*
X805815Y-259080D02*
Y-261620D01*
X810895D01*
Y-259080D01*
X813435D01*
Y-254000D01*
X810895D01*
Y-251460D01*
X805815D01*
Y-254000D01*
X803275D01*
Y-259080D01*
X805815D01*
X796290Y-354330D02*
Y-356870D01*
X801370D01*
Y-354330D01*
X803910D01*
Y-349250D01*
X801370D01*
Y-346710D01*
X796290D01*
Y-349250D01*
X793750D01*
Y-354330D01*
X796290D01*
X786765Y-68580D02*
Y-71120D01*
X791845D01*
Y-68580D01*
X794385D01*
Y-63500D01*
X791845D01*
Y-60960D01*
X786765D01*
Y-63500D01*
X784225D01*
Y-68580D01*
X786765D01*
X777240Y-125730D02*
Y-128270D01*
X782320D01*
Y-125730D01*
X784860D01*
Y-120650D01*
X782320D01*
Y-118110D01*
X777240D01*
Y-120650D01*
X774700D01*
Y-125730D01*
X777240D01*
Y-163830D02*
Y-166370D01*
X782320D01*
Y-163830D01*
X784860D01*
Y-158750D01*
X782320D01*
Y-156210D01*
X777240D01*
Y-158750D01*
X774700D01*
Y-163830D01*
X777240D01*
Y-240030D02*
Y-242570D01*
X782320D01*
Y-240030D01*
X784860D01*
Y-234950D01*
X782320D01*
Y-232410D01*
X777240D01*
Y-234950D01*
X774700D01*
Y-240030D01*
X777240D01*
Y-278130D02*
Y-280670D01*
X782320D01*
Y-278130D01*
X784860D01*
Y-273050D01*
X782320D01*
Y-270510D01*
X777240D01*
Y-273050D01*
X774700D01*
Y-278130D01*
X777240D01*
X786765Y-297180D02*
Y-299720D01*
X791845D01*
Y-297180D01*
X794385D01*
Y-292100D01*
X791845D01*
Y-289560D01*
X786765D01*
Y-292100D01*
X784225D01*
Y-297180D01*
X786765D01*
X777240Y-316230D02*
Y-318770D01*
X782320D01*
Y-316230D01*
X784860D01*
Y-311150D01*
X782320D01*
Y-308610D01*
X777240D01*
Y-311150D01*
X774700D01*
Y-316230D01*
X777240D01*
X786765Y-335280D02*
Y-337820D01*
X791845D01*
Y-335280D01*
X794385D01*
Y-330200D01*
X791845D01*
Y-327660D01*
X786765D01*
Y-330200D01*
X784225D01*
Y-335280D01*
X786765D01*
X777240Y-354330D02*
Y-356870D01*
X782320D01*
Y-354330D01*
X784860D01*
Y-349250D01*
X782320D01*
Y-346710D01*
X777240D01*
Y-349250D01*
X774700D01*
Y-354330D01*
X777240D01*
X767715Y-30480D02*
Y-33020D01*
X772795D01*
Y-30480D01*
X775335D01*
Y-25400D01*
X772795D01*
Y-22860D01*
X767715D01*
Y-25400D01*
X765175D01*
Y-30480D01*
X767715D01*
X758190Y-49530D02*
Y-52070D01*
X763270D01*
Y-49530D01*
X765810D01*
Y-44450D01*
X763270D01*
Y-41910D01*
X758190D01*
Y-44450D01*
X755650D01*
Y-49530D01*
X758190D01*
X767715Y-68580D02*
Y-71120D01*
X772795D01*
Y-68580D01*
X775335D01*
Y-63500D01*
X772795D01*
Y-60960D01*
X767715D01*
Y-63500D01*
X765175D01*
Y-68580D01*
X767715D01*
X758190Y-87630D02*
Y-90170D01*
X763270D01*
Y-87630D01*
X765810D01*
Y-82550D01*
X763270D01*
Y-80010D01*
X758190D01*
Y-82550D01*
X755650D01*
Y-87630D01*
X758190D01*
X767715Y-106680D02*
Y-109220D01*
X772795D01*
Y-106680D01*
X775335D01*
Y-101600D01*
X772795D01*
Y-99060D01*
X767715D01*
Y-101600D01*
X765175D01*
Y-106680D01*
X767715D01*
X758190Y-125730D02*
Y-128270D01*
X763270D01*
Y-125730D01*
X765810D01*
Y-120650D01*
X763270D01*
Y-118110D01*
X758190D01*
Y-120650D01*
X755650D01*
Y-125730D01*
X758190D01*
X767715Y-144780D02*
Y-147320D01*
X772795D01*
Y-144780D01*
X775335D01*
Y-139700D01*
X772795D01*
Y-137160D01*
X767715D01*
Y-139700D01*
X765175D01*
Y-144780D01*
X767715D01*
X758190Y-163830D02*
Y-166370D01*
X763270D01*
Y-163830D01*
X765810D01*
Y-158750D01*
X763270D01*
Y-156210D01*
X758190D01*
Y-158750D01*
X755650D01*
Y-163830D01*
X758190D01*
X767715Y-182880D02*
Y-185420D01*
X772795D01*
Y-182880D01*
X775335D01*
Y-177800D01*
X772795D01*
Y-175260D01*
X767715D01*
Y-177800D01*
X765175D01*
Y-182880D01*
X767715D01*
Y-220980D02*
Y-223520D01*
X772795D01*
Y-220980D01*
X775335D01*
Y-215900D01*
X772795D01*
Y-213360D01*
X767715D01*
Y-215900D01*
X765175D01*
Y-220980D01*
X767715D01*
Y-259080D02*
Y-261620D01*
X772795D01*
Y-259080D01*
X775335D01*
Y-254000D01*
X772795D01*
Y-251460D01*
X767715D01*
Y-254000D01*
X765175D01*
Y-259080D01*
X767715D01*
X758190Y-278130D02*
Y-280670D01*
X763270D01*
Y-278130D01*
X765810D01*
Y-273050D01*
X763270D01*
Y-270510D01*
X758190D01*
Y-273050D01*
X755650D01*
Y-278130D01*
X758190D01*
X767715Y-297180D02*
Y-299720D01*
X772795D01*
Y-297180D01*
X775335D01*
Y-292100D01*
X772795D01*
Y-289560D01*
X767715D01*
Y-292100D01*
X765175D01*
Y-297180D01*
X767715D01*
X758190Y-316230D02*
Y-318770D01*
X763270D01*
Y-316230D01*
X765810D01*
Y-311150D01*
X763270D01*
Y-308610D01*
X758190D01*
Y-311150D01*
X755650D01*
Y-316230D01*
X758190D01*
X767715Y-335280D02*
Y-337820D01*
X772795D01*
Y-335280D01*
X775335D01*
Y-330200D01*
X772795D01*
Y-327660D01*
X767715D01*
Y-330200D01*
X765175D01*
Y-335280D01*
X767715D01*
X758190Y-354330D02*
Y-356870D01*
X763270D01*
Y-354330D01*
X765810D01*
Y-349250D01*
X763270D01*
Y-346710D01*
X758190D01*
Y-349250D01*
X755650D01*
Y-354330D01*
X758190D01*
X739140Y-87630D02*
Y-90170D01*
X744220D01*
Y-87630D01*
X746760D01*
Y-82550D01*
X744220D01*
Y-80010D01*
X739140D01*
Y-82550D01*
X736600D01*
Y-87630D01*
X739140D01*
Y-125730D02*
Y-128270D01*
X744220D01*
Y-125730D01*
X746760D01*
Y-120650D01*
X744220D01*
Y-118110D01*
X739140D01*
Y-120650D01*
X736600D01*
Y-125730D01*
X739140D01*
X748665Y-144780D02*
Y-147320D01*
X753745D01*
Y-144780D01*
X756285D01*
Y-139700D01*
X753745D01*
Y-137160D01*
X748665D01*
Y-139700D01*
X746125D01*
Y-144780D01*
X748665D01*
X739140Y-163830D02*
Y-166370D01*
X744220D01*
Y-163830D01*
X746760D01*
Y-158750D01*
X744220D01*
Y-156210D01*
X739140D01*
Y-158750D01*
X736600D01*
Y-163830D01*
X739140D01*
X748665Y-220980D02*
Y-223520D01*
X753745D01*
Y-220980D01*
X756285D01*
Y-215900D01*
X753745D01*
Y-213360D01*
X748665D01*
Y-215900D01*
X746125D01*
Y-220980D01*
X748665D01*
Y-297180D02*
Y-299720D01*
X753745D01*
Y-297180D01*
X756285D01*
Y-292100D01*
X753745D01*
Y-289560D01*
X748665D01*
Y-292100D01*
X746125D01*
Y-297180D01*
X748665D01*
X739140Y-316230D02*
Y-318770D01*
X744220D01*
Y-316230D01*
X746760D01*
Y-311150D01*
X744220D01*
Y-308610D01*
X739140D01*
Y-311150D01*
X736600D01*
Y-316230D01*
X739140D01*
X748665Y-335280D02*
Y-337820D01*
X753745D01*
Y-335280D01*
X756285D01*
Y-330200D01*
X753745D01*
Y-327660D01*
X748665D01*
Y-330200D01*
X746125D01*
Y-335280D01*
X748665D01*
X739140Y-354330D02*
Y-356870D01*
X744220D01*
Y-354330D01*
X746760D01*
Y-349250D01*
X744220D01*
Y-346710D01*
X739140D01*
Y-349250D01*
X736600D01*
Y-354330D01*
X739140D01*
X729615Y-68580D02*
Y-71120D01*
X734695D01*
Y-68580D01*
X737235D01*
Y-63500D01*
X734695D01*
Y-60960D01*
X729615D01*
Y-63500D01*
X727075D01*
Y-68580D01*
X729615D01*
X720090Y-87630D02*
Y-90170D01*
X725170D01*
Y-87630D01*
X727710D01*
Y-82550D01*
X725170D01*
Y-80010D01*
X720090D01*
Y-82550D01*
X717550D01*
Y-87630D01*
X720090D01*
Y-125730D02*
Y-128270D01*
X725170D01*
Y-125730D01*
X727710D01*
Y-120650D01*
X725170D01*
Y-118110D01*
X720090D01*
Y-120650D01*
X717550D01*
Y-125730D01*
X720090D01*
X729615Y-144780D02*
Y-147320D01*
X734695D01*
Y-144780D01*
X737235D01*
Y-139700D01*
X734695D01*
Y-137160D01*
X729615D01*
Y-139700D01*
X727075D01*
Y-144780D01*
X729615D01*
X720090Y-163830D02*
Y-166370D01*
X725170D01*
Y-163830D01*
X727710D01*
Y-158750D01*
X725170D01*
Y-156210D01*
X720090D01*
Y-158750D01*
X717550D01*
Y-163830D01*
X720090D01*
X729615Y-182880D02*
Y-185420D01*
X734695D01*
Y-182880D01*
X737235D01*
Y-177800D01*
X734695D01*
Y-175260D01*
X729615D01*
Y-177800D01*
X727075D01*
Y-182880D01*
X729615D01*
Y-259080D02*
Y-261620D01*
X734695D01*
Y-259080D01*
X737235D01*
Y-254000D01*
X734695D01*
Y-251460D01*
X729615D01*
Y-254000D01*
X727075D01*
Y-259080D01*
X729615D01*
Y-297180D02*
Y-299720D01*
X734695D01*
Y-297180D01*
X737235D01*
Y-292100D01*
X734695D01*
Y-289560D01*
X729615D01*
Y-292100D01*
X727075D01*
Y-297180D01*
X729615D01*
Y-335280D02*
Y-337820D01*
X734695D01*
Y-335280D01*
X737235D01*
Y-330200D01*
X734695D01*
Y-327660D01*
X729615D01*
Y-330200D01*
X727075D01*
Y-335280D01*
X729615D01*
X720090Y-354330D02*
Y-356870D01*
X725170D01*
Y-354330D01*
X727710D01*
Y-349250D01*
X725170D01*
Y-346710D01*
X720090D01*
Y-349250D01*
X717550D01*
Y-354330D01*
X720090D01*
X710565Y-30480D02*
Y-33020D01*
X715645D01*
Y-30480D01*
X718185D01*
Y-25400D01*
X715645D01*
Y-22860D01*
X710565D01*
Y-25400D01*
X708025D01*
Y-30480D01*
X710565D01*
X701040Y-87630D02*
Y-90170D01*
X706120D01*
Y-87630D01*
X708660D01*
Y-82550D01*
X706120D01*
Y-80010D01*
X701040D01*
Y-82550D01*
X698500D01*
Y-87630D01*
X701040D01*
Y-125730D02*
Y-128270D01*
X706120D01*
Y-125730D01*
X708660D01*
Y-120650D01*
X706120D01*
Y-118110D01*
X701040D01*
Y-120650D01*
X698500D01*
Y-125730D01*
X701040D01*
X710565Y-144780D02*
Y-147320D01*
X715645D01*
Y-144780D01*
X718185D01*
Y-139700D01*
X715645D01*
Y-137160D01*
X710565D01*
Y-139700D01*
X708025D01*
Y-144780D01*
X710565D01*
X701040Y-163830D02*
Y-166370D01*
X706120D01*
Y-163830D01*
X708660D01*
Y-158750D01*
X706120D01*
Y-156210D01*
X701040D01*
Y-158750D01*
X698500D01*
Y-163830D01*
X701040D01*
X710565Y-182880D02*
Y-185420D01*
X715645D01*
Y-182880D01*
X718185D01*
Y-177800D01*
X715645D01*
Y-175260D01*
X710565D01*
Y-177800D01*
X708025D01*
Y-182880D01*
X710565D01*
X701040Y-278130D02*
Y-280670D01*
X706120D01*
Y-278130D01*
X708660D01*
Y-273050D01*
X706120D01*
Y-270510D01*
X701040D01*
Y-273050D01*
X698500D01*
Y-278130D01*
X701040D01*
Y-354330D02*
Y-356870D01*
X706120D01*
Y-354330D01*
X708660D01*
Y-349250D01*
X706120D01*
Y-346710D01*
X701040D01*
Y-349250D01*
X698500D01*
Y-354330D01*
X701040D01*
X681990Y-49530D02*
Y-52070D01*
X687070D01*
Y-49530D01*
X689610D01*
Y-44450D01*
X687070D01*
Y-41910D01*
X681990D01*
Y-44450D01*
X679450D01*
Y-49530D01*
X681990D01*
Y-87630D02*
Y-90170D01*
X687070D01*
Y-87630D01*
X689610D01*
Y-82550D01*
X687070D01*
Y-80010D01*
X681990D01*
Y-82550D01*
X679450D01*
Y-87630D01*
X681990D01*
X691515Y-144780D02*
Y-147320D01*
X696595D01*
Y-144780D01*
X699135D01*
Y-139700D01*
X696595D01*
Y-137160D01*
X691515D01*
Y-139700D01*
X688975D01*
Y-144780D01*
X691515D01*
Y-182880D02*
Y-185420D01*
X696595D01*
Y-182880D01*
X699135D01*
Y-177800D01*
X696595D01*
Y-175260D01*
X691515D01*
Y-177800D01*
X688975D01*
Y-182880D01*
X691515D01*
Y-220980D02*
Y-223520D01*
X696595D01*
Y-220980D01*
X699135D01*
Y-215900D01*
X696595D01*
Y-213360D01*
X691515D01*
Y-215900D01*
X688975D01*
Y-220980D01*
X691515D01*
Y-259080D02*
Y-261620D01*
X696595D01*
Y-259080D01*
X699135D01*
Y-254000D01*
X696595D01*
Y-251460D01*
X691515D01*
Y-254000D01*
X688975D01*
Y-259080D01*
X691515D01*
Y-335280D02*
Y-337820D01*
X696595D01*
Y-335280D01*
X699135D01*
Y-330200D01*
X696595D01*
Y-327660D01*
X691515D01*
Y-330200D01*
X688975D01*
Y-335280D01*
X691515D01*
X681990Y-354330D02*
Y-356870D01*
X687070D01*
Y-354330D01*
X689610D01*
Y-349250D01*
X687070D01*
Y-346710D01*
X681990D01*
Y-349250D01*
X679450D01*
Y-354330D01*
X681990D01*
X672465Y-30480D02*
Y-33020D01*
X677545D01*
Y-30480D01*
X680085D01*
Y-25400D01*
X677545D01*
Y-22860D01*
X672465D01*
Y-25400D01*
X669925D01*
Y-30480D01*
X672465D01*
X662940Y-49530D02*
Y-52070D01*
X668020D01*
Y-49530D01*
X670560D01*
Y-44450D01*
X668020D01*
Y-41910D01*
X662940D01*
Y-44450D01*
X660400D01*
Y-49530D01*
X662940D01*
Y-87630D02*
Y-90170D01*
X668020D01*
Y-87630D01*
X670560D01*
Y-82550D01*
X668020D01*
Y-80010D01*
X662940D01*
Y-82550D01*
X660400D01*
Y-87630D01*
X662940D01*
X672465Y-106680D02*
Y-109220D01*
X677545D01*
Y-106680D01*
X680085D01*
Y-101600D01*
X677545D01*
Y-99060D01*
X672465D01*
Y-101600D01*
X669925D01*
Y-106680D01*
X672465D01*
X662940Y-125730D02*
Y-128270D01*
X668020D01*
Y-125730D01*
X670560D01*
Y-120650D01*
X668020D01*
Y-118110D01*
X662940D01*
Y-120650D01*
X660400D01*
Y-125730D01*
X662940D01*
X672465Y-144780D02*
Y-147320D01*
X677545D01*
Y-144780D01*
X680085D01*
Y-139700D01*
X677545D01*
Y-137160D01*
X672465D01*
Y-139700D01*
X669925D01*
Y-144780D01*
X672465D01*
X662940Y-163830D02*
Y-166370D01*
X668020D01*
Y-163830D01*
X670560D01*
Y-158750D01*
X668020D01*
Y-156210D01*
X662940D01*
Y-158750D01*
X660400D01*
Y-163830D01*
X662940D01*
X672465Y-182880D02*
Y-185420D01*
X677545D01*
Y-182880D01*
X680085D01*
Y-177800D01*
X677545D01*
Y-175260D01*
X672465D01*
Y-177800D01*
X669925D01*
Y-182880D01*
X672465D01*
X662940Y-201930D02*
Y-204470D01*
X668020D01*
Y-201930D01*
X670560D01*
Y-196850D01*
X668020D01*
Y-194310D01*
X662940D01*
Y-196850D01*
X660400D01*
Y-201930D01*
X662940D01*
X672465Y-220980D02*
Y-223520D01*
X677545D01*
Y-220980D01*
X680085D01*
Y-215900D01*
X677545D01*
Y-213360D01*
X672465D01*
Y-215900D01*
X669925D01*
Y-220980D01*
X672465D01*
Y-259080D02*
Y-261620D01*
X677545D01*
Y-259080D01*
X680085D01*
Y-254000D01*
X677545D01*
Y-251460D01*
X672465D01*
Y-254000D01*
X669925D01*
Y-259080D01*
X672465D01*
X662940Y-278130D02*
Y-280670D01*
X668020D01*
Y-278130D01*
X670560D01*
Y-273050D01*
X668020D01*
Y-270510D01*
X662940D01*
Y-273050D01*
X660400D01*
Y-278130D01*
X662940D01*
Y-316230D02*
Y-318770D01*
X668020D01*
Y-316230D01*
X670560D01*
Y-311150D01*
X668020D01*
Y-308610D01*
X662940D01*
Y-311150D01*
X660400D01*
Y-316230D01*
X662940D01*
X672465Y-335280D02*
Y-337820D01*
X677545D01*
Y-335280D01*
X680085D01*
Y-330200D01*
X677545D01*
Y-327660D01*
X672465D01*
Y-330200D01*
X669925D01*
Y-335280D01*
X672465D01*
X662940Y-354330D02*
Y-356870D01*
X668020D01*
Y-354330D01*
X670560D01*
Y-349250D01*
X668020D01*
Y-346710D01*
X662940D01*
Y-349250D01*
X660400D01*
Y-354330D01*
X662940D01*
X653415Y-30480D02*
Y-33020D01*
X658495D01*
Y-30480D01*
X661035D01*
Y-25400D01*
X658495D01*
Y-22860D01*
X653415D01*
Y-25400D01*
X650875D01*
Y-30480D01*
X653415D01*
X643890Y-49530D02*
Y-52070D01*
X648970D01*
Y-49530D01*
X651510D01*
Y-44450D01*
X648970D01*
Y-41910D01*
X643890D01*
Y-44450D01*
X641350D01*
Y-49530D01*
X643890D01*
Y-87630D02*
Y-90170D01*
X648970D01*
Y-87630D01*
X651510D01*
Y-82550D01*
X648970D01*
Y-80010D01*
X643890D01*
Y-82550D01*
X641350D01*
Y-87630D01*
X643890D01*
X653415Y-106680D02*
Y-109220D01*
X658495D01*
Y-106680D01*
X661035D01*
Y-101600D01*
X658495D01*
Y-99060D01*
X653415D01*
Y-101600D01*
X650875D01*
Y-106680D01*
X653415D01*
X643890Y-125730D02*
Y-128270D01*
X648970D01*
Y-125730D01*
X651510D01*
Y-120650D01*
X648970D01*
Y-118110D01*
X643890D01*
Y-120650D01*
X641350D01*
Y-125730D01*
X643890D01*
X653415Y-144780D02*
Y-147320D01*
X658495D01*
Y-144780D01*
X661035D01*
Y-139700D01*
X658495D01*
Y-137160D01*
X653415D01*
Y-139700D01*
X650875D01*
Y-144780D01*
X653415D01*
X643890Y-163830D02*
Y-166370D01*
X648970D01*
Y-163830D01*
X651510D01*
Y-158750D01*
X648970D01*
Y-156210D01*
X643890D01*
Y-158750D01*
X641350D01*
Y-163830D01*
X643890D01*
X653415Y-182880D02*
Y-185420D01*
X658495D01*
Y-182880D01*
X661035D01*
Y-177800D01*
X658495D01*
Y-175260D01*
X653415D01*
Y-177800D01*
X650875D01*
Y-182880D01*
X653415D01*
X643890Y-201930D02*
Y-204470D01*
X648970D01*
Y-201930D01*
X651510D01*
Y-196850D01*
X648970D01*
Y-194310D01*
X643890D01*
Y-196850D01*
X641350D01*
Y-201930D01*
X643890D01*
X653415Y-220980D02*
Y-223520D01*
X658495D01*
Y-220980D01*
X661035D01*
Y-215900D01*
X658495D01*
Y-213360D01*
X653415D01*
Y-215900D01*
X650875D01*
Y-220980D01*
X653415D01*
Y-259080D02*
Y-261620D01*
X658495D01*
Y-259080D01*
X661035D01*
Y-254000D01*
X658495D01*
Y-251460D01*
X653415D01*
Y-254000D01*
X650875D01*
Y-259080D01*
X653415D01*
X643890Y-278130D02*
Y-280670D01*
X648970D01*
Y-278130D01*
X651510D01*
Y-273050D01*
X648970D01*
Y-270510D01*
X643890D01*
Y-273050D01*
X641350D01*
Y-278130D01*
X643890D01*
X653415Y-297180D02*
Y-299720D01*
X658495D01*
Y-297180D01*
X661035D01*
Y-292100D01*
X658495D01*
Y-289560D01*
X653415D01*
Y-292100D01*
X650875D01*
Y-297180D01*
X653415D01*
Y-335280D02*
Y-337820D01*
X658495D01*
Y-335280D01*
X661035D01*
Y-330200D01*
X658495D01*
Y-327660D01*
X653415D01*
Y-330200D01*
X650875D01*
Y-335280D01*
X653415D01*
X643890Y-354330D02*
Y-356870D01*
X648970D01*
Y-354330D01*
X651510D01*
Y-349250D01*
X648970D01*
Y-346710D01*
X643890D01*
Y-349250D01*
X641350D01*
Y-354330D01*
X643890D01*
X624840Y-87630D02*
Y-90170D01*
X629920D01*
Y-87630D01*
X632460D01*
Y-82550D01*
X629920D01*
Y-80010D01*
X624840D01*
Y-82550D01*
X622300D01*
Y-87630D01*
X624840D01*
Y-125730D02*
Y-128270D01*
X629920D01*
Y-125730D01*
X632460D01*
Y-120650D01*
X629920D01*
Y-118110D01*
X624840D01*
Y-120650D01*
X622300D01*
Y-125730D01*
X624840D01*
X634365Y-144780D02*
Y-147320D01*
X639445D01*
Y-144780D01*
X641985D01*
Y-139700D01*
X639445D01*
Y-137160D01*
X634365D01*
Y-139700D01*
X631825D01*
Y-144780D01*
X634365D01*
X624840Y-163830D02*
Y-166370D01*
X629920D01*
Y-163830D01*
X632460D01*
Y-158750D01*
X629920D01*
Y-156210D01*
X624840D01*
Y-158750D01*
X622300D01*
Y-163830D01*
X624840D01*
Y-354330D02*
Y-356870D01*
X629920D01*
Y-354330D01*
X632460D01*
Y-349250D01*
X629920D01*
Y-346710D01*
X624840D01*
Y-349250D01*
X622300D01*
Y-354330D01*
X624840D01*
X605790Y-49530D02*
Y-52070D01*
X610870D01*
Y-49530D01*
X613410D01*
Y-44450D01*
X610870D01*
Y-41910D01*
X605790D01*
Y-44450D01*
X603250D01*
Y-49530D01*
X605790D01*
Y-87630D02*
Y-90170D01*
X610870D01*
Y-87630D01*
X613410D01*
Y-82550D01*
X610870D01*
Y-80010D01*
X605790D01*
Y-82550D01*
X603250D01*
Y-87630D01*
X605790D01*
Y-125730D02*
Y-128270D01*
X610870D01*
Y-125730D01*
X613410D01*
Y-120650D01*
X610870D01*
Y-118110D01*
X605790D01*
Y-120650D01*
X603250D01*
Y-125730D01*
X605790D01*
X615315Y-144780D02*
Y-147320D01*
X620395D01*
Y-144780D01*
X622935D01*
Y-139700D01*
X620395D01*
Y-137160D01*
X615315D01*
Y-139700D01*
X612775D01*
Y-144780D01*
X615315D01*
X605790Y-163830D02*
Y-166370D01*
X610870D01*
Y-163830D01*
X613410D01*
Y-158750D01*
X610870D01*
Y-156210D01*
X605790D01*
Y-158750D01*
X603250D01*
Y-163830D01*
X605790D01*
Y-201930D02*
Y-204470D01*
X610870D01*
Y-201930D01*
X613410D01*
Y-196850D01*
X610870D01*
Y-194310D01*
X605790D01*
Y-196850D01*
X603250D01*
Y-201930D01*
X605790D01*
Y-278130D02*
Y-280670D01*
X610870D01*
Y-278130D01*
X613410D01*
Y-273050D01*
X610870D01*
Y-270510D01*
X605790D01*
Y-273050D01*
X603250D01*
Y-278130D01*
X605790D01*
Y-316230D02*
Y-318770D01*
X610870D01*
Y-316230D01*
X613410D01*
Y-311150D01*
X610870D01*
Y-308610D01*
X605790D01*
Y-311150D01*
X603250D01*
Y-316230D01*
X605790D01*
Y-354330D02*
Y-356870D01*
X610870D01*
Y-354330D01*
X613410D01*
Y-349250D01*
X610870D01*
Y-346710D01*
X605790D01*
Y-349250D01*
X603250D01*
Y-354330D01*
X605790D01*
X596265Y-30480D02*
Y-33020D01*
X601345D01*
Y-30480D01*
X603885D01*
Y-25400D01*
X601345D01*
Y-22860D01*
X596265D01*
Y-25400D01*
X593725D01*
Y-30480D01*
X596265D01*
X586740Y-49530D02*
Y-52070D01*
X591820D01*
Y-49530D01*
X594360D01*
Y-44450D01*
X591820D01*
Y-41910D01*
X586740D01*
Y-44450D01*
X584200D01*
Y-49530D01*
X586740D01*
Y-87630D02*
Y-90170D01*
X591820D01*
Y-87630D01*
X594360D01*
Y-82550D01*
X591820D01*
Y-80010D01*
X586740D01*
Y-82550D01*
X584200D01*
Y-87630D01*
X586740D01*
X596265Y-106680D02*
Y-109220D01*
X601345D01*
Y-106680D01*
X603885D01*
Y-101600D01*
X601345D01*
Y-99060D01*
X596265D01*
Y-101600D01*
X593725D01*
Y-106680D01*
X596265D01*
X586740Y-125730D02*
Y-128270D01*
X591820D01*
Y-125730D01*
X594360D01*
Y-120650D01*
X591820D01*
Y-118110D01*
X586740D01*
Y-120650D01*
X584200D01*
Y-125730D01*
X586740D01*
X596265Y-182880D02*
Y-185420D01*
X601345D01*
Y-182880D01*
X603885D01*
Y-177800D01*
X601345D01*
Y-175260D01*
X596265D01*
Y-177800D01*
X593725D01*
Y-182880D01*
X596265D01*
X586740Y-201930D02*
Y-204470D01*
X591820D01*
Y-201930D01*
X594360D01*
Y-196850D01*
X591820D01*
Y-194310D01*
X586740D01*
Y-196850D01*
X584200D01*
Y-201930D01*
X586740D01*
X596265Y-220980D02*
Y-223520D01*
X601345D01*
Y-220980D01*
X603885D01*
Y-215900D01*
X601345D01*
Y-213360D01*
X596265D01*
Y-215900D01*
X593725D01*
Y-220980D01*
X596265D01*
Y-259080D02*
Y-261620D01*
X601345D01*
Y-259080D01*
X603885D01*
Y-254000D01*
X601345D01*
Y-251460D01*
X596265D01*
Y-254000D01*
X593725D01*
Y-259080D01*
X596265D01*
X586740Y-278130D02*
Y-280670D01*
X591820D01*
Y-278130D01*
X594360D01*
Y-273050D01*
X591820D01*
Y-270510D01*
X586740D01*
Y-273050D01*
X584200D01*
Y-278130D01*
X586740D01*
X596265Y-297180D02*
Y-299720D01*
X601345D01*
Y-297180D01*
X603885D01*
Y-292100D01*
X601345D01*
Y-289560D01*
X596265D01*
Y-292100D01*
X593725D01*
Y-297180D01*
X596265D01*
X586740Y-316230D02*
Y-318770D01*
X591820D01*
Y-316230D01*
X594360D01*
Y-311150D01*
X591820D01*
Y-308610D01*
X586740D01*
Y-311150D01*
X584200D01*
Y-316230D01*
X586740D01*
X596265Y-335280D02*
Y-337820D01*
X601345D01*
Y-335280D01*
X603885D01*
Y-330200D01*
X601345D01*
Y-327660D01*
X596265D01*
Y-330200D01*
X593725D01*
Y-335280D01*
X596265D01*
X586740Y-354330D02*
Y-356870D01*
X591820D01*
Y-354330D01*
X594360D01*
Y-349250D01*
X591820D01*
Y-346710D01*
X586740D01*
Y-349250D01*
X584200D01*
Y-354330D01*
X586740D01*
X577215Y-30480D02*
Y-33020D01*
X582295D01*
Y-30480D01*
X584835D01*
Y-25400D01*
X582295D01*
Y-22860D01*
X577215D01*
Y-25400D01*
X574675D01*
Y-30480D01*
X577215D01*
X567690Y-49530D02*
Y-52070D01*
X572770D01*
Y-49530D01*
X575310D01*
Y-44450D01*
X572770D01*
Y-41910D01*
X567690D01*
Y-44450D01*
X565150D01*
Y-49530D01*
X567690D01*
Y-87630D02*
Y-90170D01*
X572770D01*
Y-87630D01*
X575310D01*
Y-82550D01*
X572770D01*
Y-80010D01*
X567690D01*
Y-82550D01*
X565150D01*
Y-87630D01*
X567690D01*
X577215Y-106680D02*
Y-109220D01*
X582295D01*
Y-106680D01*
X584835D01*
Y-101600D01*
X582295D01*
Y-99060D01*
X577215D01*
Y-101600D01*
X574675D01*
Y-106680D01*
X577215D01*
X567690Y-125730D02*
Y-128270D01*
X572770D01*
Y-125730D01*
X575310D01*
Y-120650D01*
X572770D01*
Y-118110D01*
X567690D01*
Y-120650D01*
X565150D01*
Y-125730D01*
X567690D01*
X577215Y-182880D02*
Y-185420D01*
X582295D01*
Y-182880D01*
X584835D01*
Y-177800D01*
X582295D01*
Y-175260D01*
X577215D01*
Y-177800D01*
X574675D01*
Y-182880D01*
X577215D01*
X567690Y-201930D02*
Y-204470D01*
X572770D01*
Y-201930D01*
X575310D01*
Y-196850D01*
X572770D01*
Y-194310D01*
X567690D01*
Y-196850D01*
X565150D01*
Y-201930D01*
X567690D01*
X577215Y-220980D02*
Y-223520D01*
X582295D01*
Y-220980D01*
X584835D01*
Y-215900D01*
X582295D01*
Y-213360D01*
X577215D01*
Y-215900D01*
X574675D01*
Y-220980D01*
X577215D01*
Y-259080D02*
Y-261620D01*
X582295D01*
Y-259080D01*
X584835D01*
Y-254000D01*
X582295D01*
Y-251460D01*
X577215D01*
Y-254000D01*
X574675D01*
Y-259080D01*
X577215D01*
Y-297180D02*
Y-299720D01*
X582295D01*
Y-297180D01*
X584835D01*
Y-292100D01*
X582295D01*
Y-289560D01*
X577215D01*
Y-292100D01*
X574675D01*
Y-297180D01*
X577215D01*
X567690Y-316230D02*
Y-318770D01*
X572770D01*
Y-316230D01*
X575310D01*
Y-311150D01*
X572770D01*
Y-308610D01*
X567690D01*
Y-311150D01*
X565150D01*
Y-316230D01*
X567690D01*
X577215Y-335280D02*
Y-337820D01*
X582295D01*
Y-335280D01*
X584835D01*
Y-330200D01*
X582295D01*
Y-327660D01*
X577215D01*
Y-330200D01*
X574675D01*
Y-335280D01*
X577215D01*
X567690Y-354330D02*
Y-356870D01*
X572770D01*
Y-354330D01*
X575310D01*
Y-349250D01*
X572770D01*
Y-346710D01*
X567690D01*
Y-349250D01*
X565150D01*
Y-354330D01*
X567690D01*
X558165Y-30480D02*
Y-33020D01*
X563245D01*
Y-30480D01*
X565785D01*
Y-25400D01*
X563245D01*
Y-22860D01*
X558165D01*
Y-25400D01*
X555625D01*
Y-30480D01*
X558165D01*
X548640Y-49530D02*
Y-52070D01*
X553720D01*
Y-49530D01*
X556260D01*
Y-44450D01*
X553720D01*
Y-41910D01*
X548640D01*
Y-44450D01*
X546100D01*
Y-49530D01*
X548640D01*
Y-87630D02*
Y-90170D01*
X553720D01*
Y-87630D01*
X556260D01*
Y-82550D01*
X553720D01*
Y-80010D01*
X548640D01*
Y-82550D01*
X546100D01*
Y-87630D01*
X548640D01*
X558165Y-106680D02*
Y-109220D01*
X563245D01*
Y-106680D01*
X565785D01*
Y-101600D01*
X563245D01*
Y-99060D01*
X558165D01*
Y-101600D01*
X555625D01*
Y-106680D01*
X558165D01*
X548640Y-125730D02*
Y-128270D01*
X553720D01*
Y-125730D01*
X556260D01*
Y-120650D01*
X553720D01*
Y-118110D01*
X548640D01*
Y-120650D01*
X546100D01*
Y-125730D01*
X548640D01*
X558165Y-182880D02*
Y-185420D01*
X563245D01*
Y-182880D01*
X565785D01*
Y-177800D01*
X563245D01*
Y-175260D01*
X558165D01*
Y-177800D01*
X555625D01*
Y-182880D01*
X558165D01*
X548640Y-201930D02*
Y-204470D01*
X553720D01*
Y-201930D01*
X556260D01*
Y-196850D01*
X553720D01*
Y-194310D01*
X548640D01*
Y-196850D01*
X546100D01*
Y-201930D01*
X548640D01*
X558165Y-220980D02*
Y-223520D01*
X563245D01*
Y-220980D01*
X565785D01*
Y-215900D01*
X563245D01*
Y-213360D01*
X558165D01*
Y-215900D01*
X555625D01*
Y-220980D01*
X558165D01*
Y-297180D02*
Y-299720D01*
X563245D01*
Y-297180D01*
X565785D01*
Y-292100D01*
X563245D01*
Y-289560D01*
X558165D01*
Y-292100D01*
X555625D01*
Y-297180D01*
X558165D01*
X548640Y-316230D02*
Y-318770D01*
X553720D01*
Y-316230D01*
X556260D01*
Y-311150D01*
X553720D01*
Y-308610D01*
X548640D01*
Y-311150D01*
X546100D01*
Y-316230D01*
X548640D01*
X558165Y-335280D02*
Y-337820D01*
X563245D01*
Y-335280D01*
X565785D01*
Y-330200D01*
X563245D01*
Y-327660D01*
X558165D01*
Y-330200D01*
X555625D01*
Y-335280D01*
X558165D01*
X548640Y-354330D02*
Y-356870D01*
X553720D01*
Y-354330D01*
X556260D01*
Y-349250D01*
X553720D01*
Y-346710D01*
X548640D01*
Y-349250D01*
X546100D01*
Y-354330D01*
X548640D01*
X539115Y-30480D02*
Y-33020D01*
X544195D01*
Y-30480D01*
X546735D01*
Y-25400D01*
X544195D01*
Y-22860D01*
X539115D01*
Y-25400D01*
X536575D01*
Y-30480D01*
X539115D01*
X529590Y-49530D02*
Y-52070D01*
X534670D01*
Y-49530D01*
X537210D01*
Y-44450D01*
X534670D01*
Y-41910D01*
X529590D01*
Y-44450D01*
X527050D01*
Y-49530D01*
X529590D01*
Y-87630D02*
Y-90170D01*
X534670D01*
Y-87630D01*
X537210D01*
Y-82550D01*
X534670D01*
Y-80010D01*
X529590D01*
Y-82550D01*
X527050D01*
Y-87630D01*
X529590D01*
X539115Y-106680D02*
Y-109220D01*
X544195D01*
Y-106680D01*
X546735D01*
Y-101600D01*
X544195D01*
Y-99060D01*
X539115D01*
Y-101600D01*
X536575D01*
Y-106680D01*
X539115D01*
X529590Y-125730D02*
Y-128270D01*
X534670D01*
Y-125730D01*
X537210D01*
Y-120650D01*
X534670D01*
Y-118110D01*
X529590D01*
Y-120650D01*
X527050D01*
Y-125730D01*
X529590D01*
X539115Y-182880D02*
Y-185420D01*
X544195D01*
Y-182880D01*
X546735D01*
Y-177800D01*
X544195D01*
Y-175260D01*
X539115D01*
Y-177800D01*
X536575D01*
Y-182880D01*
X539115D01*
X529590Y-201930D02*
Y-204470D01*
X534670D01*
Y-201930D01*
X537210D01*
Y-196850D01*
X534670D01*
Y-194310D01*
X529590D01*
Y-196850D01*
X527050D01*
Y-201930D01*
X529590D01*
X539115Y-220980D02*
Y-223520D01*
X544195D01*
Y-220980D01*
X546735D01*
Y-215900D01*
X544195D01*
Y-213360D01*
X539115D01*
Y-215900D01*
X536575D01*
Y-220980D01*
X539115D01*
Y-297180D02*
Y-299720D01*
X544195D01*
Y-297180D01*
X546735D01*
Y-292100D01*
X544195D01*
Y-289560D01*
X539115D01*
Y-292100D01*
X536575D01*
Y-297180D01*
X539115D01*
X529590Y-316230D02*
Y-318770D01*
X534670D01*
Y-316230D01*
X537210D01*
Y-311150D01*
X534670D01*
Y-308610D01*
X529590D01*
Y-311150D01*
X527050D01*
Y-316230D01*
X529590D01*
X539115Y-335280D02*
Y-337820D01*
X544195D01*
Y-335280D01*
X546735D01*
Y-330200D01*
X544195D01*
Y-327660D01*
X539115D01*
Y-330200D01*
X536575D01*
Y-335280D01*
X539115D01*
X529590Y-354330D02*
Y-356870D01*
X534670D01*
Y-354330D01*
X537210D01*
Y-349250D01*
X534670D01*
Y-346710D01*
X529590D01*
Y-349250D01*
X527050D01*
Y-354330D01*
X529590D01*
X520065Y-30480D02*
Y-33020D01*
X525145D01*
Y-30480D01*
X527685D01*
Y-25400D01*
X525145D01*
Y-22860D01*
X520065D01*
Y-25400D01*
X517525D01*
Y-30480D01*
X520065D01*
X510540Y-49530D02*
Y-52070D01*
X515620D01*
Y-49530D01*
X518160D01*
Y-44450D01*
X515620D01*
Y-41910D01*
X510540D01*
Y-44450D01*
X508000D01*
Y-49530D01*
X510540D01*
X520065Y-68580D02*
Y-71120D01*
X525145D01*
Y-68580D01*
X527685D01*
Y-63500D01*
X525145D01*
Y-60960D01*
X520065D01*
Y-63500D01*
X517525D01*
Y-68580D01*
X520065D01*
Y-106680D02*
Y-109220D01*
X525145D01*
Y-106680D01*
X527685D01*
Y-101600D01*
X525145D01*
Y-99060D01*
X520065D01*
Y-101600D01*
X517525D01*
Y-106680D01*
X520065D01*
X510540Y-125730D02*
Y-128270D01*
X515620D01*
Y-125730D01*
X518160D01*
Y-120650D01*
X515620D01*
Y-118110D01*
X510540D01*
Y-120650D01*
X508000D01*
Y-125730D01*
X510540D01*
X520065Y-182880D02*
Y-185420D01*
X525145D01*
Y-182880D01*
X527685D01*
Y-177800D01*
X525145D01*
Y-175260D01*
X520065D01*
Y-177800D01*
X517525D01*
Y-182880D01*
X520065D01*
X510540Y-201930D02*
Y-204470D01*
X515620D01*
Y-201930D01*
X518160D01*
Y-196850D01*
X515620D01*
Y-194310D01*
X510540D01*
Y-196850D01*
X508000D01*
Y-201930D01*
X510540D01*
X520065Y-220980D02*
Y-223520D01*
X525145D01*
Y-220980D01*
X527685D01*
Y-215900D01*
X525145D01*
Y-213360D01*
X520065D01*
Y-215900D01*
X517525D01*
Y-220980D01*
X520065D01*
Y-259080D02*
Y-261620D01*
X525145D01*
Y-259080D01*
X527685D01*
Y-254000D01*
X525145D01*
Y-251460D01*
X520065D01*
Y-254000D01*
X517525D01*
Y-259080D01*
X520065D01*
X510540Y-278130D02*
Y-280670D01*
X515620D01*
Y-278130D01*
X518160D01*
Y-273050D01*
X515620D01*
Y-270510D01*
X510540D01*
Y-273050D01*
X508000D01*
Y-278130D01*
X510540D01*
X520065Y-297180D02*
Y-299720D01*
X525145D01*
Y-297180D01*
X527685D01*
Y-292100D01*
X525145D01*
Y-289560D01*
X520065D01*
Y-292100D01*
X517525D01*
Y-297180D01*
X520065D01*
X510540Y-316230D02*
Y-318770D01*
X515620D01*
Y-316230D01*
X518160D01*
Y-311150D01*
X515620D01*
Y-308610D01*
X510540D01*
Y-311150D01*
X508000D01*
Y-316230D01*
X510540D01*
X520065Y-335280D02*
Y-337820D01*
X525145D01*
Y-335280D01*
X527685D01*
Y-330200D01*
X525145D01*
Y-327660D01*
X520065D01*
Y-330200D01*
X517525D01*
Y-335280D01*
X520065D01*
X510540Y-354330D02*
Y-356870D01*
X515620D01*
Y-354330D01*
X518160D01*
Y-349250D01*
X515620D01*
Y-346710D01*
X510540D01*
Y-349250D01*
X508000D01*
Y-354330D01*
X510540D01*
X501015Y-30480D02*
Y-33020D01*
X506095D01*
Y-30480D01*
X508635D01*
Y-25400D01*
X506095D01*
Y-22860D01*
X501015D01*
Y-25400D01*
X498475D01*
Y-30480D01*
X501015D01*
Y-182880D02*
Y-185420D01*
X506095D01*
Y-182880D01*
X508635D01*
Y-177800D01*
X506095D01*
Y-175260D01*
X501015D01*
Y-177800D01*
X498475D01*
Y-182880D01*
X501015D01*
X491490Y-201930D02*
Y-204470D01*
X496570D01*
Y-201930D01*
X499110D01*
Y-196850D01*
X496570D01*
Y-194310D01*
X491490D01*
Y-196850D01*
X488950D01*
Y-201930D01*
X491490D01*
X501015Y-259080D02*
Y-261620D01*
X506095D01*
Y-259080D01*
X508635D01*
Y-254000D01*
X506095D01*
Y-251460D01*
X501015D01*
Y-254000D01*
X498475D01*
Y-259080D01*
X501015D01*
X491490Y-278130D02*
Y-280670D01*
X496570D01*
Y-278130D01*
X499110D01*
Y-273050D01*
X496570D01*
Y-270510D01*
X491490D01*
Y-273050D01*
X488950D01*
Y-278130D01*
X491490D01*
X501015Y-297180D02*
Y-299720D01*
X506095D01*
Y-297180D01*
X508635D01*
Y-292100D01*
X506095D01*
Y-289560D01*
X501015D01*
Y-292100D01*
X498475D01*
Y-297180D01*
X501015D01*
X491490Y-316230D02*
Y-318770D01*
X496570D01*
Y-316230D01*
X499110D01*
Y-311150D01*
X496570D01*
Y-308610D01*
X491490D01*
Y-311150D01*
X488950D01*
Y-316230D01*
X491490D01*
X501015Y-335280D02*
Y-337820D01*
X506095D01*
Y-335280D01*
X508635D01*
Y-330200D01*
X506095D01*
Y-327660D01*
X501015D01*
Y-330200D01*
X498475D01*
Y-335280D01*
X501015D01*
X491490Y-354330D02*
Y-356870D01*
X496570D01*
Y-354330D01*
X499110D01*
Y-349250D01*
X496570D01*
Y-346710D01*
X491490D01*
Y-349250D01*
X488950D01*
Y-354330D01*
X491490D01*
X481965Y-30480D02*
Y-33020D01*
X487045D01*
Y-30480D01*
X489585D01*
Y-25400D01*
X487045D01*
Y-22860D01*
X481965D01*
Y-25400D01*
X479425D01*
Y-30480D01*
X481965D01*
X472440Y-49530D02*
Y-52070D01*
X477520D01*
Y-49530D01*
X480060D01*
Y-44450D01*
X477520D01*
Y-41910D01*
X472440D01*
Y-44450D01*
X469900D01*
Y-49530D01*
X472440D01*
Y-87630D02*
Y-90170D01*
X477520D01*
Y-87630D01*
X480060D01*
Y-82550D01*
X477520D01*
Y-80010D01*
X472440D01*
Y-82550D01*
X469900D01*
Y-87630D01*
X472440D01*
Y-163830D02*
Y-166370D01*
X477520D01*
Y-163830D01*
X480060D01*
Y-158750D01*
X477520D01*
Y-156210D01*
X472440D01*
Y-158750D01*
X469900D01*
Y-163830D01*
X472440D01*
X481965Y-182880D02*
Y-185420D01*
X487045D01*
Y-182880D01*
X489585D01*
Y-177800D01*
X487045D01*
Y-175260D01*
X481965D01*
Y-177800D01*
X479425D01*
Y-182880D01*
X481965D01*
X472440Y-201930D02*
Y-204470D01*
X477520D01*
Y-201930D01*
X480060D01*
Y-196850D01*
X477520D01*
Y-194310D01*
X472440D01*
Y-196850D01*
X469900D01*
Y-201930D01*
X472440D01*
X481965Y-259080D02*
Y-261620D01*
X487045D01*
Y-259080D01*
X489585D01*
Y-254000D01*
X487045D01*
Y-251460D01*
X481965D01*
Y-254000D01*
X479425D01*
Y-259080D01*
X481965D01*
X472440Y-278130D02*
Y-280670D01*
X477520D01*
Y-278130D01*
X480060D01*
Y-273050D01*
X477520D01*
Y-270510D01*
X472440D01*
Y-273050D01*
X469900D01*
Y-278130D01*
X472440D01*
X481965Y-297180D02*
Y-299720D01*
X487045D01*
Y-297180D01*
X489585D01*
Y-292100D01*
X487045D01*
Y-289560D01*
X481965D01*
Y-292100D01*
X479425D01*
Y-297180D01*
X481965D01*
X472440Y-316230D02*
Y-318770D01*
X477520D01*
Y-316230D01*
X480060D01*
Y-311150D01*
X477520D01*
Y-308610D01*
X472440D01*
Y-311150D01*
X469900D01*
Y-316230D01*
X472440D01*
X481965Y-335280D02*
Y-337820D01*
X487045D01*
Y-335280D01*
X489585D01*
Y-330200D01*
X487045D01*
Y-327660D01*
X481965D01*
Y-330200D01*
X479425D01*
Y-335280D01*
X481965D01*
X472440Y-354330D02*
Y-356870D01*
X477520D01*
Y-354330D01*
X480060D01*
Y-349250D01*
X477520D01*
Y-346710D01*
X472440D01*
Y-349250D01*
X469900D01*
Y-354330D01*
X472440D01*
X453390Y-49530D02*
Y-52070D01*
X458470D01*
Y-49530D01*
X461010D01*
Y-44450D01*
X458470D01*
Y-41910D01*
X453390D01*
Y-44450D01*
X450850D01*
Y-49530D01*
X453390D01*
Y-87630D02*
Y-90170D01*
X458470D01*
Y-87630D01*
X461010D01*
Y-82550D01*
X458470D01*
Y-80010D01*
X453390D01*
Y-82550D01*
X450850D01*
Y-87630D01*
X453390D01*
Y-354330D02*
Y-356870D01*
X458470D01*
Y-354330D01*
X461010D01*
Y-349250D01*
X458470D01*
Y-346710D01*
X453390D01*
Y-349250D01*
X450850D01*
Y-354330D01*
X453390D01*
X434340Y-49530D02*
Y-52070D01*
X439420D01*
Y-49530D01*
X441960D01*
Y-44450D01*
X439420D01*
Y-41910D01*
X434340D01*
Y-44450D01*
X431800D01*
Y-49530D01*
X434340D01*
X443865Y-106680D02*
Y-109220D01*
X448945D01*
Y-106680D01*
X451485D01*
Y-101600D01*
X448945D01*
Y-99060D01*
X443865D01*
Y-101600D01*
X441325D01*
Y-106680D01*
X443865D01*
X434340Y-125730D02*
Y-128270D01*
X439420D01*
Y-125730D01*
X441960D01*
Y-120650D01*
X439420D01*
Y-118110D01*
X434340D01*
Y-120650D01*
X431800D01*
Y-125730D01*
X434340D01*
X443865Y-144780D02*
Y-147320D01*
X448945D01*
Y-144780D01*
X451485D01*
Y-139700D01*
X448945D01*
Y-137160D01*
X443865D01*
Y-139700D01*
X441325D01*
Y-144780D01*
X443865D01*
X434340Y-163830D02*
Y-166370D01*
X439420D01*
Y-163830D01*
X441960D01*
Y-158750D01*
X439420D01*
Y-156210D01*
X434340D01*
Y-158750D01*
X431800D01*
Y-163830D01*
X434340D01*
Y-201930D02*
Y-204470D01*
X439420D01*
Y-201930D01*
X441960D01*
Y-196850D01*
X439420D01*
Y-194310D01*
X434340D01*
Y-196850D01*
X431800D01*
Y-201930D01*
X434340D01*
Y-278130D02*
Y-280670D01*
X439420D01*
Y-278130D01*
X441960D01*
Y-273050D01*
X439420D01*
Y-270510D01*
X434340D01*
Y-273050D01*
X431800D01*
Y-278130D01*
X434340D01*
Y-316230D02*
Y-318770D01*
X439420D01*
Y-316230D01*
X441960D01*
Y-311150D01*
X439420D01*
Y-308610D01*
X434340D01*
Y-311150D01*
X431800D01*
Y-316230D01*
X434340D01*
Y-354330D02*
Y-356870D01*
X439420D01*
Y-354330D01*
X441960D01*
Y-349250D01*
X439420D01*
Y-346710D01*
X434340D01*
Y-349250D01*
X431800D01*
Y-354330D01*
X434340D01*
X424815Y-144780D02*
Y-147320D01*
X429895D01*
Y-144780D01*
X432435D01*
Y-139700D01*
X429895D01*
Y-137160D01*
X424815D01*
Y-139700D01*
X422275D01*
Y-144780D01*
X424815D01*
Y-182880D02*
Y-185420D01*
X429895D01*
Y-182880D01*
X432435D01*
Y-177800D01*
X429895D01*
Y-175260D01*
X424815D01*
Y-177800D01*
X422275D01*
Y-182880D01*
X424815D01*
Y-259080D02*
Y-261620D01*
X429895D01*
Y-259080D01*
X432435D01*
Y-254000D01*
X429895D01*
Y-251460D01*
X424815D01*
Y-254000D01*
X422275D01*
Y-259080D01*
X424815D01*
X415290Y-316230D02*
Y-318770D01*
X420370D01*
Y-316230D01*
X422910D01*
Y-311150D01*
X420370D01*
Y-308610D01*
X415290D01*
Y-311150D01*
X412750D01*
Y-316230D01*
X415290D01*
X424815Y-335280D02*
Y-337820D01*
X429895D01*
Y-335280D01*
X432435D01*
Y-330200D01*
X429895D01*
Y-327660D01*
X424815D01*
Y-330200D01*
X422275D01*
Y-335280D01*
X424815D01*
X415290Y-354330D02*
Y-356870D01*
X420370D01*
Y-354330D01*
X422910D01*
Y-349250D01*
X420370D01*
Y-346710D01*
X415290D01*
Y-349250D01*
X412750D01*
Y-354330D01*
X415290D01*
X396240Y-49530D02*
Y-52070D01*
X401320D01*
Y-49530D01*
X403860D01*
Y-44450D01*
X401320D01*
Y-41910D01*
X396240D01*
Y-44450D01*
X393700D01*
Y-49530D01*
X396240D01*
Y-87630D02*
Y-90170D01*
X401320D01*
Y-87630D01*
X403860D01*
Y-82550D01*
X401320D01*
Y-80010D01*
X396240D01*
Y-82550D01*
X393700D01*
Y-87630D01*
X396240D01*
Y-125730D02*
Y-128270D01*
X401320D01*
Y-125730D01*
X403860D01*
Y-120650D01*
X401320D01*
Y-118110D01*
X396240D01*
Y-120650D01*
X393700D01*
Y-125730D01*
X396240D01*
Y-163830D02*
Y-166370D01*
X401320D01*
Y-163830D01*
X403860D01*
Y-158750D01*
X401320D01*
Y-156210D01*
X396240D01*
Y-158750D01*
X393700D01*
Y-163830D01*
X396240D01*
Y-201930D02*
Y-204470D01*
X401320D01*
Y-201930D01*
X403860D01*
Y-196850D01*
X401320D01*
Y-194310D01*
X396240D01*
Y-196850D01*
X393700D01*
Y-201930D01*
X396240D01*
Y-240030D02*
Y-242570D01*
X401320D01*
Y-240030D01*
X403860D01*
Y-234950D01*
X401320D01*
Y-232410D01*
X396240D01*
Y-234950D01*
X393700D01*
Y-240030D01*
X396240D01*
X405765Y-297180D02*
Y-299720D01*
X410845D01*
Y-297180D01*
X413385D01*
Y-292100D01*
X410845D01*
Y-289560D01*
X405765D01*
Y-292100D01*
X403225D01*
Y-297180D01*
X405765D01*
X396240Y-316230D02*
Y-318770D01*
X401320D01*
Y-316230D01*
X403860D01*
Y-311150D01*
X401320D01*
Y-308610D01*
X396240D01*
Y-311150D01*
X393700D01*
Y-316230D01*
X396240D01*
X405765Y-335280D02*
Y-337820D01*
X410845D01*
Y-335280D01*
X413385D01*
Y-330200D01*
X410845D01*
Y-327660D01*
X405765D01*
Y-330200D01*
X403225D01*
Y-335280D01*
X405765D01*
X396240Y-354330D02*
Y-356870D01*
X401320D01*
Y-354330D01*
X403860D01*
Y-349250D01*
X401320D01*
Y-346710D01*
X396240D01*
Y-349250D01*
X393700D01*
Y-354330D01*
X396240D01*
X386715Y-68580D02*
Y-71120D01*
X391795D01*
Y-68580D01*
X394335D01*
Y-63500D01*
X391795D01*
Y-60960D01*
X386715D01*
Y-63500D01*
X384175D01*
Y-68580D01*
X386715D01*
Y-106680D02*
Y-109220D01*
X391795D01*
Y-106680D01*
X394335D01*
Y-101600D01*
X391795D01*
Y-99060D01*
X386715D01*
Y-101600D01*
X384175D01*
Y-106680D01*
X386715D01*
Y-144780D02*
Y-147320D01*
X391795D01*
Y-144780D01*
X394335D01*
Y-139700D01*
X391795D01*
Y-137160D01*
X386715D01*
Y-139700D01*
X384175D01*
Y-144780D01*
X386715D01*
X377190Y-163830D02*
Y-166370D01*
X382270D01*
Y-163830D01*
X384810D01*
Y-158750D01*
X382270D01*
Y-156210D01*
X377190D01*
Y-158750D01*
X374650D01*
Y-163830D01*
X377190D01*
X386715Y-182880D02*
Y-185420D01*
X391795D01*
Y-182880D01*
X394335D01*
Y-177800D01*
X391795D01*
Y-175260D01*
X386715D01*
Y-177800D01*
X384175D01*
Y-182880D01*
X386715D01*
X377190Y-201930D02*
Y-204470D01*
X382270D01*
Y-201930D01*
X384810D01*
Y-196850D01*
X382270D01*
Y-194310D01*
X377190D01*
Y-196850D01*
X374650D01*
Y-201930D01*
X377190D01*
Y-240030D02*
Y-242570D01*
X382270D01*
Y-240030D01*
X384810D01*
Y-234950D01*
X382270D01*
Y-232410D01*
X377190D01*
Y-234950D01*
X374650D01*
Y-240030D01*
X377190D01*
Y-316230D02*
Y-318770D01*
X382270D01*
Y-316230D01*
X384810D01*
Y-311150D01*
X382270D01*
Y-308610D01*
X377190D01*
Y-311150D01*
X374650D01*
Y-316230D01*
X377190D01*
Y-354330D02*
Y-356870D01*
X382270D01*
Y-354330D01*
X384810D01*
Y-349250D01*
X382270D01*
Y-346710D01*
X377190D01*
Y-349250D01*
X374650D01*
Y-354330D01*
X377190D01*
X367665Y-30480D02*
Y-33020D01*
X372745D01*
Y-30480D01*
X375285D01*
Y-25400D01*
X372745D01*
Y-22860D01*
X367665D01*
Y-25400D01*
X365125D01*
Y-30480D01*
X367665D01*
X358140Y-49530D02*
Y-52070D01*
X363220D01*
Y-49530D01*
X365760D01*
Y-44450D01*
X363220D01*
Y-41910D01*
X358140D01*
Y-44450D01*
X355600D01*
Y-49530D01*
X358140D01*
Y-201930D02*
Y-204470D01*
X363220D01*
Y-201930D01*
X365760D01*
Y-196850D01*
X363220D01*
Y-194310D01*
X358140D01*
Y-196850D01*
X355600D01*
Y-201930D01*
X358140D01*
Y-240030D02*
Y-242570D01*
X363220D01*
Y-240030D01*
X365760D01*
Y-234950D01*
X363220D01*
Y-232410D01*
X358140D01*
Y-234950D01*
X355600D01*
Y-240030D01*
X358140D01*
X367665Y-259080D02*
Y-261620D01*
X372745D01*
Y-259080D01*
X375285D01*
Y-254000D01*
X372745D01*
Y-251460D01*
X367665D01*
Y-254000D01*
X365125D01*
Y-259080D01*
X367665D01*
X358140Y-278130D02*
Y-280670D01*
X363220D01*
Y-278130D01*
X365760D01*
Y-273050D01*
X363220D01*
Y-270510D01*
X358140D01*
Y-273050D01*
X355600D01*
Y-278130D01*
X358140D01*
X367665Y-297180D02*
Y-299720D01*
X372745D01*
Y-297180D01*
X375285D01*
Y-292100D01*
X372745D01*
Y-289560D01*
X367665D01*
Y-292100D01*
X365125D01*
Y-297180D01*
X367665D01*
X358140Y-316230D02*
Y-318770D01*
X363220D01*
Y-316230D01*
X365760D01*
Y-311150D01*
X363220D01*
Y-308610D01*
X358140D01*
Y-311150D01*
X355600D01*
Y-316230D01*
X358140D01*
Y-354330D02*
Y-356870D01*
X363220D01*
Y-354330D01*
X365760D01*
Y-349250D01*
X363220D01*
Y-346710D01*
X358140D01*
Y-349250D01*
X355600D01*
Y-354330D01*
X358140D01*
X348615Y-30480D02*
Y-33020D01*
X353695D01*
Y-30480D01*
X356235D01*
Y-25400D01*
X353695D01*
Y-22860D01*
X348615D01*
Y-25400D01*
X346075D01*
Y-30480D01*
X348615D01*
X339090Y-49530D02*
Y-52070D01*
X344170D01*
Y-49530D01*
X346710D01*
Y-44450D01*
X344170D01*
Y-41910D01*
X339090D01*
Y-44450D01*
X336550D01*
Y-49530D01*
X339090D01*
X348615Y-68580D02*
Y-71120D01*
X353695D01*
Y-68580D01*
X356235D01*
Y-63500D01*
X353695D01*
Y-60960D01*
X348615D01*
Y-63500D01*
X346075D01*
Y-68580D01*
X348615D01*
X339090Y-87630D02*
Y-90170D01*
X344170D01*
Y-87630D01*
X346710D01*
Y-82550D01*
X344170D01*
Y-80010D01*
X339090D01*
Y-82550D01*
X336550D01*
Y-87630D01*
X339090D01*
X348615Y-144780D02*
Y-147320D01*
X353695D01*
Y-144780D01*
X356235D01*
Y-139700D01*
X353695D01*
Y-137160D01*
X348615D01*
Y-139700D01*
X346075D01*
Y-144780D01*
X348615D01*
X339090Y-201930D02*
Y-204470D01*
X344170D01*
Y-201930D01*
X346710D01*
Y-196850D01*
X344170D01*
Y-194310D01*
X339090D01*
Y-196850D01*
X336550D01*
Y-201930D01*
X339090D01*
X348615Y-220980D02*
Y-223520D01*
X353695D01*
Y-220980D01*
X356235D01*
Y-215900D01*
X353695D01*
Y-213360D01*
X348615D01*
Y-215900D01*
X346075D01*
Y-220980D01*
X348615D01*
Y-259080D02*
Y-261620D01*
X353695D01*
Y-259080D01*
X356235D01*
Y-254000D01*
X353695D01*
Y-251460D01*
X348615D01*
Y-254000D01*
X346075D01*
Y-259080D01*
X348615D01*
X339090Y-278130D02*
Y-280670D01*
X344170D01*
Y-278130D01*
X346710D01*
Y-273050D01*
X344170D01*
Y-270510D01*
X339090D01*
Y-273050D01*
X336550D01*
Y-278130D01*
X339090D01*
X348615Y-297180D02*
Y-299720D01*
X353695D01*
Y-297180D01*
X356235D01*
Y-292100D01*
X353695D01*
Y-289560D01*
X348615D01*
Y-292100D01*
X346075D01*
Y-297180D01*
X348615D01*
X339090Y-316230D02*
Y-318770D01*
X344170D01*
Y-316230D01*
X346710D01*
Y-311150D01*
X344170D01*
Y-308610D01*
X339090D01*
Y-311150D01*
X336550D01*
Y-316230D01*
X339090D01*
X348615Y-335280D02*
Y-337820D01*
X353695D01*
Y-335280D01*
X356235D01*
Y-330200D01*
X353695D01*
Y-327660D01*
X348615D01*
Y-330200D01*
X346075D01*
Y-335280D01*
X348615D01*
X339090Y-354330D02*
Y-356870D01*
X344170D01*
Y-354330D01*
X346710D01*
Y-349250D01*
X344170D01*
Y-346710D01*
X339090D01*
Y-349250D01*
X336550D01*
Y-354330D01*
X339090D01*
X329565Y-30480D02*
Y-33020D01*
X334645D01*
Y-30480D01*
X337185D01*
Y-25400D01*
X334645D01*
Y-22860D01*
X329565D01*
Y-25400D01*
X327025D01*
Y-30480D01*
X329565D01*
X320040Y-49530D02*
Y-52070D01*
X325120D01*
Y-49530D01*
X327660D01*
Y-44450D01*
X325120D01*
Y-41910D01*
X320040D01*
Y-44450D01*
X317500D01*
Y-49530D01*
X320040D01*
X329565Y-68580D02*
Y-71120D01*
X334645D01*
Y-68580D01*
X337185D01*
Y-63500D01*
X334645D01*
Y-60960D01*
X329565D01*
Y-63500D01*
X327025D01*
Y-68580D01*
X329565D01*
Y-220980D02*
Y-223520D01*
X334645D01*
Y-220980D01*
X337185D01*
Y-215900D01*
X334645D01*
Y-213360D01*
X329565D01*
Y-215900D01*
X327025D01*
Y-220980D01*
X329565D01*
Y-259080D02*
Y-261620D01*
X334645D01*
Y-259080D01*
X337185D01*
Y-254000D01*
X334645D01*
Y-251460D01*
X329565D01*
Y-254000D01*
X327025D01*
Y-259080D01*
X329565D01*
Y-297180D02*
Y-299720D01*
X334645D01*
Y-297180D01*
X337185D01*
Y-292100D01*
X334645D01*
Y-289560D01*
X329565D01*
Y-292100D01*
X327025D01*
Y-297180D01*
X329565D01*
X320040Y-316230D02*
Y-318770D01*
X325120D01*
Y-316230D01*
X327660D01*
Y-311150D01*
X325120D01*
Y-308610D01*
X320040D01*
Y-311150D01*
X317500D01*
Y-316230D01*
X320040D01*
X329565Y-335280D02*
Y-337820D01*
X334645D01*
Y-335280D01*
X337185D01*
Y-330200D01*
X334645D01*
Y-327660D01*
X329565D01*
Y-330200D01*
X327025D01*
Y-335280D01*
X329565D01*
X320040Y-354330D02*
Y-356870D01*
X325120D01*
Y-354330D01*
X327660D01*
Y-349250D01*
X325120D01*
Y-346710D01*
X320040D01*
Y-349250D01*
X317500D01*
Y-354330D01*
X320040D01*
X310515Y-30480D02*
Y-33020D01*
X315595D01*
Y-30480D01*
X318135D01*
Y-25400D01*
X315595D01*
Y-22860D01*
X310515D01*
Y-25400D01*
X307975D01*
Y-30480D01*
X310515D01*
X300990Y-49530D02*
Y-52070D01*
X306070D01*
Y-49530D01*
X308610D01*
Y-44450D01*
X306070D01*
Y-41910D01*
X300990D01*
Y-44450D01*
X298450D01*
Y-49530D01*
X300990D01*
Y-125730D02*
Y-128270D01*
X306070D01*
Y-125730D01*
X308610D01*
Y-120650D01*
X306070D01*
Y-118110D01*
X300990D01*
Y-120650D01*
X298450D01*
Y-125730D01*
X300990D01*
X310515Y-220980D02*
Y-223520D01*
X315595D01*
Y-220980D01*
X318135D01*
Y-215900D01*
X315595D01*
Y-213360D01*
X310515D01*
Y-215900D01*
X307975D01*
Y-220980D01*
X310515D01*
X300990Y-316230D02*
Y-318770D01*
X306070D01*
Y-316230D01*
X308610D01*
Y-311150D01*
X306070D01*
Y-308610D01*
X300990D01*
Y-311150D01*
X298450D01*
Y-316230D01*
X300990D01*
X310515Y-335280D02*
Y-337820D01*
X315595D01*
Y-335280D01*
X318135D01*
Y-330200D01*
X315595D01*
Y-327660D01*
X310515D01*
Y-330200D01*
X307975D01*
Y-335280D01*
X310515D01*
X300990Y-354330D02*
Y-356870D01*
X306070D01*
Y-354330D01*
X308610D01*
Y-349250D01*
X306070D01*
Y-346710D01*
X300990D01*
Y-349250D01*
X298450D01*
Y-354330D01*
X300990D01*
X291465Y-30480D02*
Y-33020D01*
X296545D01*
Y-30480D01*
X299085D01*
Y-25400D01*
X296545D01*
Y-22860D01*
X291465D01*
Y-25400D01*
X288925D01*
Y-30480D01*
X291465D01*
X281940Y-49530D02*
Y-52070D01*
X287020D01*
Y-49530D01*
X289560D01*
Y-44450D01*
X287020D01*
Y-41910D01*
X281940D01*
Y-44450D01*
X279400D01*
Y-49530D01*
X281940D01*
Y-87630D02*
Y-90170D01*
X287020D01*
Y-87630D01*
X289560D01*
Y-82550D01*
X287020D01*
Y-80010D01*
X281940D01*
Y-82550D01*
X279400D01*
Y-87630D01*
X281940D01*
Y-125730D02*
Y-128270D01*
X287020D01*
Y-125730D01*
X289560D01*
Y-120650D01*
X287020D01*
Y-118110D01*
X281940D01*
Y-120650D01*
X279400D01*
Y-125730D01*
X281940D01*
X291465Y-182880D02*
Y-185420D01*
X296545D01*
Y-182880D01*
X299085D01*
Y-177800D01*
X296545D01*
Y-175260D01*
X291465D01*
Y-177800D01*
X288925D01*
Y-182880D01*
X291465D01*
X281940Y-201930D02*
Y-204470D01*
X287020D01*
Y-201930D01*
X289560D01*
Y-196850D01*
X287020D01*
Y-194310D01*
X281940D01*
Y-196850D01*
X279400D01*
Y-201930D01*
X281940D01*
Y-240030D02*
Y-242570D01*
X287020D01*
Y-240030D01*
X289560D01*
Y-234950D01*
X287020D01*
Y-232410D01*
X281940D01*
Y-234950D01*
X279400D01*
Y-240030D01*
X281940D01*
X291465Y-259080D02*
Y-261620D01*
X296545D01*
Y-259080D01*
X299085D01*
Y-254000D01*
X296545D01*
Y-251460D01*
X291465D01*
Y-254000D01*
X288925D01*
Y-259080D01*
X291465D01*
X281940Y-278130D02*
Y-280670D01*
X287020D01*
Y-278130D01*
X289560D01*
Y-273050D01*
X287020D01*
Y-270510D01*
X281940D01*
Y-273050D01*
X279400D01*
Y-278130D01*
X281940D01*
Y-316230D02*
Y-318770D01*
X287020D01*
Y-316230D01*
X289560D01*
Y-311150D01*
X287020D01*
Y-308610D01*
X281940D01*
Y-311150D01*
X279400D01*
Y-316230D01*
X281940D01*
X291465Y-335280D02*
Y-337820D01*
X296545D01*
Y-335280D01*
X299085D01*
Y-330200D01*
X296545D01*
Y-327660D01*
X291465D01*
Y-330200D01*
X288925D01*
Y-335280D01*
X291465D01*
X281940Y-354330D02*
Y-356870D01*
X287020D01*
Y-354330D01*
X289560D01*
Y-349250D01*
X287020D01*
Y-346710D01*
X281940D01*
Y-349250D01*
X279400D01*
Y-354330D01*
X281940D01*
X272415Y-30480D02*
Y-33020D01*
X277495D01*
Y-30480D01*
X280035D01*
Y-25400D01*
X277495D01*
Y-22860D01*
X272415D01*
Y-25400D01*
X269875D01*
Y-30480D01*
X272415D01*
X262890Y-49530D02*
Y-52070D01*
X267970D01*
Y-49530D01*
X270510D01*
Y-44450D01*
X267970D01*
Y-41910D01*
X262890D01*
Y-44450D01*
X260350D01*
Y-49530D01*
X262890D01*
X272415Y-68580D02*
Y-71120D01*
X277495D01*
Y-68580D01*
X280035D01*
Y-63500D01*
X277495D01*
Y-60960D01*
X272415D01*
Y-63500D01*
X269875D01*
Y-68580D01*
X272415D01*
X262890Y-87630D02*
Y-90170D01*
X267970D01*
Y-87630D01*
X270510D01*
Y-82550D01*
X267970D01*
Y-80010D01*
X262890D01*
Y-82550D01*
X260350D01*
Y-87630D01*
X262890D01*
Y-125730D02*
Y-128270D01*
X267970D01*
Y-125730D01*
X270510D01*
Y-120650D01*
X267970D01*
Y-118110D01*
X262890D01*
Y-120650D01*
X260350D01*
Y-125730D01*
X262890D01*
X272415Y-182880D02*
Y-185420D01*
X277495D01*
Y-182880D01*
X280035D01*
Y-177800D01*
X277495D01*
Y-175260D01*
X272415D01*
Y-177800D01*
X269875D01*
Y-182880D01*
X272415D01*
X262890Y-201930D02*
Y-204470D01*
X267970D01*
Y-201930D01*
X270510D01*
Y-196850D01*
X267970D01*
Y-194310D01*
X262890D01*
Y-196850D01*
X260350D01*
Y-201930D01*
X262890D01*
X272415Y-220980D02*
Y-223520D01*
X277495D01*
Y-220980D01*
X280035D01*
Y-215900D01*
X277495D01*
Y-213360D01*
X272415D01*
Y-215900D01*
X269875D01*
Y-220980D01*
X272415D01*
Y-259080D02*
Y-261620D01*
X277495D01*
Y-259080D01*
X280035D01*
Y-254000D01*
X277495D01*
Y-251460D01*
X272415D01*
Y-254000D01*
X269875D01*
Y-259080D01*
X272415D01*
Y-297180D02*
Y-299720D01*
X277495D01*
Y-297180D01*
X280035D01*
Y-292100D01*
X277495D01*
Y-289560D01*
X272415D01*
Y-292100D01*
X269875D01*
Y-297180D01*
X272415D01*
X262890Y-316230D02*
Y-318770D01*
X267970D01*
Y-316230D01*
X270510D01*
Y-311150D01*
X267970D01*
Y-308610D01*
X262890D01*
Y-311150D01*
X260350D01*
Y-316230D01*
X262890D01*
X272415Y-335280D02*
Y-337820D01*
X277495D01*
Y-335280D01*
X280035D01*
Y-330200D01*
X277495D01*
Y-327660D01*
X272415D01*
Y-330200D01*
X269875D01*
Y-335280D01*
X272415D01*
X262890Y-354330D02*
Y-356870D01*
X267970D01*
Y-354330D01*
X270510D01*
Y-349250D01*
X267970D01*
Y-346710D01*
X262890D01*
Y-349250D01*
X260350D01*
Y-354330D01*
X262890D01*
X253365Y-30480D02*
Y-33020D01*
X258445D01*
Y-30480D01*
X260985D01*
Y-25400D01*
X258445D01*
Y-22860D01*
X253365D01*
Y-25400D01*
X250825D01*
Y-30480D01*
X253365D01*
X243840Y-49530D02*
Y-52070D01*
X248920D01*
Y-49530D01*
X251460D01*
Y-44450D01*
X248920D01*
Y-41910D01*
X243840D01*
Y-44450D01*
X241300D01*
Y-49530D01*
X243840D01*
X253365Y-68580D02*
Y-71120D01*
X258445D01*
Y-68580D01*
X260985D01*
Y-63500D01*
X258445D01*
Y-60960D01*
X253365D01*
Y-63500D01*
X250825D01*
Y-68580D01*
X253365D01*
X243840Y-87630D02*
Y-90170D01*
X248920D01*
Y-87630D01*
X251460D01*
Y-82550D01*
X248920D01*
Y-80010D01*
X243840D01*
Y-82550D01*
X241300D01*
Y-87630D01*
X243840D01*
Y-125730D02*
Y-128270D01*
X248920D01*
Y-125730D01*
X251460D01*
Y-120650D01*
X248920D01*
Y-118110D01*
X243840D01*
Y-120650D01*
X241300D01*
Y-125730D01*
X243840D01*
Y-163830D02*
Y-166370D01*
X248920D01*
Y-163830D01*
X251460D01*
Y-158750D01*
X248920D01*
Y-156210D01*
X243840D01*
Y-158750D01*
X241300D01*
Y-163830D01*
X243840D01*
X253365Y-182880D02*
Y-185420D01*
X258445D01*
Y-182880D01*
X260985D01*
Y-177800D01*
X258445D01*
Y-175260D01*
X253365D01*
Y-177800D01*
X250825D01*
Y-182880D01*
X253365D01*
X243840Y-201930D02*
Y-204470D01*
X248920D01*
Y-201930D01*
X251460D01*
Y-196850D01*
X248920D01*
Y-194310D01*
X243840D01*
Y-196850D01*
X241300D01*
Y-201930D01*
X243840D01*
X253365Y-220980D02*
Y-223520D01*
X258445D01*
Y-220980D01*
X260985D01*
Y-215900D01*
X258445D01*
Y-213360D01*
X253365D01*
Y-215900D01*
X250825D01*
Y-220980D01*
X253365D01*
X243840Y-240030D02*
Y-242570D01*
X248920D01*
Y-240030D01*
X251460D01*
Y-234950D01*
X248920D01*
Y-232410D01*
X243840D01*
Y-234950D01*
X241300D01*
Y-240030D01*
X243840D01*
Y-316230D02*
Y-318770D01*
X248920D01*
Y-316230D01*
X251460D01*
Y-311150D01*
X248920D01*
Y-308610D01*
X243840D01*
Y-311150D01*
X241300D01*
Y-316230D01*
X243840D01*
X253365Y-335280D02*
Y-337820D01*
X258445D01*
Y-335280D01*
X260985D01*
Y-330200D01*
X258445D01*
Y-327660D01*
X253365D01*
Y-330200D01*
X250825D01*
Y-335280D01*
X253365D01*
X243840Y-354330D02*
Y-356870D01*
X248920D01*
Y-354330D01*
X251460D01*
Y-349250D01*
X248920D01*
Y-346710D01*
X243840D01*
Y-349250D01*
X241300D01*
Y-354330D01*
X243840D01*
X234315Y-30480D02*
Y-33020D01*
X239395D01*
Y-30480D01*
X241935D01*
Y-25400D01*
X239395D01*
Y-22860D01*
X234315D01*
Y-25400D01*
X231775D01*
Y-30480D01*
X234315D01*
Y-68580D02*
Y-71120D01*
X239395D01*
Y-68580D01*
X241935D01*
Y-63500D01*
X239395D01*
Y-60960D01*
X234315D01*
Y-63500D01*
X231775D01*
Y-68580D01*
X234315D01*
Y-106680D02*
Y-109220D01*
X239395D01*
Y-106680D01*
X241935D01*
Y-101600D01*
X239395D01*
Y-99060D01*
X234315D01*
Y-101600D01*
X231775D01*
Y-106680D01*
X234315D01*
X224790Y-125730D02*
Y-128270D01*
X229870D01*
Y-125730D01*
X232410D01*
Y-120650D01*
X229870D01*
Y-118110D01*
X224790D01*
Y-120650D01*
X222250D01*
Y-125730D01*
X224790D01*
Y-163830D02*
Y-166370D01*
X229870D01*
Y-163830D01*
X232410D01*
Y-158750D01*
X229870D01*
Y-156210D01*
X224790D01*
Y-158750D01*
X222250D01*
Y-163830D01*
X224790D01*
X234315Y-220980D02*
Y-223520D01*
X239395D01*
Y-220980D01*
X241935D01*
Y-215900D01*
X239395D01*
Y-213360D01*
X234315D01*
Y-215900D01*
X231775D01*
Y-220980D01*
X234315D01*
X224790Y-240030D02*
Y-242570D01*
X229870D01*
Y-240030D01*
X232410D01*
Y-234950D01*
X229870D01*
Y-232410D01*
X224790D01*
Y-234950D01*
X222250D01*
Y-240030D01*
X224790D01*
X234315Y-259080D02*
Y-261620D01*
X239395D01*
Y-259080D01*
X241935D01*
Y-254000D01*
X239395D01*
Y-251460D01*
X234315D01*
Y-254000D01*
X231775D01*
Y-259080D01*
X234315D01*
X224790Y-316230D02*
Y-318770D01*
X229870D01*
Y-316230D01*
X232410D01*
Y-311150D01*
X229870D01*
Y-308610D01*
X224790D01*
Y-311150D01*
X222250D01*
Y-316230D01*
X224790D01*
X234315Y-335280D02*
Y-337820D01*
X239395D01*
Y-335280D01*
X241935D01*
Y-330200D01*
X239395D01*
Y-327660D01*
X234315D01*
Y-330200D01*
X231775D01*
Y-335280D01*
X234315D01*
X224790Y-354330D02*
Y-356870D01*
X229870D01*
Y-354330D01*
X232410D01*
Y-349250D01*
X229870D01*
Y-346710D01*
X224790D01*
Y-349250D01*
X222250D01*
Y-354330D01*
X224790D01*
X215265Y-30480D02*
Y-33020D01*
X220345D01*
Y-30480D01*
X222885D01*
Y-25400D01*
X220345D01*
Y-22860D01*
X215265D01*
Y-25400D01*
X212725D01*
Y-30480D01*
X215265D01*
X205740Y-49530D02*
Y-52070D01*
X210820D01*
Y-49530D01*
X213360D01*
Y-44450D01*
X210820D01*
Y-41910D01*
X205740D01*
Y-44450D01*
X203200D01*
Y-49530D01*
X205740D01*
Y-87630D02*
Y-90170D01*
X210820D01*
Y-87630D01*
X213360D01*
Y-82550D01*
X210820D01*
Y-80010D01*
X205740D01*
Y-82550D01*
X203200D01*
Y-87630D01*
X205740D01*
X215265Y-106680D02*
Y-109220D01*
X220345D01*
Y-106680D01*
X222885D01*
Y-101600D01*
X220345D01*
Y-99060D01*
X215265D01*
Y-101600D01*
X212725D01*
Y-106680D01*
X215265D01*
X205740Y-125730D02*
Y-128270D01*
X210820D01*
Y-125730D01*
X213360D01*
Y-120650D01*
X210820D01*
Y-118110D01*
X205740D01*
Y-120650D01*
X203200D01*
Y-125730D01*
X205740D01*
Y-163830D02*
Y-166370D01*
X210820D01*
Y-163830D01*
X213360D01*
Y-158750D01*
X210820D01*
Y-156210D01*
X205740D01*
Y-158750D01*
X203200D01*
Y-163830D01*
X205740D01*
X215265Y-182880D02*
Y-185420D01*
X220345D01*
Y-182880D01*
X222885D01*
Y-177800D01*
X220345D01*
Y-175260D01*
X215265D01*
Y-177800D01*
X212725D01*
Y-182880D01*
X215265D01*
X205740Y-201930D02*
Y-204470D01*
X210820D01*
Y-201930D01*
X213360D01*
Y-196850D01*
X210820D01*
Y-194310D01*
X205740D01*
Y-196850D01*
X203200D01*
Y-201930D01*
X205740D01*
X215265Y-220980D02*
Y-223520D01*
X220345D01*
Y-220980D01*
X222885D01*
Y-215900D01*
X220345D01*
Y-213360D01*
X215265D01*
Y-215900D01*
X212725D01*
Y-220980D01*
X215265D01*
X205740Y-240030D02*
Y-242570D01*
X210820D01*
Y-240030D01*
X213360D01*
Y-234950D01*
X210820D01*
Y-232410D01*
X205740D01*
Y-234950D01*
X203200D01*
Y-240030D01*
X205740D01*
X215265Y-259080D02*
Y-261620D01*
X220345D01*
Y-259080D01*
X222885D01*
Y-254000D01*
X220345D01*
Y-251460D01*
X215265D01*
Y-254000D01*
X212725D01*
Y-259080D01*
X215265D01*
X205740Y-278130D02*
Y-280670D01*
X210820D01*
Y-278130D01*
X213360D01*
Y-273050D01*
X210820D01*
Y-270510D01*
X205740D01*
Y-273050D01*
X203200D01*
Y-278130D01*
X205740D01*
X215265Y-297180D02*
Y-299720D01*
X220345D01*
Y-297180D01*
X222885D01*
Y-292100D01*
X220345D01*
Y-289560D01*
X215265D01*
Y-292100D01*
X212725D01*
Y-297180D01*
X215265D01*
X205740Y-316230D02*
Y-318770D01*
X210820D01*
Y-316230D01*
X213360D01*
Y-311150D01*
X210820D01*
Y-308610D01*
X205740D01*
Y-311150D01*
X203200D01*
Y-316230D01*
X205740D01*
X215265Y-335280D02*
Y-337820D01*
X220345D01*
Y-335280D01*
X222885D01*
Y-330200D01*
X220345D01*
Y-327660D01*
X215265D01*
Y-330200D01*
X212725D01*
Y-335280D01*
X215265D01*
X205740Y-354330D02*
Y-356870D01*
X210820D01*
Y-354330D01*
X213360D01*
Y-349250D01*
X210820D01*
Y-346710D01*
X205740D01*
Y-349250D01*
X203200D01*
Y-354330D01*
X205740D01*
X196215Y-30480D02*
Y-33020D01*
X201295D01*
Y-30480D01*
X203835D01*
Y-25400D01*
X201295D01*
Y-22860D01*
X196215D01*
Y-25400D01*
X193675D01*
Y-30480D01*
X196215D01*
X186690Y-49530D02*
Y-52070D01*
X191770D01*
Y-49530D01*
X194310D01*
Y-44450D01*
X191770D01*
Y-41910D01*
X186690D01*
Y-44450D01*
X184150D01*
Y-49530D01*
X186690D01*
X196215Y-106680D02*
Y-109220D01*
X201295D01*
Y-106680D01*
X203835D01*
Y-101600D01*
X201295D01*
Y-99060D01*
X196215D01*
Y-101600D01*
X193675D01*
Y-106680D01*
X196215D01*
X186690Y-125730D02*
Y-128270D01*
X191770D01*
Y-125730D01*
X194310D01*
Y-120650D01*
X191770D01*
Y-118110D01*
X186690D01*
Y-120650D01*
X184150D01*
Y-125730D01*
X186690D01*
Y-163830D02*
Y-166370D01*
X191770D01*
Y-163830D01*
X194310D01*
Y-158750D01*
X191770D01*
Y-156210D01*
X186690D01*
Y-158750D01*
X184150D01*
Y-163830D01*
X186690D01*
X196215Y-182880D02*
Y-185420D01*
X201295D01*
Y-182880D01*
X203835D01*
Y-177800D01*
X201295D01*
Y-175260D01*
X196215D01*
Y-177800D01*
X193675D01*
Y-182880D01*
X196215D01*
Y-259080D02*
Y-261620D01*
X201295D01*
Y-259080D01*
X203835D01*
Y-254000D01*
X201295D01*
Y-251460D01*
X196215D01*
Y-254000D01*
X193675D01*
Y-259080D01*
X196215D01*
Y-297180D02*
Y-299720D01*
X201295D01*
Y-297180D01*
X203835D01*
Y-292100D01*
X201295D01*
Y-289560D01*
X196215D01*
Y-292100D01*
X193675D01*
Y-297180D01*
X196215D01*
X186690Y-316230D02*
Y-318770D01*
X191770D01*
Y-316230D01*
X194310D01*
Y-311150D01*
X191770D01*
Y-308610D01*
X186690D01*
Y-311150D01*
X184150D01*
Y-316230D01*
X186690D01*
X196215Y-335280D02*
Y-337820D01*
X201295D01*
Y-335280D01*
X203835D01*
Y-330200D01*
X201295D01*
Y-327660D01*
X196215D01*
Y-330200D01*
X193675D01*
Y-335280D01*
X196215D01*
X186690Y-354330D02*
Y-356870D01*
X191770D01*
Y-354330D01*
X194310D01*
Y-349250D01*
X191770D01*
Y-346710D01*
X186690D01*
Y-349250D01*
X184150D01*
Y-354330D01*
X186690D01*
X177165Y-30480D02*
Y-33020D01*
X182245D01*
Y-30480D01*
X184785D01*
Y-25400D01*
X182245D01*
Y-22860D01*
X177165D01*
Y-25400D01*
X174625D01*
Y-30480D01*
X177165D01*
X167640Y-49530D02*
Y-52070D01*
X172720D01*
Y-49530D01*
X175260D01*
Y-44450D01*
X172720D01*
Y-41910D01*
X167640D01*
Y-44450D01*
X165100D01*
Y-49530D01*
X167640D01*
X177165Y-106680D02*
Y-109220D01*
X182245D01*
Y-106680D01*
X184785D01*
Y-101600D01*
X182245D01*
Y-99060D01*
X177165D01*
Y-101600D01*
X174625D01*
Y-106680D01*
X177165D01*
X167640Y-125730D02*
Y-128270D01*
X172720D01*
Y-125730D01*
X175260D01*
Y-120650D01*
X172720D01*
Y-118110D01*
X167640D01*
Y-120650D01*
X165100D01*
Y-125730D01*
X167640D01*
Y-163830D02*
Y-166370D01*
X172720D01*
Y-163830D01*
X175260D01*
Y-158750D01*
X172720D01*
Y-156210D01*
X167640D01*
Y-158750D01*
X165100D01*
Y-163830D01*
X167640D01*
Y-240030D02*
Y-242570D01*
X172720D01*
Y-240030D01*
X175260D01*
Y-234950D01*
X172720D01*
Y-232410D01*
X167640D01*
Y-234950D01*
X165100D01*
Y-240030D01*
X167640D01*
Y-278130D02*
Y-280670D01*
X172720D01*
Y-278130D01*
X175260D01*
Y-273050D01*
X172720D01*
Y-270510D01*
X167640D01*
Y-273050D01*
X165100D01*
Y-278130D01*
X167640D01*
X177165Y-297180D02*
Y-299720D01*
X182245D01*
Y-297180D01*
X184785D01*
Y-292100D01*
X182245D01*
Y-289560D01*
X177165D01*
Y-292100D01*
X174625D01*
Y-297180D01*
X177165D01*
X167640Y-316230D02*
Y-318770D01*
X172720D01*
Y-316230D01*
X175260D01*
Y-311150D01*
X172720D01*
Y-308610D01*
X167640D01*
Y-311150D01*
X165100D01*
Y-316230D01*
X167640D01*
X177165Y-335280D02*
Y-337820D01*
X182245D01*
Y-335280D01*
X184785D01*
Y-330200D01*
X182245D01*
Y-327660D01*
X177165D01*
Y-330200D01*
X174625D01*
Y-335280D01*
X177165D01*
X167640Y-354330D02*
Y-356870D01*
X172720D01*
Y-354330D01*
X175260D01*
Y-349250D01*
X172720D01*
Y-346710D01*
X167640D01*
Y-349250D01*
X165100D01*
Y-354330D01*
X167640D01*
X158115Y-30480D02*
Y-33020D01*
X163195D01*
Y-30480D01*
X165735D01*
Y-25400D01*
X163195D01*
Y-22860D01*
X158115D01*
Y-25400D01*
X155575D01*
Y-30480D01*
X158115D01*
X148590Y-49530D02*
Y-52070D01*
X153670D01*
Y-49530D01*
X156210D01*
Y-44450D01*
X153670D01*
Y-41910D01*
X148590D01*
Y-44450D01*
X146050D01*
Y-49530D01*
X148590D01*
X158115Y-106680D02*
Y-109220D01*
X163195D01*
Y-106680D01*
X165735D01*
Y-101600D01*
X163195D01*
Y-99060D01*
X158115D01*
Y-101600D01*
X155575D01*
Y-106680D01*
X158115D01*
X148590Y-125730D02*
Y-128270D01*
X153670D01*
Y-125730D01*
X156210D01*
Y-120650D01*
X153670D01*
Y-118110D01*
X148590D01*
Y-120650D01*
X146050D01*
Y-125730D01*
X148590D01*
Y-163830D02*
Y-166370D01*
X153670D01*
Y-163830D01*
X156210D01*
Y-158750D01*
X153670D01*
Y-156210D01*
X148590D01*
Y-158750D01*
X146050D01*
Y-163830D01*
X148590D01*
X158115Y-182880D02*
Y-185420D01*
X163195D01*
Y-182880D01*
X165735D01*
Y-177800D01*
X163195D01*
Y-175260D01*
X158115D01*
Y-177800D01*
X155575D01*
Y-182880D01*
X158115D01*
X148590Y-201930D02*
Y-204470D01*
X153670D01*
Y-201930D01*
X156210D01*
Y-196850D01*
X153670D01*
Y-194310D01*
X148590D01*
Y-196850D01*
X146050D01*
Y-201930D01*
X148590D01*
X158115Y-259080D02*
Y-261620D01*
X163195D01*
Y-259080D01*
X165735D01*
Y-254000D01*
X163195D01*
Y-251460D01*
X158115D01*
Y-254000D01*
X155575D01*
Y-259080D01*
X158115D01*
X148590Y-278130D02*
Y-280670D01*
X153670D01*
Y-278130D01*
X156210D01*
Y-273050D01*
X153670D01*
Y-270510D01*
X148590D01*
Y-273050D01*
X146050D01*
Y-278130D01*
X148590D01*
X158115Y-297180D02*
Y-299720D01*
X163195D01*
Y-297180D01*
X165735D01*
Y-292100D01*
X163195D01*
Y-289560D01*
X158115D01*
Y-292100D01*
X155575D01*
Y-297180D01*
X158115D01*
X148590Y-316230D02*
Y-318770D01*
X153670D01*
Y-316230D01*
X156210D01*
Y-311150D01*
X153670D01*
Y-308610D01*
X148590D01*
Y-311150D01*
X146050D01*
Y-316230D01*
X148590D01*
X158115Y-335280D02*
Y-337820D01*
X163195D01*
Y-335280D01*
X165735D01*
Y-330200D01*
X163195D01*
Y-327660D01*
X158115D01*
Y-330200D01*
X155575D01*
Y-335280D01*
X158115D01*
X148590Y-354330D02*
Y-356870D01*
X153670D01*
Y-354330D01*
X156210D01*
Y-349250D01*
X153670D01*
Y-346710D01*
X148590D01*
Y-349250D01*
X146050D01*
Y-354330D01*
X148590D01*
X139065Y-30480D02*
Y-33020D01*
X144145D01*
Y-30480D01*
X146685D01*
Y-25400D01*
X144145D01*
Y-22860D01*
X139065D01*
Y-25400D01*
X136525D01*
Y-30480D01*
X139065D01*
X129540Y-49530D02*
Y-52070D01*
X134620D01*
Y-49530D01*
X137160D01*
Y-44450D01*
X134620D01*
Y-41910D01*
X129540D01*
Y-44450D01*
X127000D01*
Y-49530D01*
X129540D01*
X139065Y-106680D02*
Y-109220D01*
X144145D01*
Y-106680D01*
X146685D01*
Y-101600D01*
X144145D01*
Y-99060D01*
X139065D01*
Y-101600D01*
X136525D01*
Y-106680D01*
X139065D01*
X129540Y-125730D02*
Y-128270D01*
X134620D01*
Y-125730D01*
X137160D01*
Y-120650D01*
X134620D01*
Y-118110D01*
X129540D01*
Y-120650D01*
X127000D01*
Y-125730D01*
X129540D01*
X139065Y-182880D02*
Y-185420D01*
X144145D01*
Y-182880D01*
X146685D01*
Y-177800D01*
X144145D01*
Y-175260D01*
X139065D01*
Y-177800D01*
X136525D01*
Y-182880D01*
X139065D01*
X129540Y-201930D02*
Y-204470D01*
X134620D01*
Y-201930D01*
X137160D01*
Y-196850D01*
X134620D01*
Y-194310D01*
X129540D01*
Y-196850D01*
X127000D01*
Y-201930D01*
X129540D01*
X139065Y-220980D02*
Y-223520D01*
X144145D01*
Y-220980D01*
X146685D01*
Y-215900D01*
X144145D01*
Y-213360D01*
X139065D01*
Y-215900D01*
X136525D01*
Y-220980D01*
X139065D01*
X129540Y-278130D02*
Y-280670D01*
X134620D01*
Y-278130D01*
X137160D01*
Y-273050D01*
X134620D01*
Y-270510D01*
X129540D01*
Y-273050D01*
X127000D01*
Y-278130D01*
X129540D01*
X139065Y-297180D02*
Y-299720D01*
X144145D01*
Y-297180D01*
X146685D01*
Y-292100D01*
X144145D01*
Y-289560D01*
X139065D01*
Y-292100D01*
X136525D01*
Y-297180D01*
X139065D01*
X129540Y-316230D02*
Y-318770D01*
X134620D01*
Y-316230D01*
X137160D01*
Y-311150D01*
X134620D01*
Y-308610D01*
X129540D01*
Y-311150D01*
X127000D01*
Y-316230D01*
X129540D01*
X139065Y-335280D02*
Y-337820D01*
X144145D01*
Y-335280D01*
X146685D01*
Y-330200D01*
X144145D01*
Y-327660D01*
X139065D01*
Y-330200D01*
X136525D01*
Y-335280D01*
X139065D01*
X129540Y-354330D02*
Y-356870D01*
X134620D01*
Y-354330D01*
X137160D01*
Y-349250D01*
X134620D01*
Y-346710D01*
X129540D01*
Y-349250D01*
X127000D01*
Y-354330D01*
X129540D01*
X120015Y-30480D02*
Y-33020D01*
X125095D01*
Y-30480D01*
X127635D01*
Y-25400D01*
X125095D01*
Y-22860D01*
X120015D01*
Y-25400D01*
X117475D01*
Y-30480D01*
X120015D01*
X110490Y-49530D02*
Y-52070D01*
X115570D01*
Y-49530D01*
X118110D01*
Y-44450D01*
X115570D01*
Y-41910D01*
X110490D01*
Y-44450D01*
X107950D01*
Y-49530D01*
X110490D01*
X120015Y-106680D02*
Y-109220D01*
X125095D01*
Y-106680D01*
X127635D01*
Y-101600D01*
X125095D01*
Y-99060D01*
X120015D01*
Y-101600D01*
X117475D01*
Y-106680D01*
X120015D01*
X110490Y-125730D02*
Y-128270D01*
X115570D01*
Y-125730D01*
X118110D01*
Y-120650D01*
X115570D01*
Y-118110D01*
X110490D01*
Y-120650D01*
X107950D01*
Y-125730D01*
X110490D01*
X120015Y-144780D02*
Y-147320D01*
X125095D01*
Y-144780D01*
X127635D01*
Y-139700D01*
X125095D01*
Y-137160D01*
X120015D01*
Y-139700D01*
X117475D01*
Y-144780D01*
X120015D01*
X110490Y-163830D02*
Y-166370D01*
X115570D01*
Y-163830D01*
X118110D01*
Y-158750D01*
X115570D01*
Y-156210D01*
X110490D01*
Y-158750D01*
X107950D01*
Y-163830D01*
X110490D01*
Y-201930D02*
Y-204470D01*
X115570D01*
Y-201930D01*
X118110D01*
Y-196850D01*
X115570D01*
Y-194310D01*
X110490D01*
Y-196850D01*
X107950D01*
Y-201930D01*
X110490D01*
X120015Y-220980D02*
Y-223520D01*
X125095D01*
Y-220980D01*
X127635D01*
Y-215900D01*
X125095D01*
Y-213360D01*
X120015D01*
Y-215900D01*
X117475D01*
Y-220980D01*
X120015D01*
X110490Y-240030D02*
Y-242570D01*
X115570D01*
Y-240030D01*
X118110D01*
Y-234950D01*
X115570D01*
Y-232410D01*
X110490D01*
Y-234950D01*
X107950D01*
Y-240030D01*
X110490D01*
Y-278130D02*
Y-280670D01*
X115570D01*
Y-278130D01*
X118110D01*
Y-273050D01*
X115570D01*
Y-270510D01*
X110490D01*
Y-273050D01*
X107950D01*
Y-278130D01*
X110490D01*
X120015Y-297180D02*
Y-299720D01*
X125095D01*
Y-297180D01*
X127635D01*
Y-292100D01*
X125095D01*
Y-289560D01*
X120015D01*
Y-292100D01*
X117475D01*
Y-297180D01*
X120015D01*
X110490Y-316230D02*
Y-318770D01*
X115570D01*
Y-316230D01*
X118110D01*
Y-311150D01*
X115570D01*
Y-308610D01*
X110490D01*
Y-311150D01*
X107950D01*
Y-316230D01*
X110490D01*
X120015Y-335280D02*
Y-337820D01*
X125095D01*
Y-335280D01*
X127635D01*
Y-330200D01*
X125095D01*
Y-327660D01*
X120015D01*
Y-330200D01*
X117475D01*
Y-335280D01*
X120015D01*
X110490Y-354330D02*
Y-356870D01*
X115570D01*
Y-354330D01*
X118110D01*
Y-349250D01*
X115570D01*
Y-346710D01*
X110490D01*
Y-349250D01*
X107950D01*
Y-354330D01*
X110490D01*
X100965Y-30480D02*
Y-33020D01*
X106045D01*
Y-30480D01*
X108585D01*
Y-25400D01*
X106045D01*
Y-22860D01*
X100965D01*
Y-25400D01*
X98425D01*
Y-30480D01*
X100965D01*
X91440Y-49530D02*
Y-52070D01*
X96520D01*
Y-49530D01*
X99060D01*
Y-44450D01*
X96520D01*
Y-41910D01*
X91440D01*
Y-44450D01*
X88900D01*
Y-49530D01*
X91440D01*
X100965Y-106680D02*
Y-109220D01*
X106045D01*
Y-106680D01*
X108585D01*
Y-101600D01*
X106045D01*
Y-99060D01*
X100965D01*
Y-101600D01*
X98425D01*
Y-106680D01*
X100965D01*
X91440Y-125730D02*
Y-128270D01*
X96520D01*
Y-125730D01*
X99060D01*
Y-120650D01*
X96520D01*
Y-118110D01*
X91440D01*
Y-120650D01*
X88900D01*
Y-125730D01*
X91440D01*
Y-163830D02*
Y-166370D01*
X96520D01*
Y-163830D01*
X99060D01*
Y-158750D01*
X96520D01*
Y-156210D01*
X91440D01*
Y-158750D01*
X88900D01*
Y-163830D01*
X91440D01*
Y-201930D02*
Y-204470D01*
X96520D01*
Y-201930D01*
X99060D01*
Y-196850D01*
X96520D01*
Y-194310D01*
X91440D01*
Y-196850D01*
X88900D01*
Y-201930D01*
X91440D01*
Y-240030D02*
Y-242570D01*
X96520D01*
Y-240030D01*
X99060D01*
Y-234950D01*
X96520D01*
Y-232410D01*
X91440D01*
Y-234950D01*
X88900D01*
Y-240030D01*
X91440D01*
Y-278130D02*
Y-280670D01*
X96520D01*
Y-278130D01*
X99060D01*
Y-273050D01*
X96520D01*
Y-270510D01*
X91440D01*
Y-273050D01*
X88900D01*
Y-278130D01*
X91440D01*
X100965Y-297180D02*
Y-299720D01*
X106045D01*
Y-297180D01*
X108585D01*
Y-292100D01*
X106045D01*
Y-289560D01*
X100965D01*
Y-292100D01*
X98425D01*
Y-297180D01*
X100965D01*
X91440Y-316230D02*
Y-318770D01*
X96520D01*
Y-316230D01*
X99060D01*
Y-311150D01*
X96520D01*
Y-308610D01*
X91440D01*
Y-311150D01*
X88900D01*
Y-316230D01*
X91440D01*
X100965Y-335280D02*
Y-337820D01*
X106045D01*
Y-335280D01*
X108585D01*
Y-330200D01*
X106045D01*
Y-327660D01*
X100965D01*
Y-330200D01*
X98425D01*
Y-335280D01*
X100965D01*
X91440Y-354330D02*
Y-356870D01*
X96520D01*
Y-354330D01*
X99060D01*
Y-349250D01*
X96520D01*
Y-346710D01*
X91440D01*
Y-349250D01*
X88900D01*
Y-354330D01*
X91440D01*
X81915Y-30480D02*
Y-33020D01*
X86995D01*
Y-30480D01*
X89535D01*
Y-25400D01*
X86995D01*
Y-22860D01*
X81915D01*
Y-25400D01*
X79375D01*
Y-30480D01*
X81915D01*
X72390Y-49530D02*
Y-52070D01*
X77470D01*
Y-49530D01*
X80010D01*
Y-44450D01*
X77470D01*
Y-41910D01*
X72390D01*
Y-44450D01*
X69850D01*
Y-49530D01*
X72390D01*
X81915Y-68580D02*
Y-71120D01*
X86995D01*
Y-68580D01*
X89535D01*
Y-63500D01*
X86995D01*
Y-60960D01*
X81915D01*
Y-63500D01*
X79375D01*
Y-68580D01*
X81915D01*
X72390Y-125730D02*
Y-128270D01*
X77470D01*
Y-125730D01*
X80010D01*
Y-120650D01*
X77470D01*
Y-118110D01*
X72390D01*
Y-120650D01*
X69850D01*
Y-125730D01*
X72390D01*
Y-163830D02*
Y-166370D01*
X77470D01*
Y-163830D01*
X80010D01*
Y-158750D01*
X77470D01*
Y-156210D01*
X72390D01*
Y-158750D01*
X69850D01*
Y-163830D01*
X72390D01*
Y-201930D02*
Y-204470D01*
X77470D01*
Y-201930D01*
X80010D01*
Y-196850D01*
X77470D01*
Y-194310D01*
X72390D01*
Y-196850D01*
X69850D01*
Y-201930D01*
X72390D01*
Y-240030D02*
Y-242570D01*
X77470D01*
Y-240030D01*
X80010D01*
Y-234950D01*
X77470D01*
Y-232410D01*
X72390D01*
Y-234950D01*
X69850D01*
Y-240030D01*
X72390D01*
Y-278130D02*
Y-280670D01*
X77470D01*
Y-278130D01*
X80010D01*
Y-273050D01*
X77470D01*
Y-270510D01*
X72390D01*
Y-273050D01*
X69850D01*
Y-278130D01*
X72390D01*
X81915Y-297180D02*
Y-299720D01*
X86995D01*
Y-297180D01*
X89535D01*
Y-292100D01*
X86995D01*
Y-289560D01*
X81915D01*
Y-292100D01*
X79375D01*
Y-297180D01*
X81915D01*
X72390Y-316230D02*
Y-318770D01*
X77470D01*
Y-316230D01*
X80010D01*
Y-311150D01*
X77470D01*
Y-308610D01*
X72390D01*
Y-311150D01*
X69850D01*
Y-316230D01*
X72390D01*
X81915Y-335280D02*
Y-337820D01*
X86995D01*
Y-335280D01*
X89535D01*
Y-330200D01*
X86995D01*
Y-327660D01*
X81915D01*
Y-330200D01*
X79375D01*
Y-335280D01*
X81915D01*
X72390Y-354330D02*
Y-356870D01*
X77470D01*
Y-354330D01*
X80010D01*
Y-349250D01*
X77470D01*
Y-346710D01*
X72390D01*
Y-349250D01*
X69850D01*
Y-354330D01*
X72390D01*
X62865Y-30480D02*
Y-33020D01*
X67945D01*
Y-30480D01*
X70485D01*
Y-25400D01*
X67945D01*
Y-22860D01*
X62865D01*
Y-25400D01*
X60325D01*
Y-30480D01*
X62865D01*
X53340Y-49530D02*
Y-52070D01*
X58420D01*
Y-49530D01*
X60960D01*
Y-44450D01*
X58420D01*
Y-41910D01*
X53340D01*
Y-44450D01*
X50800D01*
Y-49530D01*
X53340D01*
X62865Y-68580D02*
Y-71120D01*
X67945D01*
Y-68580D01*
X70485D01*
Y-63500D01*
X67945D01*
Y-60960D01*
X62865D01*
Y-63500D01*
X60325D01*
Y-68580D01*
X62865D01*
X53340Y-87630D02*
Y-90170D01*
X58420D01*
Y-87630D01*
X60960D01*
Y-82550D01*
X58420D01*
Y-80010D01*
X53340D01*
Y-82550D01*
X50800D01*
Y-87630D01*
X53340D01*
Y-125730D02*
Y-128270D01*
X58420D01*
Y-125730D01*
X60960D01*
Y-120650D01*
X58420D01*
Y-118110D01*
X53340D01*
Y-120650D01*
X50800D01*
Y-125730D01*
X53340D01*
Y-163830D02*
Y-166370D01*
X58420D01*
Y-163830D01*
X60960D01*
Y-158750D01*
X58420D01*
Y-156210D01*
X53340D01*
Y-158750D01*
X50800D01*
Y-163830D01*
X53340D01*
Y-201930D02*
Y-204470D01*
X58420D01*
Y-201930D01*
X60960D01*
Y-196850D01*
X58420D01*
Y-194310D01*
X53340D01*
Y-196850D01*
X50800D01*
Y-201930D01*
X53340D01*
Y-240030D02*
Y-242570D01*
X58420D01*
Y-240030D01*
X60960D01*
Y-234950D01*
X58420D01*
Y-232410D01*
X53340D01*
Y-234950D01*
X50800D01*
Y-240030D01*
X53340D01*
Y-278130D02*
Y-280670D01*
X58420D01*
Y-278130D01*
X60960D01*
Y-273050D01*
X58420D01*
Y-270510D01*
X53340D01*
Y-273050D01*
X50800D01*
Y-278130D01*
X53340D01*
X62865Y-297180D02*
Y-299720D01*
X67945D01*
Y-297180D01*
X70485D01*
Y-292100D01*
X67945D01*
Y-289560D01*
X62865D01*
Y-292100D01*
X60325D01*
Y-297180D01*
X62865D01*
X53340Y-316230D02*
Y-318770D01*
X58420D01*
Y-316230D01*
X60960D01*
Y-311150D01*
X58420D01*
Y-308610D01*
X53340D01*
Y-311150D01*
X50800D01*
Y-316230D01*
X53340D01*
X62865Y-335280D02*
Y-337820D01*
X67945D01*
Y-335280D01*
X70485D01*
Y-330200D01*
X67945D01*
Y-327660D01*
X62865D01*
Y-330200D01*
X60325D01*
Y-335280D01*
X62865D01*
X53340Y-354330D02*
Y-356870D01*
X58420D01*
Y-354330D01*
X60960D01*
Y-349250D01*
X58420D01*
Y-346710D01*
X53340D01*
Y-349250D01*
X50800D01*
Y-354330D01*
X53340D01*
X43815Y-30480D02*
Y-33020D01*
X48895D01*
Y-30480D01*
X51435D01*
Y-25400D01*
X48895D01*
Y-22860D01*
X43815D01*
Y-25400D01*
X41275D01*
Y-30480D01*
X43815D01*
X34290Y-49530D02*
Y-52070D01*
X39370D01*
Y-49530D01*
X41910D01*
Y-44450D01*
X39370D01*
Y-41910D01*
X34290D01*
Y-44450D01*
X31750D01*
Y-49530D01*
X34290D01*
X43815Y-68580D02*
Y-71120D01*
X48895D01*
Y-68580D01*
X51435D01*
Y-63500D01*
X48895D01*
Y-60960D01*
X43815D01*
Y-63500D01*
X41275D01*
Y-68580D01*
X43815D01*
X34290Y-87630D02*
Y-90170D01*
X39370D01*
Y-87630D01*
X41910D01*
Y-82550D01*
X39370D01*
Y-80010D01*
X34290D01*
Y-82550D01*
X31750D01*
Y-87630D01*
X34290D01*
X43815Y-106680D02*
Y-109220D01*
X48895D01*
Y-106680D01*
X51435D01*
Y-101600D01*
X48895D01*
Y-99060D01*
X43815D01*
Y-101600D01*
X41275D01*
Y-106680D01*
X43815D01*
X34290Y-125730D02*
Y-128270D01*
X39370D01*
Y-125730D01*
X41910D01*
Y-120650D01*
X39370D01*
Y-118110D01*
X34290D01*
Y-120650D01*
X31750D01*
Y-125730D01*
X34290D01*
Y-163830D02*
Y-166370D01*
X39370D01*
Y-163830D01*
X41910D01*
Y-158750D01*
X39370D01*
Y-156210D01*
X34290D01*
Y-158750D01*
X31750D01*
Y-163830D01*
X34290D01*
X43815Y-182880D02*
Y-185420D01*
X48895D01*
Y-182880D01*
X51435D01*
Y-177800D01*
X48895D01*
Y-175260D01*
X43815D01*
Y-177800D01*
X41275D01*
Y-182880D01*
X43815D01*
X34290Y-201930D02*
Y-204470D01*
X39370D01*
Y-201930D01*
X41910D01*
Y-196850D01*
X39370D01*
Y-194310D01*
X34290D01*
Y-196850D01*
X31750D01*
Y-201930D01*
X34290D01*
Y-240030D02*
Y-242570D01*
X39370D01*
Y-240030D01*
X41910D01*
Y-234950D01*
X39370D01*
Y-232410D01*
X34290D01*
Y-234950D01*
X31750D01*
Y-240030D01*
X34290D01*
X43815Y-259080D02*
Y-261620D01*
X48895D01*
Y-259080D01*
X51435D01*
Y-254000D01*
X48895D01*
Y-251460D01*
X43815D01*
Y-254000D01*
X41275D01*
Y-259080D01*
X43815D01*
X34290Y-278130D02*
Y-280670D01*
X39370D01*
Y-278130D01*
X41910D01*
Y-273050D01*
X39370D01*
Y-270510D01*
X34290D01*
Y-273050D01*
X31750D01*
Y-278130D01*
X34290D01*
X43815Y-297180D02*
Y-299720D01*
X48895D01*
Y-297180D01*
X51435D01*
Y-292100D01*
X48895D01*
Y-289560D01*
X43815D01*
Y-292100D01*
X41275D01*
Y-297180D01*
X43815D01*
X34290Y-316230D02*
Y-318770D01*
X39370D01*
Y-316230D01*
X41910D01*
Y-311150D01*
X39370D01*
Y-308610D01*
X34290D01*
Y-311150D01*
X31750D01*
Y-316230D01*
X34290D01*
X43815Y-335280D02*
Y-337820D01*
X48895D01*
Y-335280D01*
X51435D01*
Y-330200D01*
X48895D01*
Y-327660D01*
X43815D01*
Y-330200D01*
X41275D01*
Y-335280D01*
X43815D01*
X34290Y-354330D02*
Y-356870D01*
X39370D01*
Y-354330D01*
X41910D01*
Y-349250D01*
X39370D01*
Y-346710D01*
X34290D01*
Y-349250D01*
X31750D01*
Y-354330D01*
X34290D01*
X24765Y-30480D02*
Y-33020D01*
X29845D01*
Y-30480D01*
X32385D01*
Y-25400D01*
X29845D01*
Y-22860D01*
X24765D01*
Y-25400D01*
X22225D01*
Y-30480D01*
X24765D01*
X15240Y-49530D02*
Y-52070D01*
X20320D01*
Y-49530D01*
X22860D01*
Y-44450D01*
X20320D01*
Y-41910D01*
X15240D01*
Y-44450D01*
X12700D01*
Y-49530D01*
X15240D01*
X24765Y-68580D02*
Y-71120D01*
X29845D01*
Y-68580D01*
X32385D01*
Y-63500D01*
X29845D01*
Y-60960D01*
X24765D01*
Y-63500D01*
X22225D01*
Y-68580D01*
X24765D01*
X15240Y-87630D02*
Y-90170D01*
X20320D01*
Y-87630D01*
X22860D01*
Y-82550D01*
X20320D01*
Y-80010D01*
X15240D01*
Y-82550D01*
X12700D01*
Y-87630D01*
X15240D01*
X24765Y-106680D02*
Y-109220D01*
X29845D01*
Y-106680D01*
X32385D01*
Y-101600D01*
X29845D01*
Y-99060D01*
X24765D01*
Y-101600D01*
X22225D01*
Y-106680D01*
X24765D01*
X15240Y-125730D02*
Y-128270D01*
X20320D01*
Y-125730D01*
X22860D01*
Y-120650D01*
X20320D01*
Y-118110D01*
X15240D01*
Y-120650D01*
X12700D01*
Y-125730D01*
X15240D01*
X24765Y-144780D02*
Y-147320D01*
X29845D01*
Y-144780D01*
X32385D01*
Y-139700D01*
X29845D01*
Y-137160D01*
X24765D01*
Y-139700D01*
X22225D01*
Y-144780D01*
X24765D01*
X15240Y-163830D02*
Y-166370D01*
X20320D01*
Y-163830D01*
X22860D01*
Y-158750D01*
X20320D01*
Y-156210D01*
X15240D01*
Y-158750D01*
X12700D01*
Y-163830D01*
X15240D01*
X24765Y-182880D02*
Y-185420D01*
X29845D01*
Y-182880D01*
X32385D01*
Y-177800D01*
X29845D01*
Y-175260D01*
X24765D01*
Y-177800D01*
X22225D01*
Y-182880D01*
X24765D01*
X15240Y-201930D02*
Y-204470D01*
X20320D01*
Y-201930D01*
X22860D01*
Y-196850D01*
X20320D01*
Y-194310D01*
X15240D01*
Y-196850D01*
X12700D01*
Y-201930D01*
X15240D01*
X24765Y-220980D02*
Y-223520D01*
X29845D01*
Y-220980D01*
X32385D01*
Y-215900D01*
X29845D01*
Y-213360D01*
X24765D01*
Y-215900D01*
X22225D01*
Y-220980D01*
X24765D01*
X15240Y-240030D02*
Y-242570D01*
X20320D01*
Y-240030D01*
X22860D01*
Y-234950D01*
X20320D01*
Y-232410D01*
X15240D01*
Y-234950D01*
X12700D01*
Y-240030D01*
X15240D01*
X24765Y-259080D02*
Y-261620D01*
X29845D01*
Y-259080D01*
X32385D01*
Y-254000D01*
X29845D01*
Y-251460D01*
X24765D01*
Y-254000D01*
X22225D01*
Y-259080D01*
X24765D01*
X15240Y-278130D02*
Y-280670D01*
X20320D01*
Y-278130D01*
X22860D01*
Y-273050D01*
X20320D01*
Y-270510D01*
X15240D01*
Y-273050D01*
X12700D01*
Y-278130D01*
X15240D01*
X24765Y-297180D02*
Y-299720D01*
X29845D01*
Y-297180D01*
X32385D01*
Y-292100D01*
X29845D01*
Y-289560D01*
X24765D01*
Y-292100D01*
X22225D01*
Y-297180D01*
X24765D01*
X15240Y-316230D02*
Y-318770D01*
X20320D01*
Y-316230D01*
X22860D01*
Y-311150D01*
X20320D01*
Y-308610D01*
X15240D01*
Y-311150D01*
X12700D01*
Y-316230D01*
X15240D01*
X24765Y-335280D02*
Y-337820D01*
X29845D01*
Y-335280D01*
X32385D01*
Y-330200D01*
X29845D01*
Y-327660D01*
X24765D01*
Y-330200D01*
X22225D01*
Y-335280D01*
X24765D01*
X15240Y-354330D02*
Y-356870D01*
X20320D01*
Y-354330D01*
X22860D01*
Y-349250D01*
X20320D01*
Y-346710D01*
X15240D01*
Y-349250D01*
X12700D01*
Y-354330D01*
X15240D01*
X508000Y-212852D02*
Y-215392D01*
X513080D01*
Y-212852D01*
X515620D01*
Y-207772D01*
X513080D01*
Y-205232D01*
X508000D01*
Y-207772D01*
X505460D01*
Y-212852D01*
X508000D01*
X344424Y-241554D02*
Y-244094D01*
X349504D01*
Y-241554D01*
X352044D01*
Y-236474D01*
X349504D01*
Y-233934D01*
X344424D01*
Y-236474D01*
X341884D01*
Y-241554D01*
X344424D01*
X429260Y-224282D02*
Y-226822D01*
X434340D01*
Y-224282D01*
X436880D01*
Y-219202D01*
X434340D01*
Y-216662D01*
X429260D01*
Y-219202D01*
X426720D01*
Y-224282D01*
X429260D01*
X448310Y-157480D02*
Y-160020D01*
X453390D01*
Y-157480D01*
X455930D01*
Y-152400D01*
X453390D01*
Y-149860D01*
X448310D01*
Y-152400D01*
X445770D01*
Y-157480D01*
X448310D01*
X698500Y-67310D02*
X701040D01*
X703580Y-64770D01*
X706120Y-67310D01*
X708660D01*
Y-64770D01*
X706120Y-62230D01*
X708660Y-59690D01*
Y-57150D01*
X706120D01*
X703580Y-59690D01*
X701040Y-57150D01*
X698500D01*
Y-59690D01*
X701040Y-62230D01*
X698500Y-64770D01*
Y-67310D01*
D72*
X73660Y-255270D02*
G03*
X73660Y-255270I-5080J0D01*
G01*
Y-179070D02*
G03*
X73660Y-179070I-5080J0D01*
G01*
Y-102870D02*
G03*
X73660Y-102870I-5080J0D01*
G01*
M02*
