G04*
G04 #@! TF.GenerationSoftware,Altium Limited,Altium Designer,24.1.2 (44)*
G04*
G04 Layer_Color=128*
%FSLAX44Y44*%
%MOMM*%
G71*
G04*
G04 #@! TF.SameCoordinates,EDD2AC52-9795-4AC2-B1AA-E3E4142349E3*
G04*
G04*
G04 #@! TF.FilePolarity,Positive*
G04*
G01*
G75*
%ADD70C,0.1270*%
D70*
X944770Y-292100D02*
X962770D01*
X953770Y-301100D02*
Y-283100D01*
X944770Y-215900D02*
X962770D01*
X953770Y-224900D02*
Y-206900D01*
X306150Y-294640D02*
X316150D01*
X311150Y-299640D02*
Y-289640D01*
X382350Y-294640D02*
X392350D01*
X387350Y-299640D02*
Y-289640D01*
X382350Y-269240D02*
X392350D01*
X387350Y-274240D02*
Y-264240D01*
X306150Y-269240D02*
X316150D01*
X311150Y-274240D02*
Y-264240D01*
X835369Y-116469D02*
X842481D01*
X838925Y-120025D02*
Y-112913D01*
X835369Y-91069D02*
X842481D01*
X838925Y-94625D02*
Y-87513D01*
X835369Y-65669D02*
X842481D01*
X838925Y-69225D02*
Y-62113D01*
X835369Y-40269D02*
X842481D01*
X838925Y-43825D02*
Y-36713D01*
X487260Y-60960D02*
X498260D01*
X492760Y-66460D02*
Y-55460D01*
X461860Y-60960D02*
X472860D01*
X467360Y-66460D02*
Y-55460D01*
X436460Y-60960D02*
X447460D01*
X441960Y-66460D02*
Y-55460D01*
X411060Y-60960D02*
X422060D01*
X416560Y-66460D02*
Y-55460D01*
X369650Y-93659D02*
X379650D01*
X374650Y-98659D02*
Y-88659D01*
X369650Y-180660D02*
X379650D01*
X374650Y-185660D02*
Y-175661D01*
X711820Y-279293D02*
X725820D01*
X718820Y-286293D02*
Y-272293D01*
X711820Y-314294D02*
X725820D01*
X718820Y-321294D02*
Y-307294D01*
X805031Y-279679D02*
X819031D01*
X812031Y-286679D02*
Y-272679D01*
X805031Y-314681D02*
X819031D01*
X812031Y-321681D02*
Y-307681D01*
X60580Y-255270D02*
X76580D01*
X68580Y-263270D02*
Y-247270D01*
X60580Y-179070D02*
X76580D01*
X68580Y-187070D02*
Y-171070D01*
X60580Y-102870D02*
X76580D01*
X68580Y-110870D02*
Y-94870D01*
X179191Y-75895D02*
X194431D01*
X186811Y-83515D02*
Y-68275D01*
X321190Y-135890D02*
X336430D01*
X328810Y-143510D02*
Y-128270D01*
X301190Y-195890D02*
X316430D01*
X308810Y-203510D02*
Y-188270D01*
X301190Y-75890D02*
X316430D01*
X308810Y-83510D02*
Y-68270D01*
X179190Y-195885D02*
X194430D01*
X186810Y-203505D02*
Y-188265D01*
X255580Y-278130D02*
X262580D01*
X259080Y-281630D02*
Y-274630D01*
X242880Y-278130D02*
X249880D01*
X246380Y-281630D02*
Y-274630D01*
X230180Y-278130D02*
X237180D01*
X233680Y-281630D02*
Y-274630D01*
X1073555Y-27940D02*
X1076555D01*
X1075055Y-29440D02*
Y-26440D01*
X1064030Y-46990D02*
X1067030D01*
X1065530Y-48490D02*
Y-45490D01*
X1073555Y-66040D02*
X1076555D01*
X1075055Y-67540D02*
Y-64540D01*
X1064030Y-85090D02*
X1067030D01*
X1065530Y-86590D02*
Y-83590D01*
X1073555Y-104140D02*
X1076555D01*
X1075055Y-105640D02*
Y-102640D01*
X1064030Y-123190D02*
X1067030D01*
X1065530Y-124690D02*
Y-121690D01*
X1073555Y-142240D02*
X1076555D01*
X1075055Y-143740D02*
Y-140740D01*
X1064030Y-161290D02*
X1067030D01*
X1065530Y-162790D02*
Y-159790D01*
X1073555Y-180340D02*
X1076555D01*
X1075055Y-181840D02*
Y-178840D01*
X1064030Y-199390D02*
X1067030D01*
X1065530Y-200890D02*
Y-197890D01*
X1073555Y-218440D02*
X1076555D01*
X1075055Y-219940D02*
Y-216940D01*
X1064030Y-237490D02*
X1067030D01*
X1065530Y-238990D02*
Y-235990D01*
X1073555Y-256540D02*
X1076555D01*
X1075055Y-258040D02*
Y-255040D01*
X1064030Y-275590D02*
X1067030D01*
X1065530Y-277090D02*
Y-274090D01*
X1073555Y-294640D02*
X1076555D01*
X1075055Y-296140D02*
Y-293140D01*
X1064030Y-313690D02*
X1067030D01*
X1065530Y-315190D02*
Y-312190D01*
X1073555Y-332740D02*
X1076555D01*
X1075055Y-334240D02*
Y-331240D01*
X1064030Y-351790D02*
X1067030D01*
X1065530Y-353290D02*
Y-350290D01*
X1054505Y-27940D02*
X1057505D01*
X1056005Y-29440D02*
Y-26440D01*
X1044980Y-46990D02*
X1047980D01*
X1046480Y-48490D02*
Y-45490D01*
X1054505Y-66040D02*
X1057505D01*
X1056005Y-67540D02*
Y-64540D01*
X1044980Y-85090D02*
X1047980D01*
X1046480Y-86590D02*
Y-83590D01*
X1054505Y-104140D02*
X1057505D01*
X1056005Y-105640D02*
Y-102640D01*
X1044980Y-123190D02*
X1047980D01*
X1046480Y-124690D02*
Y-121690D01*
X1054505Y-142240D02*
X1057505D01*
X1056005Y-143740D02*
Y-140740D01*
X1044980Y-161290D02*
X1047980D01*
X1046480Y-162790D02*
Y-159790D01*
X1054505Y-180340D02*
X1057505D01*
X1056005Y-181840D02*
Y-178840D01*
X1044980Y-199390D02*
X1047980D01*
X1046480Y-200890D02*
Y-197890D01*
X1054505Y-218440D02*
X1057505D01*
X1056005Y-219940D02*
Y-216940D01*
X1044980Y-237490D02*
X1047980D01*
X1046480Y-238990D02*
Y-235990D01*
X1054505Y-256540D02*
X1057505D01*
X1056005Y-258040D02*
Y-255040D01*
X1044980Y-275590D02*
X1047980D01*
X1046480Y-277090D02*
Y-274090D01*
X1054505Y-294640D02*
X1057505D01*
X1056005Y-296140D02*
Y-293140D01*
X1044980Y-313690D02*
X1047980D01*
X1046480Y-315190D02*
Y-312190D01*
X1054505Y-332740D02*
X1057505D01*
X1056005Y-334240D02*
Y-331240D01*
X1044980Y-351790D02*
X1047980D01*
X1046480Y-353290D02*
Y-350290D01*
X1035455Y-27940D02*
X1038455D01*
X1036955Y-29440D02*
Y-26440D01*
X1025930Y-46990D02*
X1028930D01*
X1027430Y-48490D02*
Y-45490D01*
X1035455Y-66040D02*
X1038455D01*
X1036955Y-67540D02*
Y-64540D01*
X1025930Y-85090D02*
X1028930D01*
X1027430Y-86590D02*
Y-83590D01*
X1035455Y-104140D02*
X1038455D01*
X1036955Y-105640D02*
Y-102640D01*
X1025930Y-123190D02*
X1028930D01*
X1027430Y-124690D02*
Y-121690D01*
X1035455Y-142240D02*
X1038455D01*
X1036955Y-143740D02*
Y-140740D01*
X1025930Y-161290D02*
X1028930D01*
X1027430Y-162790D02*
Y-159790D01*
X1035455Y-180340D02*
X1038455D01*
X1036955Y-181840D02*
Y-178840D01*
X1025930Y-199390D02*
X1028930D01*
X1027430Y-200890D02*
Y-197890D01*
X1035455Y-218440D02*
X1038455D01*
X1036955Y-219940D02*
Y-216940D01*
X1025930Y-237490D02*
X1028930D01*
X1027430Y-238990D02*
Y-235990D01*
X1035455Y-256540D02*
X1038455D01*
X1036955Y-258040D02*
Y-255040D01*
X1025930Y-275590D02*
X1028930D01*
X1027430Y-277090D02*
Y-274090D01*
X1035455Y-294640D02*
X1038455D01*
X1036955Y-296140D02*
Y-293140D01*
X1025930Y-313690D02*
X1028930D01*
X1027430Y-315190D02*
Y-312190D01*
X1035455Y-332740D02*
X1038455D01*
X1036955Y-334240D02*
Y-331240D01*
X1025930Y-351790D02*
X1028930D01*
X1027430Y-353290D02*
Y-350290D01*
X1016405Y-27940D02*
X1019405D01*
X1017905Y-29440D02*
Y-26440D01*
X1006880Y-46990D02*
X1009880D01*
X1008380Y-48490D02*
Y-45490D01*
X1016405Y-66040D02*
X1019405D01*
X1017905Y-67540D02*
Y-64540D01*
X1006880Y-85090D02*
X1009880D01*
X1008380Y-86590D02*
Y-83590D01*
X1016405Y-104140D02*
X1019405D01*
X1017905Y-105640D02*
Y-102640D01*
X1006880Y-123190D02*
X1009880D01*
X1008380Y-124690D02*
Y-121690D01*
X1016405Y-142240D02*
X1019405D01*
X1017905Y-143740D02*
Y-140740D01*
X1006880Y-161290D02*
X1009880D01*
X1008380Y-162790D02*
Y-159790D01*
X1016405Y-180340D02*
X1019405D01*
X1017905Y-181840D02*
Y-178840D01*
X1006880Y-199390D02*
X1009880D01*
X1008380Y-200890D02*
Y-197890D01*
X1016405Y-218440D02*
X1019405D01*
X1017905Y-219940D02*
Y-216940D01*
X1006880Y-237490D02*
X1009880D01*
X1008380Y-238990D02*
Y-235990D01*
X1016405Y-256540D02*
X1019405D01*
X1017905Y-258040D02*
Y-255040D01*
X1006880Y-275590D02*
X1009880D01*
X1008380Y-277090D02*
Y-274090D01*
X1016405Y-294640D02*
X1019405D01*
X1017905Y-296140D02*
Y-293140D01*
X1006880Y-313690D02*
X1009880D01*
X1008380Y-315190D02*
Y-312190D01*
X1016405Y-332740D02*
X1019405D01*
X1017905Y-334240D02*
Y-331240D01*
X1006880Y-351790D02*
X1009880D01*
X1008380Y-353290D02*
Y-350290D01*
X997355Y-27940D02*
X1000355D01*
X998855Y-29440D02*
Y-26440D01*
X987830Y-46990D02*
X990830D01*
X989330Y-48490D02*
Y-45490D01*
X997355Y-66040D02*
X1000355D01*
X998855Y-67540D02*
Y-64540D01*
X987830Y-85090D02*
X990830D01*
X989330Y-86590D02*
Y-83590D01*
X997355Y-104140D02*
X1000355D01*
X998855Y-105640D02*
Y-102640D01*
X987830Y-123190D02*
X990830D01*
X989330Y-124690D02*
Y-121690D01*
X997355Y-142240D02*
X1000355D01*
X998855Y-143740D02*
Y-140740D01*
X987830Y-161290D02*
X990830D01*
X989330Y-162790D02*
Y-159790D01*
X997355Y-180340D02*
X1000355D01*
X998855Y-181840D02*
Y-178840D01*
X987830Y-199390D02*
X990830D01*
X989330Y-200890D02*
Y-197890D01*
X997355Y-218440D02*
X1000355D01*
X998855Y-219940D02*
Y-216940D01*
X987830Y-237490D02*
X990830D01*
X989330Y-238990D02*
Y-235990D01*
X997355Y-256540D02*
X1000355D01*
X998855Y-258040D02*
Y-255040D01*
X987830Y-275590D02*
X990830D01*
X989330Y-277090D02*
Y-274090D01*
X997355Y-294640D02*
X1000355D01*
X998855Y-296140D02*
Y-293140D01*
X987830Y-313690D02*
X990830D01*
X989330Y-315190D02*
Y-312190D01*
X997355Y-332740D02*
X1000355D01*
X998855Y-334240D02*
Y-331240D01*
X987830Y-351790D02*
X990830D01*
X989330Y-353290D02*
Y-350290D01*
X978305Y-27940D02*
X981305D01*
X979805Y-29440D02*
Y-26440D01*
X968780Y-46990D02*
X971780D01*
X970280Y-48490D02*
Y-45490D01*
X978305Y-66040D02*
X981305D01*
X979805Y-67540D02*
Y-64540D01*
X968780Y-85090D02*
X971780D01*
X970280Y-86590D02*
Y-83590D01*
X978305Y-104140D02*
X981305D01*
X979805Y-105640D02*
Y-102640D01*
X968780Y-123190D02*
X971780D01*
X970280Y-124690D02*
Y-121690D01*
X978305Y-142240D02*
X981305D01*
X979805Y-143740D02*
Y-140740D01*
X968780Y-161290D02*
X971780D01*
X970280Y-162790D02*
Y-159790D01*
X978305Y-180340D02*
X981305D01*
X979805Y-181840D02*
Y-178840D01*
X968780Y-199390D02*
X971780D01*
X970280Y-200890D02*
Y-197890D01*
X978305Y-218440D02*
X981305D01*
X979805Y-219940D02*
Y-216940D01*
X968780Y-237490D02*
X971780D01*
X970280Y-238990D02*
Y-235990D01*
X978305Y-256540D02*
X981305D01*
X979805Y-258040D02*
Y-255040D01*
X978305Y-294640D02*
X981305D01*
X979805Y-296140D02*
Y-293140D01*
X968780Y-313690D02*
X971780D01*
X970280Y-315190D02*
Y-312190D01*
X978305Y-332740D02*
X981305D01*
X979805Y-334240D02*
Y-331240D01*
X968780Y-351790D02*
X971780D01*
X970280Y-353290D02*
Y-350290D01*
X959255Y-27940D02*
X962255D01*
X960755Y-29440D02*
Y-26440D01*
X949730Y-46990D02*
X952730D01*
X951230Y-48490D02*
Y-45490D01*
X959255Y-66040D02*
X962255D01*
X960755Y-67540D02*
Y-64540D01*
X949730Y-85090D02*
X952730D01*
X951230Y-86590D02*
Y-83590D01*
X959255Y-104140D02*
X962255D01*
X960755Y-105640D02*
Y-102640D01*
X949730Y-123190D02*
X952730D01*
X951230Y-124690D02*
Y-121690D01*
X959255Y-142240D02*
X962255D01*
X960755Y-143740D02*
Y-140740D01*
X949730Y-161290D02*
X952730D01*
X951230Y-162790D02*
Y-159790D01*
X959255Y-180340D02*
X962255D01*
X960755Y-181840D02*
Y-178840D01*
X949730Y-237490D02*
X952730D01*
X951230Y-238990D02*
Y-235990D01*
X959255Y-256540D02*
X962255D01*
X960755Y-258040D02*
Y-255040D01*
X959255Y-332740D02*
X962255D01*
X960755Y-334240D02*
Y-331240D01*
X949730Y-351790D02*
X952730D01*
X951230Y-353290D02*
Y-350290D01*
X940205Y-27940D02*
X943205D01*
X941705Y-29440D02*
Y-26440D01*
X930680Y-46990D02*
X933680D01*
X932180Y-48490D02*
Y-45490D01*
X940205Y-66040D02*
X943205D01*
X941705Y-67540D02*
Y-64540D01*
X930680Y-85090D02*
X933680D01*
X932180Y-86590D02*
Y-83590D01*
X940205Y-104140D02*
X943205D01*
X941705Y-105640D02*
Y-102640D01*
X930680Y-123190D02*
X933680D01*
X932180Y-124690D02*
Y-121690D01*
X940205Y-142240D02*
X943205D01*
X941705Y-143740D02*
Y-140740D01*
X930680Y-161290D02*
X933680D01*
X932180Y-162790D02*
Y-159790D01*
X940205Y-180340D02*
X943205D01*
X941705Y-181840D02*
Y-178840D01*
X930680Y-199390D02*
X933680D01*
X932180Y-200890D02*
Y-197890D01*
X940205Y-256540D02*
X943205D01*
X941705Y-258040D02*
Y-255040D01*
X930680Y-275590D02*
X933680D01*
X932180Y-277090D02*
Y-274090D01*
X930680Y-313690D02*
X933680D01*
X932180Y-315190D02*
Y-312190D01*
X940205Y-332740D02*
X943205D01*
X941705Y-334240D02*
Y-331240D01*
X930680Y-351790D02*
X933680D01*
X932180Y-353290D02*
Y-350290D01*
X921155Y-27940D02*
X924155D01*
X922655Y-29440D02*
Y-26440D01*
X911630Y-46990D02*
X914630D01*
X913130Y-48490D02*
Y-45490D01*
X921155Y-66040D02*
X924155D01*
X922655Y-67540D02*
Y-64540D01*
X911630Y-85090D02*
X914630D01*
X913130Y-86590D02*
Y-83590D01*
X921155Y-104140D02*
X924155D01*
X922655Y-105640D02*
Y-102640D01*
X911630Y-123190D02*
X914630D01*
X913130Y-124690D02*
Y-121690D01*
X921155Y-142240D02*
X924155D01*
X922655Y-143740D02*
Y-140740D01*
X911630Y-161290D02*
X914630D01*
X913130Y-162790D02*
Y-159790D01*
X921155Y-180340D02*
X924155D01*
X922655Y-181840D02*
Y-178840D01*
X911630Y-199390D02*
X914630D01*
X913130Y-200890D02*
Y-197890D01*
X921155Y-218440D02*
X924155D01*
X922655Y-219940D02*
Y-216940D01*
X921155Y-256540D02*
X924155D01*
X922655Y-258040D02*
Y-255040D01*
X911630Y-275590D02*
X914630D01*
X913130Y-277090D02*
Y-274090D01*
X921155Y-294640D02*
X924155D01*
X922655Y-296140D02*
Y-293140D01*
X911630Y-313690D02*
X914630D01*
X913130Y-315190D02*
Y-312190D01*
X921155Y-332740D02*
X924155D01*
X922655Y-334240D02*
Y-331240D01*
X911630Y-351790D02*
X914630D01*
X913130Y-353290D02*
Y-350290D01*
X902105Y-27940D02*
X905105D01*
X903605Y-29440D02*
Y-26440D01*
X892580Y-46990D02*
X895580D01*
X894080Y-48490D02*
Y-45490D01*
X902105Y-66040D02*
X905105D01*
X903605Y-67540D02*
Y-64540D01*
X892580Y-85090D02*
X895580D01*
X894080Y-86590D02*
Y-83590D01*
X902105Y-104140D02*
X905105D01*
X903605Y-105640D02*
Y-102640D01*
X892580Y-123190D02*
X895580D01*
X894080Y-124690D02*
Y-121690D01*
X902105Y-142240D02*
X905105D01*
X903605Y-143740D02*
Y-140740D01*
X892580Y-161290D02*
X895580D01*
X894080Y-162790D02*
Y-159790D01*
X902105Y-180340D02*
X905105D01*
X903605Y-181840D02*
Y-178840D01*
X892580Y-199390D02*
X895580D01*
X894080Y-200890D02*
Y-197890D01*
X902105Y-218440D02*
X905105D01*
X903605Y-219940D02*
Y-216940D01*
X892580Y-237490D02*
X895580D01*
X894080Y-238990D02*
Y-235990D01*
X902105Y-294640D02*
X905105D01*
X903605Y-296140D02*
Y-293140D01*
X892580Y-313690D02*
X895580D01*
X894080Y-315190D02*
Y-312190D01*
X902105Y-332740D02*
X905105D01*
X903605Y-334240D02*
Y-331240D01*
X892580Y-351790D02*
X895580D01*
X894080Y-353290D02*
Y-350290D01*
X883055Y-27940D02*
X886055D01*
X884555Y-29440D02*
Y-26440D01*
X873530Y-46990D02*
X876530D01*
X875030Y-48490D02*
Y-45490D01*
X883055Y-66040D02*
X886055D01*
X884555Y-67540D02*
Y-64540D01*
X873530Y-85090D02*
X876530D01*
X875030Y-86590D02*
Y-83590D01*
X883055Y-104140D02*
X886055D01*
X884555Y-105640D02*
Y-102640D01*
X873530Y-123190D02*
X876530D01*
X875030Y-124690D02*
Y-121690D01*
X883055Y-142240D02*
X886055D01*
X884555Y-143740D02*
Y-140740D01*
X873530Y-161290D02*
X876530D01*
X875030Y-162790D02*
Y-159790D01*
X883055Y-180340D02*
X886055D01*
X884555Y-181840D02*
Y-178840D01*
X873530Y-199390D02*
X876530D01*
X875030Y-200890D02*
Y-197890D01*
X883055Y-218440D02*
X886055D01*
X884555Y-219940D02*
Y-216940D01*
X873530Y-237490D02*
X876530D01*
X875030Y-238990D02*
Y-235990D01*
X883055Y-256540D02*
X886055D01*
X884555Y-258040D02*
Y-255040D01*
X883055Y-294640D02*
X886055D01*
X884555Y-296140D02*
Y-293140D01*
X873530Y-313690D02*
X876530D01*
X875030Y-315190D02*
Y-312190D01*
X883055Y-332740D02*
X886055D01*
X884555Y-334240D02*
Y-331240D01*
X873530Y-351790D02*
X876530D01*
X875030Y-353290D02*
Y-350290D01*
X864005Y-27940D02*
X867005D01*
X865505Y-29440D02*
Y-26440D01*
X854480Y-46990D02*
X857480D01*
X855980Y-48490D02*
Y-45490D01*
X864005Y-66040D02*
X867005D01*
X865505Y-67540D02*
Y-64540D01*
X854480Y-85090D02*
X857480D01*
X855980Y-86590D02*
Y-83590D01*
X864005Y-104140D02*
X867005D01*
X865505Y-105640D02*
Y-102640D01*
X854480Y-123190D02*
X857480D01*
X855980Y-124690D02*
Y-121690D01*
X864005Y-142240D02*
X867005D01*
X865505Y-143740D02*
Y-140740D01*
X854480Y-161290D02*
X857480D01*
X855980Y-162790D02*
Y-159790D01*
X854480Y-237490D02*
X857480D01*
X855980Y-238990D02*
Y-235990D01*
X864005Y-256540D02*
X867005D01*
X865505Y-258040D02*
Y-255040D01*
X864005Y-294640D02*
X867005D01*
X865505Y-296140D02*
Y-293140D01*
X854480Y-313690D02*
X857480D01*
X855980Y-315190D02*
Y-312190D01*
X864005Y-332740D02*
X867005D01*
X865505Y-334240D02*
Y-331240D01*
X854480Y-351790D02*
X857480D01*
X855980Y-353290D02*
Y-350290D01*
X844955Y-104140D02*
X847955D01*
X846455Y-105640D02*
Y-102640D01*
X835430Y-199390D02*
X838430D01*
X836930Y-200890D02*
Y-197890D01*
X835430Y-237490D02*
X838430D01*
X836930Y-238990D02*
Y-235990D01*
X844955Y-256540D02*
X847955D01*
X846455Y-258040D02*
Y-255040D01*
X844955Y-294640D02*
X847955D01*
X846455Y-296140D02*
Y-293140D01*
X835430Y-313690D02*
X838430D01*
X836930Y-315190D02*
Y-312190D01*
X844955Y-332740D02*
X847955D01*
X846455Y-334240D02*
Y-331240D01*
X835430Y-351790D02*
X838430D01*
X836930Y-353290D02*
Y-350290D01*
X825905Y-66040D02*
X828905D01*
X827405Y-67540D02*
Y-64540D01*
X825905Y-104140D02*
X828905D01*
X827405Y-105640D02*
Y-102640D01*
X816380Y-123190D02*
X819380D01*
X817880Y-124690D02*
Y-121690D01*
X816380Y-161290D02*
X819380D01*
X817880Y-162790D02*
Y-159790D01*
X825905Y-218440D02*
X828905D01*
X827405Y-219940D02*
Y-216940D01*
X816380Y-237490D02*
X819380D01*
X817880Y-238990D02*
Y-235990D01*
X825905Y-256540D02*
X828905D01*
X827405Y-258040D02*
Y-255040D01*
X825905Y-294640D02*
X828905D01*
X827405Y-296140D02*
Y-293140D01*
X825905Y-332740D02*
X828905D01*
X827405Y-334240D02*
Y-331240D01*
X816380Y-351790D02*
X819380D01*
X817880Y-353290D02*
Y-350290D01*
X806855Y-66040D02*
X809855D01*
X808355Y-67540D02*
Y-64540D01*
X806855Y-104140D02*
X809855D01*
X808355Y-105640D02*
Y-102640D01*
X797330Y-123190D02*
X800330D01*
X798830Y-124690D02*
Y-121690D01*
X806855Y-142240D02*
X809855D01*
X808355Y-143740D02*
Y-140740D01*
X806855Y-256540D02*
X809855D01*
X808355Y-258040D02*
Y-255040D01*
X797330Y-351790D02*
X800330D01*
X798830Y-353290D02*
Y-350290D01*
X787805Y-66040D02*
X790805D01*
X789305Y-67540D02*
Y-64540D01*
X778280Y-123190D02*
X781280D01*
X779780Y-124690D02*
Y-121690D01*
X787805Y-142240D02*
X790805D01*
X789305Y-143740D02*
Y-140740D01*
X778280Y-275590D02*
X781280D01*
X779780Y-277090D02*
Y-274090D01*
X787805Y-294640D02*
X790805D01*
X789305Y-296140D02*
Y-293140D01*
X778280Y-313690D02*
X781280D01*
X779780Y-315190D02*
Y-312190D01*
X787805Y-332740D02*
X790805D01*
X789305Y-334240D02*
Y-331240D01*
X778280Y-351790D02*
X781280D01*
X779780Y-353290D02*
Y-350290D01*
X768755Y-27940D02*
X771755D01*
X770255Y-29440D02*
Y-26440D01*
X759230Y-46990D02*
X762230D01*
X760730Y-48490D02*
Y-45490D01*
X768755Y-66040D02*
X771755D01*
X770255Y-67540D02*
Y-64540D01*
X768755Y-104140D02*
X771755D01*
X770255Y-105640D02*
Y-102640D01*
X759230Y-123190D02*
X762230D01*
X760730Y-124690D02*
Y-121690D01*
X768755Y-142240D02*
X771755D01*
X770255Y-143740D02*
Y-140740D01*
X759230Y-161290D02*
X762230D01*
X760730Y-162790D02*
Y-159790D01*
X768755Y-180340D02*
X771755D01*
X770255Y-181840D02*
Y-178840D01*
X768755Y-218440D02*
X771755D01*
X770255Y-219940D02*
Y-216940D01*
X768755Y-256540D02*
X771755D01*
X770255Y-258040D02*
Y-255040D01*
X759230Y-275590D02*
X762230D01*
X760730Y-277090D02*
Y-274090D01*
X768755Y-294640D02*
X771755D01*
X770255Y-296140D02*
Y-293140D01*
X759230Y-313690D02*
X762230D01*
X760730Y-315190D02*
Y-312190D01*
X768755Y-332740D02*
X771755D01*
X770255Y-334240D02*
Y-331240D01*
X759230Y-351790D02*
X762230D01*
X760730Y-353290D02*
Y-350290D01*
X740180Y-85090D02*
X743180D01*
X741680Y-86590D02*
Y-83590D01*
X740180Y-123190D02*
X743180D01*
X741680Y-124690D02*
Y-121690D01*
X749705Y-142240D02*
X752705D01*
X751205Y-143740D02*
Y-140740D01*
X740180Y-161290D02*
X743180D01*
X741680Y-162790D02*
Y-159790D01*
X749705Y-180340D02*
X752705D01*
X751205Y-181840D02*
Y-178840D01*
X749705Y-294640D02*
X752705D01*
X751205Y-296140D02*
Y-293140D01*
X740180Y-313690D02*
X743180D01*
X741680Y-315190D02*
Y-312190D01*
X749705Y-332740D02*
X752705D01*
X751205Y-334240D02*
Y-331240D01*
X740180Y-351790D02*
X743180D01*
X741680Y-353290D02*
Y-350290D01*
X730655Y-66040D02*
X733655D01*
X732155Y-67540D02*
Y-64540D01*
X721130Y-85090D02*
X724130D01*
X722630Y-86590D02*
Y-83590D01*
X721130Y-123190D02*
X724130D01*
X722630Y-124690D02*
Y-121690D01*
X730655Y-142240D02*
X733655D01*
X732155Y-143740D02*
Y-140740D01*
X721130Y-161290D02*
X724130D01*
X722630Y-162790D02*
Y-159790D01*
X730655Y-180340D02*
X733655D01*
X732155Y-181840D02*
Y-178840D01*
X730655Y-256540D02*
X733655D01*
X732155Y-258040D02*
Y-255040D01*
X730655Y-294640D02*
X733655D01*
X732155Y-296140D02*
Y-293140D01*
X730655Y-332740D02*
X733655D01*
X732155Y-334240D02*
Y-331240D01*
X721130Y-351790D02*
X724130D01*
X722630Y-353290D02*
Y-350290D01*
X711605Y-27940D02*
X714605D01*
X713105Y-29440D02*
Y-26440D01*
X702080Y-85090D02*
X705080D01*
X703580Y-86590D02*
Y-83590D01*
X702080Y-123190D02*
X705080D01*
X703580Y-124690D02*
Y-121690D01*
X711605Y-142240D02*
X714605D01*
X713105Y-143740D02*
Y-140740D01*
X702080Y-161290D02*
X705080D01*
X703580Y-162790D02*
Y-159790D01*
X711605Y-180340D02*
X714605D01*
X713105Y-181840D02*
Y-178840D01*
X702080Y-351790D02*
X705080D01*
X703580Y-353290D02*
Y-350290D01*
X683030Y-46990D02*
X686030D01*
X684530Y-48490D02*
Y-45490D01*
X683030Y-85090D02*
X686030D01*
X684530Y-86590D02*
Y-83590D01*
X692555Y-142240D02*
X695555D01*
X694055Y-143740D02*
Y-140740D01*
X692555Y-180340D02*
X695555D01*
X694055Y-181840D02*
Y-178840D01*
X692555Y-218440D02*
X695555D01*
X694055Y-219940D02*
Y-216940D01*
X692555Y-256540D02*
X695555D01*
X694055Y-258040D02*
Y-255040D01*
X692555Y-332740D02*
X695555D01*
X694055Y-334240D02*
Y-331240D01*
X683030Y-351790D02*
X686030D01*
X684530Y-353290D02*
Y-350290D01*
X673505Y-27940D02*
X676505D01*
X675005Y-29440D02*
Y-26440D01*
X663980Y-46990D02*
X666980D01*
X665480Y-48490D02*
Y-45490D01*
X663980Y-85090D02*
X666980D01*
X665480Y-86590D02*
Y-83590D01*
X673505Y-104140D02*
X676505D01*
X675005Y-105640D02*
Y-102640D01*
X663980Y-123190D02*
X666980D01*
X665480Y-124690D02*
Y-121690D01*
X663980Y-161290D02*
X666980D01*
X665480Y-162790D02*
Y-159790D01*
X663980Y-199390D02*
X666980D01*
X665480Y-200890D02*
Y-197890D01*
X663980Y-275590D02*
X666980D01*
X665480Y-277090D02*
Y-274090D01*
X663980Y-313690D02*
X666980D01*
X665480Y-315190D02*
Y-312190D01*
X673505Y-332740D02*
X676505D01*
X675005Y-334240D02*
Y-331240D01*
X663980Y-351790D02*
X666980D01*
X665480Y-353290D02*
Y-350290D01*
X654455Y-27940D02*
X657455D01*
X655955Y-29440D02*
Y-26440D01*
X644930Y-46990D02*
X647930D01*
X646430Y-48490D02*
Y-45490D01*
X644930Y-85090D02*
X647930D01*
X646430Y-86590D02*
Y-83590D01*
X654455Y-104140D02*
X657455D01*
X655955Y-105640D02*
Y-102640D01*
X644930Y-123190D02*
X647930D01*
X646430Y-124690D02*
Y-121690D01*
X654455Y-142240D02*
X657455D01*
X655955Y-143740D02*
Y-140740D01*
X644930Y-161290D02*
X647930D01*
X646430Y-162790D02*
Y-159790D01*
X654455Y-180340D02*
X657455D01*
X655955Y-181840D02*
Y-178840D01*
X644930Y-199390D02*
X647930D01*
X646430Y-200890D02*
Y-197890D01*
X654455Y-218440D02*
X657455D01*
X655955Y-219940D02*
Y-216940D01*
X654455Y-256540D02*
X657455D01*
X655955Y-258040D02*
Y-255040D01*
X644930Y-275590D02*
X647930D01*
X646430Y-277090D02*
Y-274090D01*
X654455Y-294640D02*
X657455D01*
X655955Y-296140D02*
Y-293140D01*
X654455Y-332740D02*
X657455D01*
X655955Y-334240D02*
Y-331240D01*
X644930Y-351790D02*
X647930D01*
X646430Y-353290D02*
Y-350290D01*
X625880Y-85090D02*
X628880D01*
X627380Y-86590D02*
Y-83590D01*
X625880Y-123190D02*
X628880D01*
X627380Y-124690D02*
Y-121690D01*
X635405Y-142240D02*
X638405D01*
X636905Y-143740D02*
Y-140740D01*
X625880Y-161290D02*
X628880D01*
X627380Y-162790D02*
Y-159790D01*
X625880Y-351790D02*
X628880D01*
X627380Y-353290D02*
Y-350290D01*
X606830Y-46990D02*
X609830D01*
X608330Y-48490D02*
Y-45490D01*
X606830Y-85090D02*
X609830D01*
X608330Y-86590D02*
Y-83590D01*
X606830Y-123190D02*
X609830D01*
X608330Y-124690D02*
Y-121690D01*
X616355Y-142240D02*
X619355D01*
X617855Y-143740D02*
Y-140740D01*
X606830Y-161290D02*
X609830D01*
X608330Y-162790D02*
Y-159790D01*
X606830Y-199390D02*
X609830D01*
X608330Y-200890D02*
Y-197890D01*
X606830Y-275590D02*
X609830D01*
X608330Y-277090D02*
Y-274090D01*
X606830Y-313690D02*
X609830D01*
X608330Y-315190D02*
Y-312190D01*
X606830Y-351790D02*
X609830D01*
X608330Y-353290D02*
Y-350290D01*
X597305Y-27940D02*
X600305D01*
X598805Y-29440D02*
Y-26440D01*
X587780Y-46990D02*
X590780D01*
X589280Y-48490D02*
Y-45490D01*
X587780Y-85090D02*
X590780D01*
X589280Y-86590D02*
Y-83590D01*
X597305Y-104140D02*
X600305D01*
X598805Y-105640D02*
Y-102640D01*
X587780Y-123190D02*
X590780D01*
X589280Y-124690D02*
Y-121690D01*
X597305Y-180340D02*
X600305D01*
X598805Y-181840D02*
Y-178840D01*
X587780Y-199390D02*
X590780D01*
X589280Y-200890D02*
Y-197890D01*
X597305Y-218440D02*
X600305D01*
X598805Y-219940D02*
Y-216940D01*
X597305Y-256540D02*
X600305D01*
X598805Y-258040D02*
Y-255040D01*
X587780Y-275590D02*
X590780D01*
X589280Y-277090D02*
Y-274090D01*
X597305Y-294640D02*
X600305D01*
X598805Y-296140D02*
Y-293140D01*
X587780Y-313690D02*
X590780D01*
X589280Y-315190D02*
Y-312190D01*
X597305Y-332740D02*
X600305D01*
X598805Y-334240D02*
Y-331240D01*
X587780Y-351790D02*
X590780D01*
X589280Y-353290D02*
Y-350290D01*
X578255Y-27940D02*
X581255D01*
X579755Y-29440D02*
Y-26440D01*
X568730Y-46990D02*
X571730D01*
X570230Y-48490D02*
Y-45490D01*
X568730Y-85090D02*
X571730D01*
X570230Y-86590D02*
Y-83590D01*
X578255Y-104140D02*
X581255D01*
X579755Y-105640D02*
Y-102640D01*
X568730Y-123190D02*
X571730D01*
X570230Y-124690D02*
Y-121690D01*
X578255Y-180340D02*
X581255D01*
X579755Y-181840D02*
Y-178840D01*
X568730Y-199390D02*
X571730D01*
X570230Y-200890D02*
Y-197890D01*
X578255Y-218440D02*
X581255D01*
X579755Y-219940D02*
Y-216940D01*
X578255Y-256540D02*
X581255D01*
X579755Y-258040D02*
Y-255040D01*
X578255Y-294640D02*
X581255D01*
X579755Y-296140D02*
Y-293140D01*
X568730Y-313690D02*
X571730D01*
X570230Y-315190D02*
Y-312190D01*
X578255Y-332740D02*
X581255D01*
X579755Y-334240D02*
Y-331240D01*
X568730Y-351790D02*
X571730D01*
X570230Y-353290D02*
Y-350290D01*
X559205Y-27940D02*
X562205D01*
X560705Y-29440D02*
Y-26440D01*
X549680Y-46990D02*
X552680D01*
X551180Y-48490D02*
Y-45490D01*
X549680Y-85090D02*
X552680D01*
X551180Y-86590D02*
Y-83590D01*
X559205Y-104140D02*
X562205D01*
X560705Y-105640D02*
Y-102640D01*
X549680Y-123190D02*
X552680D01*
X551180Y-124690D02*
Y-121690D01*
X559205Y-180340D02*
X562205D01*
X560705Y-181840D02*
Y-178840D01*
X549680Y-199390D02*
X552680D01*
X551180Y-200890D02*
Y-197890D01*
X559205Y-218440D02*
X562205D01*
X560705Y-219940D02*
Y-216940D01*
X559205Y-294640D02*
X562205D01*
X560705Y-296140D02*
Y-293140D01*
X549680Y-313690D02*
X552680D01*
X551180Y-315190D02*
Y-312190D01*
X559205Y-332740D02*
X562205D01*
X560705Y-334240D02*
Y-331240D01*
X549680Y-351790D02*
X552680D01*
X551180Y-353290D02*
Y-350290D01*
X540155Y-27940D02*
X543155D01*
X541655Y-29440D02*
Y-26440D01*
X530630Y-46990D02*
X533630D01*
X532130Y-48490D02*
Y-45490D01*
X530630Y-85090D02*
X533630D01*
X532130Y-86590D02*
Y-83590D01*
X540155Y-104140D02*
X543155D01*
X541655Y-105640D02*
Y-102640D01*
X530630Y-123190D02*
X533630D01*
X532130Y-124690D02*
Y-121690D01*
X540155Y-180340D02*
X543155D01*
X541655Y-181840D02*
Y-178840D01*
X530630Y-199390D02*
X533630D01*
X532130Y-200890D02*
Y-197890D01*
X540155Y-218440D02*
X543155D01*
X541655Y-219940D02*
Y-216940D01*
X540155Y-294640D02*
X543155D01*
X541655Y-296140D02*
Y-293140D01*
X530630Y-313690D02*
X533630D01*
X532130Y-315190D02*
Y-312190D01*
X540155Y-332740D02*
X543155D01*
X541655Y-334240D02*
Y-331240D01*
X530630Y-351790D02*
X533630D01*
X532130Y-353290D02*
Y-350290D01*
X521105Y-27940D02*
X524105D01*
X522605Y-29440D02*
Y-26440D01*
X511580Y-46990D02*
X514580D01*
X513080Y-48490D02*
Y-45490D01*
X521105Y-66040D02*
X524105D01*
X522605Y-67540D02*
Y-64540D01*
X521105Y-104140D02*
X524105D01*
X522605Y-105640D02*
Y-102640D01*
X511580Y-123190D02*
X514580D01*
X513080Y-124690D02*
Y-121690D01*
X521105Y-180340D02*
X524105D01*
X522605Y-181840D02*
Y-178840D01*
X511580Y-199390D02*
X514580D01*
X513080Y-200890D02*
Y-197890D01*
X521105Y-218440D02*
X524105D01*
X522605Y-219940D02*
Y-216940D01*
X521105Y-256540D02*
X524105D01*
X522605Y-258040D02*
Y-255040D01*
X511580Y-275590D02*
X514580D01*
X513080Y-277090D02*
Y-274090D01*
X521105Y-294640D02*
X524105D01*
X522605Y-296140D02*
Y-293140D01*
X511580Y-313690D02*
X514580D01*
X513080Y-315190D02*
Y-312190D01*
X521105Y-332740D02*
X524105D01*
X522605Y-334240D02*
Y-331240D01*
X511580Y-351790D02*
X514580D01*
X513080Y-353290D02*
Y-350290D01*
X502055Y-27940D02*
X505055D01*
X503555Y-29440D02*
Y-26440D01*
X502055Y-180340D02*
X505055D01*
X503555Y-181840D02*
Y-178840D01*
X492530Y-199390D02*
X495530D01*
X494030Y-200890D02*
Y-197890D01*
X502055Y-218440D02*
X505055D01*
X503555Y-219940D02*
Y-216940D01*
X502055Y-256540D02*
X505055D01*
X503555Y-258040D02*
Y-255040D01*
X492530Y-275590D02*
X495530D01*
X494030Y-277090D02*
Y-274090D01*
X502055Y-294640D02*
X505055D01*
X503555Y-296140D02*
Y-293140D01*
X492530Y-313690D02*
X495530D01*
X494030Y-315190D02*
Y-312190D01*
X502055Y-332740D02*
X505055D01*
X503555Y-334240D02*
Y-331240D01*
X492530Y-351790D02*
X495530D01*
X494030Y-353290D02*
Y-350290D01*
X483005Y-27940D02*
X486005D01*
X484505Y-29440D02*
Y-26440D01*
X473480Y-46990D02*
X476480D01*
X474980Y-48490D02*
Y-45490D01*
X473480Y-85090D02*
X476480D01*
X474980Y-86590D02*
Y-83590D01*
X473480Y-161290D02*
X476480D01*
X474980Y-162790D02*
Y-159790D01*
X483005Y-180340D02*
X486005D01*
X484505Y-181840D02*
Y-178840D01*
X473480Y-199390D02*
X476480D01*
X474980Y-200890D02*
Y-197890D01*
X483005Y-256540D02*
X486005D01*
X484505Y-258040D02*
Y-255040D01*
X473480Y-275590D02*
X476480D01*
X474980Y-277090D02*
Y-274090D01*
X483005Y-294640D02*
X486005D01*
X484505Y-296140D02*
Y-293140D01*
X473480Y-313690D02*
X476480D01*
X474980Y-315190D02*
Y-312190D01*
X483005Y-332740D02*
X486005D01*
X484505Y-334240D02*
Y-331240D01*
X473480Y-351790D02*
X476480D01*
X474980Y-353290D02*
Y-350290D01*
X454430Y-46990D02*
X457430D01*
X455930Y-48490D02*
Y-45490D01*
X454430Y-85090D02*
X457430D01*
X455930Y-86590D02*
Y-83590D01*
X454430Y-351790D02*
X457430D01*
X455930Y-353290D02*
Y-350290D01*
X435380Y-46990D02*
X438380D01*
X436880Y-48490D02*
Y-45490D01*
X444905Y-104140D02*
X447905D01*
X446405Y-105640D02*
Y-102640D01*
X435380Y-123190D02*
X438380D01*
X436880Y-124690D02*
Y-121690D01*
X444905Y-142240D02*
X447905D01*
X446405Y-143740D02*
Y-140740D01*
X435380Y-161290D02*
X438380D01*
X436880Y-162790D02*
Y-159790D01*
X435380Y-351790D02*
X438380D01*
X436880Y-353290D02*
Y-350290D01*
X425855Y-142240D02*
X428855D01*
X427355Y-143740D02*
Y-140740D01*
X425855Y-180340D02*
X428855D01*
X427355Y-181840D02*
Y-178840D01*
X425855Y-256540D02*
X428855D01*
X427355Y-258040D02*
Y-255040D01*
X416330Y-313690D02*
X419330D01*
X417830Y-315190D02*
Y-312190D01*
X425855Y-332740D02*
X428855D01*
X427355Y-334240D02*
Y-331240D01*
X416330Y-351790D02*
X419330D01*
X417830Y-353290D02*
Y-350290D01*
X397280Y-46990D02*
X400280D01*
X398780Y-48490D02*
Y-45490D01*
X397280Y-85090D02*
X400280D01*
X398780Y-86590D02*
Y-83590D01*
X397280Y-123190D02*
X400280D01*
X398780Y-124690D02*
Y-121690D01*
X397280Y-161290D02*
X400280D01*
X398780Y-162790D02*
Y-159790D01*
X397280Y-199390D02*
X400280D01*
X398780Y-200890D02*
Y-197890D01*
X397280Y-237490D02*
X400280D01*
X398780Y-238990D02*
Y-235990D01*
X406805Y-294640D02*
X409805D01*
X408305Y-296140D02*
Y-293140D01*
X397280Y-313690D02*
X400280D01*
X398780Y-315190D02*
Y-312190D01*
X406805Y-332740D02*
X409805D01*
X408305Y-334240D02*
Y-331240D01*
X397280Y-351790D02*
X400280D01*
X398780Y-353290D02*
Y-350290D01*
X387755Y-66040D02*
X390755D01*
X389255Y-67540D02*
Y-64540D01*
X387755Y-104140D02*
X390755D01*
X389255Y-105640D02*
Y-102640D01*
X387755Y-142240D02*
X390755D01*
X389255Y-143740D02*
Y-140740D01*
X378230Y-161290D02*
X381230D01*
X379730Y-162790D02*
Y-159790D01*
X387755Y-180340D02*
X390755D01*
X389255Y-181840D02*
Y-178840D01*
X378230Y-199390D02*
X381230D01*
X379730Y-200890D02*
Y-197890D01*
X378230Y-237490D02*
X381230D01*
X379730Y-238990D02*
Y-235990D01*
X378230Y-313690D02*
X381230D01*
X379730Y-315190D02*
Y-312190D01*
X378230Y-351790D02*
X381230D01*
X379730Y-353290D02*
Y-350290D01*
X368705Y-27940D02*
X371705D01*
X370205Y-29440D02*
Y-26440D01*
X359180Y-46990D02*
X362180D01*
X360680Y-48490D02*
Y-45490D01*
X359180Y-199390D02*
X362180D01*
X360680Y-200890D02*
Y-197890D01*
X359180Y-237490D02*
X362180D01*
X360680Y-238990D02*
Y-235990D01*
X368705Y-256540D02*
X371705D01*
X370205Y-258040D02*
Y-255040D01*
X359180Y-275590D02*
X362180D01*
X360680Y-277090D02*
Y-274090D01*
X368705Y-294640D02*
X371705D01*
X370205Y-296140D02*
Y-293140D01*
X359180Y-313690D02*
X362180D01*
X360680Y-315190D02*
Y-312190D01*
X359180Y-351790D02*
X362180D01*
X360680Y-353290D02*
Y-350290D01*
X349655Y-27940D02*
X352655D01*
X351155Y-29440D02*
Y-26440D01*
X340130Y-46990D02*
X343130D01*
X341630Y-48490D02*
Y-45490D01*
X349655Y-66040D02*
X352655D01*
X351155Y-67540D02*
Y-64540D01*
X340130Y-85090D02*
X343130D01*
X341630Y-86590D02*
Y-83590D01*
X349655Y-142240D02*
X352655D01*
X351155Y-143740D02*
Y-140740D01*
X340130Y-199390D02*
X343130D01*
X341630Y-200890D02*
Y-197890D01*
X349655Y-218440D02*
X352655D01*
X351155Y-219940D02*
Y-216940D01*
X349655Y-256540D02*
X352655D01*
X351155Y-258040D02*
Y-255040D01*
X340130Y-275590D02*
X343130D01*
X341630Y-277090D02*
Y-274090D01*
X349655Y-294640D02*
X352655D01*
X351155Y-296140D02*
Y-293140D01*
X340130Y-313690D02*
X343130D01*
X341630Y-315190D02*
Y-312190D01*
X349655Y-332740D02*
X352655D01*
X351155Y-334240D02*
Y-331240D01*
X340130Y-351790D02*
X343130D01*
X341630Y-353290D02*
Y-350290D01*
X330605Y-27940D02*
X333605D01*
X332105Y-29440D02*
Y-26440D01*
X321080Y-46990D02*
X324080D01*
X322580Y-48490D02*
Y-45490D01*
X330605Y-66040D02*
X333605D01*
X332105Y-67540D02*
Y-64540D01*
X330605Y-218440D02*
X333605D01*
X332105Y-219940D02*
Y-216940D01*
X330605Y-256540D02*
X333605D01*
X332105Y-258040D02*
Y-255040D01*
X330605Y-294640D02*
X333605D01*
X332105Y-296140D02*
Y-293140D01*
X321080Y-313690D02*
X324080D01*
X322580Y-315190D02*
Y-312190D01*
X330605Y-332740D02*
X333605D01*
X332105Y-334240D02*
Y-331240D01*
X321080Y-351790D02*
X324080D01*
X322580Y-353290D02*
Y-350290D01*
X311555Y-27940D02*
X314555D01*
X313055Y-29440D02*
Y-26440D01*
X302030Y-46990D02*
X305030D01*
X303530Y-48490D02*
Y-45490D01*
X302030Y-123190D02*
X305030D01*
X303530Y-124690D02*
Y-121690D01*
X311555Y-218440D02*
X314555D01*
X313055Y-219940D02*
Y-216940D01*
X302030Y-313690D02*
X305030D01*
X303530Y-315190D02*
Y-312190D01*
X311555Y-332740D02*
X314555D01*
X313055Y-334240D02*
Y-331240D01*
X302030Y-351790D02*
X305030D01*
X303530Y-353290D02*
Y-350290D01*
X292505Y-27940D02*
X295505D01*
X294005Y-29440D02*
Y-26440D01*
X282980Y-46990D02*
X285980D01*
X284480Y-48490D02*
Y-45490D01*
X282980Y-85090D02*
X285980D01*
X284480Y-86590D02*
Y-83590D01*
X282980Y-123190D02*
X285980D01*
X284480Y-124690D02*
Y-121690D01*
X292505Y-180340D02*
X295505D01*
X294005Y-181840D02*
Y-178840D01*
X282980Y-199390D02*
X285980D01*
X284480Y-200890D02*
Y-197890D01*
X282980Y-237490D02*
X285980D01*
X284480Y-238990D02*
Y-235990D01*
X292505Y-256540D02*
X295505D01*
X294005Y-258040D02*
Y-255040D01*
X282980Y-275590D02*
X285980D01*
X284480Y-277090D02*
Y-274090D01*
X282980Y-313690D02*
X285980D01*
X284480Y-315190D02*
Y-312190D01*
X292505Y-332740D02*
X295505D01*
X294005Y-334240D02*
Y-331240D01*
X282980Y-351790D02*
X285980D01*
X284480Y-353290D02*
Y-350290D01*
X273455Y-27940D02*
X276455D01*
X274955Y-29440D02*
Y-26440D01*
X263930Y-46990D02*
X266930D01*
X265430Y-48490D02*
Y-45490D01*
X273455Y-66040D02*
X276455D01*
X274955Y-67540D02*
Y-64540D01*
X263930Y-85090D02*
X266930D01*
X265430Y-86590D02*
Y-83590D01*
X263930Y-123190D02*
X266930D01*
X265430Y-124690D02*
Y-121690D01*
X273455Y-180340D02*
X276455D01*
X274955Y-181840D02*
Y-178840D01*
X263930Y-199390D02*
X266930D01*
X265430Y-200890D02*
Y-197890D01*
X273455Y-218440D02*
X276455D01*
X274955Y-219940D02*
Y-216940D01*
X273455Y-256540D02*
X276455D01*
X274955Y-258040D02*
Y-255040D01*
X273455Y-294640D02*
X276455D01*
X274955Y-296140D02*
Y-293140D01*
X263930Y-313690D02*
X266930D01*
X265430Y-315190D02*
Y-312190D01*
X273455Y-332740D02*
X276455D01*
X274955Y-334240D02*
Y-331240D01*
X263930Y-351790D02*
X266930D01*
X265430Y-353290D02*
Y-350290D01*
X254405Y-27940D02*
X257405D01*
X255905Y-29440D02*
Y-26440D01*
X244880Y-46990D02*
X247880D01*
X246380Y-48490D02*
Y-45490D01*
X254405Y-66040D02*
X257405D01*
X255905Y-67540D02*
Y-64540D01*
X244880Y-123190D02*
X247880D01*
X246380Y-124690D02*
Y-121690D01*
X254405Y-180340D02*
X257405D01*
X255905Y-181840D02*
Y-178840D01*
X244880Y-199390D02*
X247880D01*
X246380Y-200890D02*
Y-197890D01*
X254405Y-218440D02*
X257405D01*
X255905Y-219940D02*
Y-216940D01*
X244880Y-237490D02*
X247880D01*
X246380Y-238990D02*
Y-235990D01*
X254405Y-332740D02*
X257405D01*
X255905Y-334240D02*
Y-331240D01*
X244880Y-351790D02*
X247880D01*
X246380Y-353290D02*
Y-350290D01*
X235355Y-27940D02*
X238355D01*
X236855Y-29440D02*
Y-26440D01*
X235355Y-66040D02*
X238355D01*
X236855Y-67540D02*
Y-64540D01*
X235355Y-104140D02*
X238355D01*
X236855Y-105640D02*
Y-102640D01*
X225830Y-123190D02*
X228830D01*
X227330Y-124690D02*
Y-121690D01*
X225830Y-161290D02*
X228830D01*
X227330Y-162790D02*
Y-159790D01*
X235355Y-218440D02*
X238355D01*
X236855Y-219940D02*
Y-216940D01*
X225830Y-237490D02*
X228830D01*
X227330Y-238990D02*
Y-235990D01*
X235355Y-256540D02*
X238355D01*
X236855Y-258040D02*
Y-255040D01*
X225830Y-313690D02*
X228830D01*
X227330Y-315190D02*
Y-312190D01*
X235355Y-332740D02*
X238355D01*
X236855Y-334240D02*
Y-331240D01*
X225830Y-351790D02*
X228830D01*
X227330Y-353290D02*
Y-350290D01*
X216305Y-27940D02*
X219305D01*
X217805Y-29440D02*
Y-26440D01*
X206780Y-46990D02*
X209780D01*
X208280Y-48490D02*
Y-45490D01*
X206780Y-85090D02*
X209780D01*
X208280Y-86590D02*
Y-83590D01*
X216305Y-104140D02*
X219305D01*
X217805Y-105640D02*
Y-102640D01*
X206780Y-123190D02*
X209780D01*
X208280Y-124690D02*
Y-121690D01*
X206780Y-161290D02*
X209780D01*
X208280Y-162790D02*
Y-159790D01*
X216305Y-180340D02*
X219305D01*
X217805Y-181840D02*
Y-178840D01*
X216305Y-218440D02*
X219305D01*
X217805Y-219940D02*
Y-216940D01*
X206780Y-237490D02*
X209780D01*
X208280Y-238990D02*
Y-235990D01*
X216305Y-256540D02*
X219305D01*
X217805Y-258040D02*
Y-255040D01*
X206780Y-275590D02*
X209780D01*
X208280Y-277090D02*
Y-274090D01*
X216305Y-294640D02*
X219305D01*
X217805Y-296140D02*
Y-293140D01*
X206780Y-313690D02*
X209780D01*
X208280Y-315190D02*
Y-312190D01*
X216305Y-332740D02*
X219305D01*
X217805Y-334240D02*
Y-331240D01*
X206780Y-351790D02*
X209780D01*
X208280Y-353290D02*
Y-350290D01*
X197255Y-27940D02*
X200255D01*
X198755Y-29440D02*
Y-26440D01*
X187730Y-46990D02*
X190730D01*
X189230Y-48490D02*
Y-45490D01*
X197255Y-104140D02*
X200255D01*
X198755Y-105640D02*
Y-102640D01*
X187730Y-123190D02*
X190730D01*
X189230Y-124690D02*
Y-121690D01*
X187730Y-161290D02*
X190730D01*
X189230Y-162790D02*
Y-159790D01*
X197255Y-180340D02*
X200255D01*
X198755Y-181840D02*
Y-178840D01*
X197255Y-256540D02*
X200255D01*
X198755Y-258040D02*
Y-255040D01*
X197255Y-294640D02*
X200255D01*
X198755Y-296140D02*
Y-293140D01*
X187730Y-313690D02*
X190730D01*
X189230Y-315190D02*
Y-312190D01*
X197255Y-332740D02*
X200255D01*
X198755Y-334240D02*
Y-331240D01*
X187730Y-351790D02*
X190730D01*
X189230Y-353290D02*
Y-350290D01*
X178205Y-27940D02*
X181205D01*
X179705Y-29440D02*
Y-26440D01*
X168680Y-46990D02*
X171680D01*
X170180Y-48490D02*
Y-45490D01*
X178205Y-104140D02*
X181205D01*
X179705Y-105640D02*
Y-102640D01*
X168680Y-123190D02*
X171680D01*
X170180Y-124690D02*
Y-121690D01*
X168680Y-161290D02*
X171680D01*
X170180Y-162790D02*
Y-159790D01*
X168680Y-237490D02*
X171680D01*
X170180Y-238990D02*
Y-235990D01*
X168680Y-275590D02*
X171680D01*
X170180Y-277090D02*
Y-274090D01*
X178205Y-294640D02*
X181205D01*
X179705Y-296140D02*
Y-293140D01*
X168680Y-313690D02*
X171680D01*
X170180Y-315190D02*
Y-312190D01*
X178205Y-332740D02*
X181205D01*
X179705Y-334240D02*
Y-331240D01*
X168680Y-351790D02*
X171680D01*
X170180Y-353290D02*
Y-350290D01*
X159155Y-27940D02*
X162155D01*
X160655Y-29440D02*
Y-26440D01*
X149630Y-46990D02*
X152630D01*
X151130Y-48490D02*
Y-45490D01*
X159155Y-104140D02*
X162155D01*
X160655Y-105640D02*
Y-102640D01*
X149630Y-123190D02*
X152630D01*
X151130Y-124690D02*
Y-121690D01*
X159155Y-180340D02*
X162155D01*
X160655Y-181840D02*
Y-178840D01*
X149630Y-199390D02*
X152630D01*
X151130Y-200890D02*
Y-197890D01*
X159155Y-256540D02*
X162155D01*
X160655Y-258040D02*
Y-255040D01*
X149630Y-275590D02*
X152630D01*
X151130Y-277090D02*
Y-274090D01*
X159155Y-294640D02*
X162155D01*
X160655Y-296140D02*
Y-293140D01*
X149630Y-313690D02*
X152630D01*
X151130Y-315190D02*
Y-312190D01*
X159155Y-332740D02*
X162155D01*
X160655Y-334240D02*
Y-331240D01*
X149630Y-351790D02*
X152630D01*
X151130Y-353290D02*
Y-350290D01*
X140105Y-27940D02*
X143105D01*
X141605Y-29440D02*
Y-26440D01*
X130580Y-46990D02*
X133580D01*
X132080Y-48490D02*
Y-45490D01*
X140105Y-104140D02*
X143105D01*
X141605Y-105640D02*
Y-102640D01*
X130580Y-123190D02*
X133580D01*
X132080Y-124690D02*
Y-121690D01*
X140105Y-180340D02*
X143105D01*
X141605Y-181840D02*
Y-178840D01*
X130580Y-199390D02*
X133580D01*
X132080Y-200890D02*
Y-197890D01*
X140105Y-218440D02*
X143105D01*
X141605Y-219940D02*
Y-216940D01*
X130580Y-275590D02*
X133580D01*
X132080Y-277090D02*
Y-274090D01*
X140105Y-294640D02*
X143105D01*
X141605Y-296140D02*
Y-293140D01*
X130580Y-313690D02*
X133580D01*
X132080Y-315190D02*
Y-312190D01*
X140105Y-332740D02*
X143105D01*
X141605Y-334240D02*
Y-331240D01*
X130580Y-351790D02*
X133580D01*
X132080Y-353290D02*
Y-350290D01*
X121055Y-27940D02*
X124055D01*
X122555Y-29440D02*
Y-26440D01*
X111530Y-46990D02*
X114530D01*
X113030Y-48490D02*
Y-45490D01*
X121055Y-104140D02*
X124055D01*
X122555Y-105640D02*
Y-102640D01*
X111530Y-123190D02*
X114530D01*
X113030Y-124690D02*
Y-121690D01*
X121055Y-142240D02*
X124055D01*
X122555Y-143740D02*
Y-140740D01*
X111530Y-161290D02*
X114530D01*
X113030Y-162790D02*
Y-159790D01*
X111530Y-199390D02*
X114530D01*
X113030Y-200890D02*
Y-197890D01*
X121055Y-218440D02*
X124055D01*
X122555Y-219940D02*
Y-216940D01*
X111530Y-237490D02*
X114530D01*
X113030Y-238990D02*
Y-235990D01*
X111530Y-275590D02*
X114530D01*
X113030Y-277090D02*
Y-274090D01*
X121055Y-294640D02*
X124055D01*
X122555Y-296140D02*
Y-293140D01*
X111530Y-313690D02*
X114530D01*
X113030Y-315190D02*
Y-312190D01*
X121055Y-332740D02*
X124055D01*
X122555Y-334240D02*
Y-331240D01*
X111530Y-351790D02*
X114530D01*
X113030Y-353290D02*
Y-350290D01*
X102005Y-27940D02*
X105005D01*
X103505Y-29440D02*
Y-26440D01*
X92480Y-46990D02*
X95480D01*
X93980Y-48490D02*
Y-45490D01*
X102005Y-104140D02*
X105005D01*
X103505Y-105640D02*
Y-102640D01*
X92480Y-123190D02*
X95480D01*
X93980Y-124690D02*
Y-121690D01*
X92480Y-161290D02*
X95480D01*
X93980Y-162790D02*
Y-159790D01*
X92480Y-199390D02*
X95480D01*
X93980Y-200890D02*
Y-197890D01*
X92480Y-237490D02*
X95480D01*
X93980Y-238990D02*
Y-235990D01*
X92480Y-275590D02*
X95480D01*
X93980Y-277090D02*
Y-274090D01*
X102005Y-294640D02*
X105005D01*
X103505Y-296140D02*
Y-293140D01*
X92480Y-313690D02*
X95480D01*
X93980Y-315190D02*
Y-312190D01*
X102005Y-332740D02*
X105005D01*
X103505Y-334240D02*
Y-331240D01*
X92480Y-351790D02*
X95480D01*
X93980Y-353290D02*
Y-350290D01*
X82955Y-27940D02*
X85955D01*
X84455Y-29440D02*
Y-26440D01*
X73430Y-46990D02*
X76430D01*
X74930Y-48490D02*
Y-45490D01*
X82955Y-66040D02*
X85955D01*
X84455Y-67540D02*
Y-64540D01*
X73430Y-123190D02*
X76430D01*
X74930Y-124690D02*
Y-121690D01*
X73430Y-161290D02*
X76430D01*
X74930Y-162790D02*
Y-159790D01*
X73430Y-199390D02*
X76430D01*
X74930Y-200890D02*
Y-197890D01*
X73430Y-237490D02*
X76430D01*
X74930Y-238990D02*
Y-235990D01*
X73430Y-275590D02*
X76430D01*
X74930Y-277090D02*
Y-274090D01*
X82955Y-294640D02*
X85955D01*
X84455Y-296140D02*
Y-293140D01*
X73430Y-313690D02*
X76430D01*
X74930Y-315190D02*
Y-312190D01*
X82955Y-332740D02*
X85955D01*
X84455Y-334240D02*
Y-331240D01*
X73430Y-351790D02*
X76430D01*
X74930Y-353290D02*
Y-350290D01*
X63905Y-27940D02*
X66905D01*
X65405Y-29440D02*
Y-26440D01*
X54380Y-46990D02*
X57380D01*
X55880Y-48490D02*
Y-45490D01*
X63905Y-66040D02*
X66905D01*
X65405Y-67540D02*
Y-64540D01*
X54380Y-85090D02*
X57380D01*
X55880Y-86590D02*
Y-83590D01*
X54380Y-123190D02*
X57380D01*
X55880Y-124690D02*
Y-121690D01*
X54380Y-161290D02*
X57380D01*
X55880Y-162790D02*
Y-159790D01*
X54380Y-199390D02*
X57380D01*
X55880Y-200890D02*
Y-197890D01*
X54380Y-237490D02*
X57380D01*
X55880Y-238990D02*
Y-235990D01*
X54380Y-275590D02*
X57380D01*
X55880Y-277090D02*
Y-274090D01*
X63905Y-294640D02*
X66905D01*
X65405Y-296140D02*
Y-293140D01*
X54380Y-313690D02*
X57380D01*
X55880Y-315190D02*
Y-312190D01*
X63905Y-332740D02*
X66905D01*
X65405Y-334240D02*
Y-331240D01*
X54380Y-351790D02*
X57380D01*
X55880Y-353290D02*
Y-350290D01*
X44855Y-27940D02*
X47855D01*
X46355Y-29440D02*
Y-26440D01*
X35330Y-46990D02*
X38330D01*
X36830Y-48490D02*
Y-45490D01*
X44855Y-66040D02*
X47855D01*
X46355Y-67540D02*
Y-64540D01*
X35330Y-85090D02*
X38330D01*
X36830Y-86590D02*
Y-83590D01*
X44855Y-104140D02*
X47855D01*
X46355Y-105640D02*
Y-102640D01*
X35330Y-123190D02*
X38330D01*
X36830Y-124690D02*
Y-121690D01*
X35330Y-161290D02*
X38330D01*
X36830Y-162790D02*
Y-159790D01*
X44855Y-180340D02*
X47855D01*
X46355Y-181840D02*
Y-178840D01*
X35330Y-199390D02*
X38330D01*
X36830Y-200890D02*
Y-197890D01*
X35330Y-237490D02*
X38330D01*
X36830Y-238990D02*
Y-235990D01*
X44855Y-256540D02*
X47855D01*
X46355Y-258040D02*
Y-255040D01*
X35330Y-275590D02*
X38330D01*
X36830Y-277090D02*
Y-274090D01*
X44855Y-294640D02*
X47855D01*
X46355Y-296140D02*
Y-293140D01*
X35330Y-313690D02*
X38330D01*
X36830Y-315190D02*
Y-312190D01*
X44855Y-332740D02*
X47855D01*
X46355Y-334240D02*
Y-331240D01*
X35330Y-351790D02*
X38330D01*
X36830Y-353290D02*
Y-350290D01*
X25805Y-27940D02*
X28805D01*
X27305Y-29440D02*
Y-26440D01*
X16280Y-46990D02*
X19280D01*
X17780Y-48490D02*
Y-45490D01*
X25805Y-66040D02*
X28805D01*
X27305Y-67540D02*
Y-64540D01*
X16280Y-85090D02*
X19280D01*
X17780Y-86590D02*
Y-83590D01*
X25805Y-104140D02*
X28805D01*
X27305Y-105640D02*
Y-102640D01*
X16280Y-123190D02*
X19280D01*
X17780Y-124690D02*
Y-121690D01*
X25805Y-142240D02*
X28805D01*
X27305Y-143740D02*
Y-140740D01*
X16280Y-161290D02*
X19280D01*
X17780Y-162790D02*
Y-159790D01*
X25805Y-180340D02*
X28805D01*
X27305Y-181840D02*
Y-178840D01*
X16280Y-199390D02*
X19280D01*
X17780Y-200890D02*
Y-197890D01*
X16280Y-237490D02*
X19280D01*
X17780Y-238990D02*
Y-235990D01*
X25805Y-256540D02*
X28805D01*
X27305Y-258040D02*
Y-255040D01*
X16280Y-275590D02*
X19280D01*
X17780Y-277090D02*
Y-274090D01*
X25805Y-294640D02*
X28805D01*
X27305Y-296140D02*
Y-293140D01*
X16280Y-313690D02*
X19280D01*
X17780Y-315190D02*
Y-312190D01*
X25805Y-332740D02*
X28805D01*
X27305Y-334240D02*
Y-331240D01*
X16280Y-351790D02*
X19280D01*
X17780Y-353290D02*
Y-350290D01*
X345464Y-239014D02*
X348464D01*
X346964Y-240514D02*
Y-237514D01*
X430300Y-221742D02*
X433300D01*
X431800Y-223242D02*
Y-220242D01*
X449350Y-154940D02*
X452350D01*
X450850Y-156440D02*
Y-153440D01*
X700024Y-62230D02*
X707136D01*
X703580Y-65786D02*
Y-58674D01*
M02*
