M48
;Layer_Color=9474304
;FILE_FORMAT=4:3
METRIC,LZ
;TYPE=PLATED
T01F00S00C0.300
T02F00S00C0.700
T03F00S00C0.711
T04F00S00C1.000
T05F00S00C1.100
T06F00S00C1.400
T07F00S00C1.524
T08F00S00C1.600
T09F00S00C1.800
%
T01
X0107506Y-0033274
Y-0029464
Y-0025654
Y-0021844
Y-0018034
Y-0014224
Y-0010414
Y-0006604
Y-0002794
X0105601
X0103696
X010179
X0099885
X009798
X0096076
X0094171
X0092266
X009036
X0088455
X008655
X0087503Y-0004699
X0089408
X0091313
X0093218
X0095123
X0097028
X0098933
X0100838
X0102743
X0104648
X0106553
X0105601Y-0006604
X0103696
X010179
X0099885
X009798
X0096076
X0094171
X0092266
X009036
X0088455
X008655
X0087503Y-0008509
X0089408
X0091313
X0093218
X0095123
X0097028
X0098933
X0100838
X0102743
X0104648
X0106553
X0105601Y-0010414
X0103696
X010179
X0099885
X009798
X0096076
X0094171
X0092266
X009036
X0088455
X008655
X0084646
X0082741
X0080836
X0081788Y-0012319
X0079883
X0077978
X0076073
X0074168
X0072263
X0070358
X0071311Y-0014224
X0073215
X007512
X0077025
X007893
X0080836
X0081788Y-0016129
X0085598
X0087503
X0089408
X0091313
X0093218
X0095123
X0097028
X0098933
X0100838
X0102743
X0104648
X0106553
X0105601Y-0014224
X0103696
X010179
X0099885
X009798
X0096076
X0094171
X0092266
X009036
X0088455
X008655
X0087503Y-0012319
X0089408
X0091313
X0093218
X0095123
X0097028
X0098933
X0100838
X0102743
X0104648
X0106553
X0105601Y-0018034
X0103696
X010179
X0099885
X009798
X0096076
X0094171
X0092266
X009036
X0088455
X0089408Y-0019939
X0091313
X0093218
X0092266Y-0021844
X009036
X0088455
X0089408Y-0023749
X0087503
X0085598
X0083693
X0081788
X0082741Y-0021844
X0083693Y-0019939
X0087503
X0088455Y-0025654
X008655
X0084646
X0082741
X0080836
X0077025
X0077978Y-0027559
X0076073
X0077025Y-0029464
X007893
X0077978Y-0031369
X0076073
X0074168
X007512Y-0029464
X0073215
Y-0025654
X0069406
Y-0021844
Y-0018034
X0071311
X0073215
X007512
X0077025
X0076073Y-0016129
X0074168
X0072263
X0070358
X0069406Y-0014224
X0067501Y-0010414
X0068453Y-0008509
X0070358
X0072263
X0074168
X0073215Y-0006604
X0077025
X007893
X0080836
X0082741
X0085598Y-0004699
Y-0008509
Y-0012319
X0077025Y-0010414
X0076073Y-0004699
X0077025Y-0002794
X0071311
X0067501
X0068453Y-0004699
X0077025Y-0021844
Y-0033274
X007893
X0079883Y-0035179
X0081788
X0083693
X0085598
X0087503
X0089408
X0091313
X0093218
X0095123
X0097028
X0098933
X0100838
X0102743
X0104648
X0106553
X0105601Y-0033274
X0103696
X010179
X0099885
X009798
X0096076
X0094171
X0092266
X009036
X0088455
X008655
X0084646
X0082741
X0083693Y-0031369
X0085598
X0087503
X0089408
X0091313
X0093218
X0092266Y-0029464
X009036
X0088455
X008655
X0084646
X0082741
X0091313Y-0027559
X0093218
X0094171Y-0025654
X0096076
X009798
X0099885
X010179
X0103696
X0105601
X0106553Y-0023749
X0104648
X0102743
X0100838
X0098933
X0097028
X0095123
X009798Y-0021844
X0099885
X010179
X0103696
X0105601
X0106553Y-0019939
X0104648
X0102743
X0100838
X0098933
X0097028
X0098933Y-0027559
X0100838
X0102743
X0104648
X0106553
X0105601Y-0029464
X0103696
X010179
X0099885
X009798
X0098933Y-0031369
X0100838
X0102743
X0104648
X0106553
X0097028
X0092266Y-0025654
X0077978Y-0035179
X0076073
X0074168
X0072263
X0070358
X0068453
X0069406Y-0033274
X0067501
X0073215
X007512
X0065595
X0066548Y-0031369
X0065595Y-0029464
X0066548Y-0027559
X0064643
X0065595Y-0025654
Y-0021844
X0066548Y-0019939
X0064643
X0065595Y-0018034
X0066548Y-0016129
X0064643
X0062738
X0060833
X0061785Y-0014224
X006369
X0065595
X0066548Y-0012319
X0064643
X0062738
X0060833
X0058928
X0057023
X0055118
X0053213
X0051308
X0052261Y-0010414
X0054166
X005607
X0057975
X0059881
X0060833Y-0008509
X0062738
X0064643
X0066548
X0065595Y-0010414
X0066548Y-0004699
X0064643
X0065595Y-0002794
X0059881
X0057975
X005607
X0054166
X0052261
X0050355
X0048451
X0047498Y-0004699
X0045593
X0043688
X0039878
X0038925Y-0006604
X0039878Y-0008509
X0038925Y-0010414
X0039878Y-0012319
X0038925Y-0014224
X0039878Y-0016129
X0037973
X0038925Y-0018034
X0039878Y-0019939
X0037973
X0036068
X0034163
X0035116Y-0021844
X003321
X0031306
X0028448Y-0019939
X00294Y-0018034
X0030353Y-0012319
X0028448
Y-0008509
Y-0004699
X0030353
X0032258
X0034163
X0036068
X0037021Y-0002794
X0035116
X003321
X0031306
X00294
X003321Y-0006604
X0035116
X0034163Y-0008509
X0035116Y-0014224
X0042736
X004464
X0045085Y-0015494
X0043688Y-0016129
X0042736Y-0018034
X004318Y-0022174
X0042736Y-0025654
X0039878Y-0023749
X0037973
X0036068
X0034696Y-0023901
X0035116Y-0025654
X0037021
X0036068Y-0027559
X0034163
X0035116Y-0029464
X0037021
X0037973Y-0031369
X0039878
X0041783
X0042736Y-0033274
X0040831
X0041783Y-0035179
X0043688
X0045593
X0047498
X0049403
X0051308
X0053213
X0055118
X0057023
X0058928
X0060833
X0062738
X0064643
X0066548
X0059881Y-0033274
X0057975
X005607
X0054166
X0052261
X0050355
X0048451
X0049403Y-0031369
X0051308
X0053213
X0055118
X0057023
X0058928
X0060833
X0059881Y-0029464
X0057975
X005607
X0054166
X0052261
X0050355
X0048451
X0049403Y-0027559
X0051308
X0052261Y-0025654
X0050355
X0048451
X0047498Y-0027559
Y-0031369
X0040831Y-0029464
X0039878Y-0035179
X0037973
X0036068
X0034163
X0032258
X0030353
X0028448
X00294Y-0033274
X0031306
X003321
X0035116
X0036068Y-0031369
X0034163
X0032258
X0030353
X0028448
Y-0027559
X00294Y-0025654
X0028448Y-0023749
X003321Y-0025654
Y-0029464
X0047498Y-0019939
X0049403
X0051308
X0053213
X0055118
X0057023
X0058928
X0060833
X0059881Y-0018034
X0057975
X005607
X0054166
X0052261
X0050355
X0048451
X0047498Y-0016129
Y-0008509
X0045593
X004464Y-0010414
X0043688Y-0012319
X0053213Y-0008509
X0055118
X0057023
X0058928
Y-0004699
X0060833
X0057023
X0055118
X0053213
X0051308
X0052261Y-0006604
Y-0021844
X0054166
X005607
X0057975
X0059881
Y-0025654
X0057975
X0058928Y-0027559
X0060833
X0050355Y-0021844
X0027496
X002559
X0023685
X0021781
X0022733Y-0023749
X0024638
X0023685Y-0025654
X0021781
X0019875
X0020828Y-0023749
Y-0027559
X0021781Y-0029464
X0019875
X0017971
X0016066
X001416
X0012255
X0010351
X0008446
X0006541
X0004635
X000273
X0003683Y-0027559
X0005588
X0007493
X0009398
X0011303
X0013208
X0015113
X0017018
X0016066Y-0025654
X0017018Y-0023749
X001416Y-0021844
X0012255
X0013208Y-0019939
X0015113
X0016066Y-0018034
X001416
X0017018Y-0016129
X0018923
X0020828
X0022733
X0021781Y-0018034
X0019875
X002559
X0027496
X0026543Y-0019939
X0024638
Y-0012319
X0026543
Y-0008509
X0027496Y-0006604
X002559
X0023685
X0024638Y-0004699
X0026543
X0027496Y-0002794
X002559
X0023685
X0021781
X0019875
X0017971
X0016066
X001416
X0012255
X0010351
X0008446
X0006541
X0004635
X000273
X0003683Y-0004699
X0005588
X0007493
X0009398
X0011303
X0013208
X0015113
X0017018
X0018923
X0020828
Y-0008509
X0021781Y-0010414
X0023685
X0022733Y-0012319
X0020828
X0018923
X0017018
X0015113
X0013208
X0011303
X0009398
X0007493
X0005588
X0003683
X0001778
X000273Y-0010414
X0004635
X0005588Y-0008509
X0003683
X0001778
X000273Y-0006604
X0004635
X0006541
X0008446
X0010351Y-0010414
X0012255
X001416
X0016066
X0017971
X0019875
X0012255Y-0014224
X0011303Y-0016129
X0009398
X0007493
X0005588
X0003683
X0001778
X000273Y-0014224
Y-0018034
X0004635
X0005588Y-0019939
X0007493
X0009398
X0011303
Y-0023749
X0009398
X0007493
X0005588
X0003683
X0001778
X000273Y-0025654
X0004635
X0001778Y-0027559
Y-0031369
X0003683
X0005588
X0007493
X0009398
X0011303
X0013208
X0015113
X0017018
X0018923
X0020828
X0022733
X0023685Y-0033274
X002559
X0027496
X0026543Y-0031369
X0027496Y-0029464
Y-0025654
X0026543Y-0035179
X0024638
X0022733
X0020828
X0018923
X0017018
X0015113
X0013208
X0011303
X0009398
X0007493
X0005588
X0003683
X0001778
X000273Y-0033274
X0004635
X0006541
X0008446
X0010351
X0012255
X001416
X0016066
X0017971
X0019875
X0021781
X0003683Y-0019939
X0001778
Y-0004699
T02
X0023368Y-0027813
X0024638
X0025908
T03
X0070358Y-0006223
X0083892Y-0006567
Y-0009107
Y-0011647
Y-0004027
T04
X0031115Y-0029464
Y-0026924
X0038735
Y-0029464
X0037465Y-0018066
Y-0009366
T05
X0041656Y-0006096
X0044196
X0046736
X0049276
T06
X0071882Y-0031429
Y-0027929
X0081203Y-0027968
Y-0031468
T07
X0030881Y-0019589
X0032881Y-0013589
X0030881Y-0007589
X0018681Y-000759
X0018681Y-0019588
T08
X0006858Y-0025527
Y-0017907
Y-0010287
T09
X0095377Y-002921
Y-002159
M30
