G04*
G04 #@! TF.GenerationSoftware,Altium Limited,Altium Designer,24.1.2 (44)*
G04*
G04 Layer_Color=255*
%FSLAX44Y44*%
%MOMM*%
G71*
G04*
G04 #@! TF.SameCoordinates,891499BE-5D65-45DE-B8A6-CBF03CD7CB3A*
G04*
G04*
G04 #@! TF.FilePolarity,Positive*
G04*
G01*
G75*
%ADD52C,3.0000*%
%ADD53C,1.8000*%
%ADD54R,1.8000X1.8000*%
%ADD55R,1.2954X1.2954*%
%ADD56C,1.2954*%
%ADD57R,1.6000X1.6000*%
%ADD58C,1.6000*%
%ADD59C,2.2000*%
%ADD60R,2.6000X2.6000*%
%ADD61C,2.6000*%
%ADD62C,2.7940*%
%ADD63O,0.9000X1.6000*%
%ADD64R,0.9000X1.6000*%
D52*
X953770Y-292100D02*
D03*
Y-215900D02*
D03*
D53*
X311150Y-294640D02*
D03*
X387350D02*
D03*
Y-269240D02*
D03*
X374650Y-93659D02*
D03*
Y-180660D02*
D03*
D54*
X311150Y-269240D02*
D03*
D55*
X838925Y-116469D02*
D03*
D56*
Y-91069D02*
D03*
Y-65669D02*
D03*
Y-40269D02*
D03*
D57*
X492760Y-60960D02*
D03*
D58*
X467360D02*
D03*
X441960D02*
D03*
X416560D02*
D03*
D59*
X718820Y-279293D02*
D03*
Y-314294D02*
D03*
X812031Y-279679D02*
D03*
Y-314681D02*
D03*
D60*
X68580Y-255270D02*
D03*
D61*
Y-179070D02*
D03*
Y-102870D02*
D03*
D62*
X186811Y-75895D02*
D03*
X328810Y-135890D02*
D03*
X308810Y-195890D02*
D03*
Y-75890D02*
D03*
X186810Y-195885D02*
D03*
D63*
X259080Y-278130D02*
D03*
X246380D02*
D03*
D64*
X233680D02*
D03*
M02*
