G04*
G04 #@! TF.GenerationSoftware,Altium Limited,Altium Designer,24.1.2 (44)*
G04*
G04 Layer_Color=8388736*
%FSLAX44Y44*%
%MOMM*%
G71*
G04*
G04 #@! TF.SameCoordinates,891499BE-5D65-45DE-B8A6-CBF03CD7CB3A*
G04*
G04*
G04 #@! TF.FilePolarity,Negative*
G04*
G01*
G75*
%ADD25R,2.1000X1.0000*%
%ADD26R,1.0000X2.1000*%
%ADD27R,4.1000X4.1000*%
%ADD28R,1.1016X1.3516*%
%ADD29R,1.3500X1.5500*%
%ADD30R,2.4416X3.7016*%
%ADD31R,2.6016X1.2016*%
%ADD32R,1.2016X1.2016*%
%ADD33R,1.5116X1.4516*%
%ADD34C,3.1016*%
%ADD35C,1.9016*%
%ADD36R,1.9016X1.9016*%
%ADD37R,1.3970X1.3970*%
%ADD38C,1.3970*%
%ADD39R,1.7500X1.7500*%
%ADD40C,1.7500*%
%ADD41C,2.3016*%
%ADD42R,2.7016X2.7016*%
%ADD43C,2.7016*%
%ADD44C,2.8956*%
%ADD45O,1.0016X1.7016*%
%ADD46R,1.0016X1.7016*%
D25*
X631451Y-336051D02*
D03*
Y-323351D02*
D03*
Y-310651D02*
D03*
Y-297951D02*
D03*
Y-285251D02*
D03*
Y-272551D02*
D03*
Y-259851D02*
D03*
Y-247151D02*
D03*
Y-234451D02*
D03*
Y-221751D02*
D03*
Y-209051D02*
D03*
Y-196351D02*
D03*
Y-183651D02*
D03*
Y-170951D02*
D03*
X451450D02*
D03*
Y-183651D02*
D03*
Y-196351D02*
D03*
Y-209051D02*
D03*
Y-221751D02*
D03*
Y-234451D02*
D03*
Y-247151D02*
D03*
Y-259851D02*
D03*
Y-272551D02*
D03*
Y-285251D02*
D03*
Y-297951D02*
D03*
Y-310651D02*
D03*
Y-323351D02*
D03*
Y-336051D02*
D03*
D26*
X598600Y-155950D02*
D03*
X585900D02*
D03*
X573200D02*
D03*
X560500D02*
D03*
X547800D02*
D03*
X535100D02*
D03*
X522400D02*
D03*
X509700D02*
D03*
X497000D02*
D03*
X484300D02*
D03*
D27*
X552450Y-262890D02*
D03*
D28*
X715820Y-201422D02*
D03*
X737820D02*
D03*
X487480Y-101600D02*
D03*
X465480D02*
D03*
D29*
X311150Y-238760D02*
D03*
X330150D02*
D03*
X368350Y-326390D02*
D03*
X387350D02*
D03*
X465480Y-127000D02*
D03*
X484480D02*
D03*
X728370Y-102870D02*
D03*
X747370D02*
D03*
X730910Y-36830D02*
D03*
X749910D02*
D03*
X803250Y-91069D02*
D03*
X784250D02*
D03*
X737820Y-228600D02*
D03*
X718820D02*
D03*
D30*
X853930Y-200660D02*
D03*
D31*
X794530Y-223660D02*
D03*
Y-200660D02*
D03*
Y-177660D02*
D03*
D32*
X629310Y-36830D02*
D03*
X702310D02*
D03*
Y-102870D02*
D03*
X629310D02*
D03*
D33*
X804250Y-39370D02*
D03*
X784250D02*
D03*
D34*
X953770Y-292100D02*
D03*
Y-215900D02*
D03*
D35*
X311150Y-294640D02*
D03*
X387350D02*
D03*
Y-269240D02*
D03*
X374650Y-93659D02*
D03*
Y-180660D02*
D03*
D36*
X311150Y-269240D02*
D03*
D37*
X838925Y-116469D02*
D03*
D38*
Y-91069D02*
D03*
Y-65669D02*
D03*
Y-40269D02*
D03*
D39*
X492760Y-60960D02*
D03*
D40*
X467360D02*
D03*
X441960D02*
D03*
X416560D02*
D03*
D41*
X718820Y-279293D02*
D03*
Y-314294D02*
D03*
X812031Y-279679D02*
D03*
Y-314681D02*
D03*
D42*
X68580Y-255270D02*
D03*
D43*
Y-179070D02*
D03*
Y-102870D02*
D03*
D44*
X186811Y-75895D02*
D03*
X328810Y-135890D02*
D03*
X308810Y-195890D02*
D03*
Y-75890D02*
D03*
X186810Y-195885D02*
D03*
D45*
X259080Y-278130D02*
D03*
X246380D02*
D03*
D46*
X233680D02*
D03*
M02*
